<?xml version="1.0" encoding="UTF-8" standalone="no"?>
<!DOCTYPE svg PUBLIC "-//W3C//DTD SVG 1.1//EN"
 "http://www.w3.org/Graphics/SVG/1.1/DTD/svg11.dtd">
<!-- Generated by graphviz version 2.43.0 (0)
 -->
<!-- Title: finite_state_machine Pages: 1 -->
<svg width="396pt" height="385pt"
 viewBox="0.00 0.00 396.00 385.00" xmlns="http://www.w3.org/2000/svg" xmlns:xlink="http://www.w3.org/1999/xlink">
<g id="graph0" class="graph" transform="scale(1 1) rotate(0) translate(4 381)">
<title>finite_state_machine</title>
<polygon fill="white" stroke="transparent" points="-4,4 -4,-381 392,-381 392,4 -4,4"/>
<!-- 4 -->
<g id="node1" class="node">
<title>4</title>
<ellipse fill="none" stroke="black" cx="18" cy="-156" rx="18" ry="18"/>
<text text-anchor="middle" x="18" y="-152.3" font-family="Helvetica,Arial,sans-serif" font-size="14.00">4</text>
</g>
<!-- 3 -->
<g id="node2" class="node">
<title>3</title>
<ellipse fill="none" stroke="black" cx="106" cy="-207" rx="18" ry="18"/>
<text text-anchor="middle" x="106" y="-203.3" font-family="Helvetica,Arial,sans-serif" font-size="14.00">3</text>
</g>
<!-- 4&#45;&gt;3 -->
<g id="edge1" class="edge">
<title>4&#45;&gt;3</title>
<path fill="none" stroke="black" d="M30.58,-169.3C36.94,-175.95 45.3,-183.69 54,-189 61.52,-193.59 70.38,-197.23 78.59,-200.01"/>
<polygon fill="black" stroke="black" points="77.55,-203.35 88.14,-202.96 79.63,-196.66 77.55,-203.35"/>
<text text-anchor="middle" x="62" y="-199.8" font-family="Helvetica,Arial,sans-serif" font-size="14.00">0</text>
</g>
<!-- 5 -->
<g id="node3" class="node">
<title>5</title>
<ellipse fill="none" stroke="black" cx="194" cy="-314" rx="18" ry="18"/>
<text text-anchor="middle" x="194" y="-310.3" font-family="Helvetica,Arial,sans-serif" font-size="14.00">5</text>
</g>
<!-- 4&#45;&gt;5 -->
<g id="edge2" class="edge">
<title>4&#45;&gt;5</title>
<path fill="none" stroke="black" d="M19.79,-174.05C22.03,-216.3 29.9,-319.82 54,-343 87.32,-375.04 115.78,-361.8 158,-343 163.32,-340.63 168.47,-337.22 173.12,-333.57"/>
<polygon fill="black" stroke="black" points="175.58,-336.07 180.87,-326.89 171.01,-330.77 175.58,-336.07"/>
<text text-anchor="middle" x="106" y="-365.8" font-family="Helvetica,Arial,sans-serif" font-size="14.00">0</text>
</g>
<!-- 2 -->
<g id="node4" class="node">
<title>2</title>
<ellipse fill="none" stroke="black" cx="370" cy="-125" rx="18" ry="18"/>
<text text-anchor="middle" x="370" y="-121.3" font-family="Helvetica,Arial,sans-serif" font-size="14.00">2</text>
</g>
<!-- 4&#45;&gt;2 -->
<g id="edge3" class="edge">
<title>4&#45;&gt;2</title>
<path fill="none" stroke="black" d="M35.64,-151.03C52.84,-146.33 80.55,-140 105,-140 105,-140 105,-140 283,-140 303.21,-140 325.69,-135.93 342.6,-132.03"/>
<polygon fill="black" stroke="black" points="343.45,-135.43 352.34,-129.66 341.8,-128.63 343.45,-135.43"/>
<text text-anchor="middle" x="194" y="-143.8" font-family="Helvetica,Arial,sans-serif" font-size="14.00">0</text>
</g>
<!-- 1 -->
<g id="node5" class="node">
<title>1</title>
<ellipse fill="none" stroke="black" cx="194" cy="-82" rx="18" ry="18"/>
<text text-anchor="middle" x="194" y="-78.3" font-family="Helvetica,Arial,sans-serif" font-size="14.00">1</text>
</g>
<!-- 4&#45;&gt;1 -->
<g id="edge4" class="edge">
<title>4&#45;&gt;1</title>
<path fill="none" stroke="black" d="M24.3,-138.89C29.82,-123.08 39.68,-99.61 54,-83 65.91,-69.18 70.56,-65.35 88,-60 117.77,-50.88 128.18,-54.02 158,-63 161.91,-64.18 165.88,-65.82 169.67,-67.66"/>
<polygon fill="black" stroke="black" points="168.13,-70.81 178.6,-72.45 171.44,-64.64 168.13,-70.81"/>
<text text-anchor="middle" x="106" y="-63.8" font-family="Helvetica,Arial,sans-serif" font-size="14.00">1</text>
</g>
<!-- 3&#45;&gt;4 -->
<g id="edge12" class="edge">
<title>3&#45;&gt;4</title>
<path fill="none" stroke="black" d="M94.78,-192.87C88.45,-185.07 79.7,-175.82 70,-170 62.69,-165.61 53.98,-162.57 45.84,-160.47"/>
<polygon fill="black" stroke="black" points="46.51,-157.03 35.99,-158.28 45,-163.87 46.51,-157.03"/>
<text text-anchor="middle" x="62" y="-173.8" font-family="Helvetica,Arial,sans-serif" font-size="14.00">20</text>
</g>
<!-- 3&#45;&gt;5 -->
<g id="edge14" class="edge">
<title>3&#45;&gt;5</title>
<path fill="none" stroke="black" d="M112.8,-223.88C118.55,-238.95 128.47,-261.04 142,-277 149.61,-285.98 159.84,-293.95 169.13,-300.17"/>
<polygon fill="black" stroke="black" points="167.33,-303.16 177.64,-305.57 171.08,-297.26 167.33,-303.16"/>
<text text-anchor="middle" x="150" y="-294.8" font-family="Helvetica,Arial,sans-serif" font-size="14.00">0</text>
</g>
<!-- 3&#45;&gt;2 -->
<g id="edge15" class="edge">
<title>3&#45;&gt;2</title>
<path fill="none" stroke="black" d="M123.4,-212.43C163.51,-224.61 268.04,-249.63 334,-204 350.91,-192.3 359.75,-170.47 364.31,-152.72"/>
<polygon fill="black" stroke="black" points="367.75,-153.38 366.53,-142.85 360.92,-151.84 367.75,-153.38"/>
<text text-anchor="middle" x="238" y="-233.8" font-family="Helvetica,Arial,sans-serif" font-size="14.00">2</text>
</g>
<!-- 3&#45;&gt;1 -->
<g id="edge13" class="edge">
<title>3&#45;&gt;1</title>
<path fill="none" stroke="black" d="M110.14,-189.18C114.43,-169.09 123.77,-136.31 142,-114 148.87,-105.59 158.57,-98.74 167.66,-93.56"/>
<polygon fill="black" stroke="black" points="169.55,-96.52 176.78,-88.78 166.3,-90.32 169.55,-96.52"/>
<text text-anchor="middle" x="150" y="-117.8" font-family="Helvetica,Arial,sans-serif" font-size="14.00">0</text>
</g>
<!-- 5&#45;&gt;4 -->
<g id="edge10" class="edge">
<title>5&#45;&gt;4</title>
<path fill="none" stroke="black" d="M175.65,-315.7C165.38,-315.98 152.39,-315.03 142,-310 86.69,-283.21 48.44,-218.21 30.54,-181.8"/>
<polygon fill="black" stroke="black" points="33.5,-179.86 26.04,-172.34 27.18,-182.87 33.5,-179.86"/>
<text text-anchor="middle" x="106" y="-301.8" font-family="Helvetica,Arial,sans-serif" font-size="14.00">1</text>
</g>
<!-- 5&#45;&gt;3 -->
<g id="edge11" class="edge">
<title>5&#45;&gt;3</title>
<path fill="none" stroke="black" d="M183.78,-299C177.04,-288.37 167.46,-273.94 158,-262 148.2,-249.64 136.26,-236.66 126.4,-226.42"/>
<polygon fill="black" stroke="black" points="128.82,-223.89 119.33,-219.18 123.81,-228.78 128.82,-223.89"/>
<text text-anchor="middle" x="150" y="-265.8" font-family="Helvetica,Arial,sans-serif" font-size="14.00">2</text>
</g>
<!-- 2&#45;&gt;4 -->
<g id="edge16" class="edge">
<title>2&#45;&gt;4</title>
<path fill="none" stroke="black" d="M365.49,-107.36C357.5,-72.9 334.5,0 283,0 105,0 105,0 105,0 47.17,0 27.94,-83.25 21.77,-128.12"/>
<polygon fill="black" stroke="black" points="18.29,-127.75 20.53,-138.1 25.24,-128.61 18.29,-127.75"/>
<text text-anchor="middle" x="194" y="-3.8" font-family="Helvetica,Arial,sans-serif" font-size="14.00">33</text>
</g>
<!-- 2&#45;&gt;3 -->
<g id="edge17" class="edge">
<title>2&#45;&gt;3</title>
<path fill="none" stroke="black" d="M356.72,-137.59C350.43,-143.38 342.34,-149.86 334,-154 266.99,-187.25 178.41,-200.12 134.34,-204.7"/>
<polygon fill="black" stroke="black" points="133.75,-201.24 124.13,-205.69 134.43,-208.21 133.75,-201.24"/>
<text text-anchor="middle" x="238" y="-192.8" font-family="Helvetica,Arial,sans-serif" font-size="14.00">18</text>
</g>
<!-- 0 -->
<g id="node6" class="node">
<title>0</title>
<ellipse fill="none" stroke="black" cx="282" cy="-83" rx="18" ry="18"/>
<text text-anchor="middle" x="282" y="-79.3" font-family="Helvetica,Arial,sans-serif" font-size="14.00">0</text>
</g>
<!-- 2&#45;&gt;0 -->
<g id="edge18" class="edge">
<title>2&#45;&gt;0</title>
<path fill="none" stroke="black" d="M361.02,-108.86C355.09,-98.82 345.96,-86.77 334,-81 326.67,-77.47 318.05,-76.72 309.99,-77.23"/>
<polygon fill="black" stroke="black" points="309.39,-73.77 299.89,-78.47 310.24,-80.72 309.39,-73.77"/>
<text text-anchor="middle" x="326" y="-84.8" font-family="Helvetica,Arial,sans-serif" font-size="14.00">2</text>
</g>
<!-- 1&#45;&gt;4 -->
<g id="edge6" class="edge">
<title>1&#45;&gt;4</title>
<path fill="none" stroke="black" d="M176,-84.52C148.57,-89.18 93.62,-101.04 54,-126 49.01,-129.15 43.98,-132.97 39.37,-136.82"/>
<polygon fill="black" stroke="black" points="36.8,-134.41 31.58,-143.63 41.41,-139.68 36.8,-134.41"/>
<text text-anchor="middle" x="106" y="-111.8" font-family="Helvetica,Arial,sans-serif" font-size="14.00">9</text>
</g>
<!-- 1&#45;&gt;3 -->
<g id="edge5" class="edge">
<title>1&#45;&gt;3</title>
<path fill="none" stroke="black" d="M183.08,-96.42C168.35,-117.82 140.58,-158.2 122.97,-183.79"/>
<polygon fill="black" stroke="black" points="119.99,-181.95 117.2,-192.17 125.75,-185.92 119.99,-181.95"/>
<text text-anchor="middle" x="150" y="-158.8" font-family="Helvetica,Arial,sans-serif" font-size="14.00">50</text>
</g>
<!-- 1&#45;&gt;0 -->
<g id="edge7" class="edge">
<title>1&#45;&gt;0</title>
<path fill="none" stroke="black" d="M212.4,-82.2C224.25,-82.34 240.18,-82.53 253.71,-82.68"/>
<polygon fill="black" stroke="black" points="253.88,-86.18 263.92,-82.8 253.96,-79.19 253.88,-86.18"/>
<text text-anchor="middle" x="238" y="-85.8" font-family="Helvetica,Arial,sans-serif" font-size="14.00">1</text>
</g>
<!-- 0&#45;&gt;2 -->
<g id="edge9" class="edge">
<title>0&#45;&gt;2</title>
<path fill="none" stroke="black" d="M298.38,-90.51C311.14,-96.74 329.53,-105.72 344.34,-112.96"/>
<polygon fill="black" stroke="black" points="342.95,-116.17 353.47,-117.41 346.02,-109.88 342.95,-116.17"/>
<text text-anchor="middle" x="326" y="-110.8" font-family="Helvetica,Arial,sans-serif" font-size="14.00">18</text>
</g>
<!-- 0&#45;&gt;1 -->
<g id="edge8" class="edge">
<title>0&#45;&gt;1</title>
<path fill="none" stroke="black" d="M267.09,-72.83C260.95,-68.95 253.44,-64.98 246,-63 236.71,-60.53 226.75,-63.03 218.12,-66.93"/>
<polygon fill="black" stroke="black" points="216.24,-63.96 209.05,-71.74 219.52,-70.15 216.24,-63.96"/>
<text text-anchor="middle" x="238" y="-66.8" font-family="Helvetica,Arial,sans-serif" font-size="14.00">9</text>
</g>
</g>
</svg>
