<?xml version="1.0" encoding="UTF-8" standalone="no"?>
<!DOCTYPE svg PUBLIC "-//W3C//DTD SVG 1.1//EN"
 "http://www.w3.org/Graphics/SVG/1.1/DTD/svg11.dtd">
<!-- Generated by graphviz version 2.43.0 (0)
 -->
<!-- Title: finite_state_machine Pages: 1 -->
<svg width="388pt" height="370pt"
 viewBox="0.00 0.00 388.00 370.00" xmlns="http://www.w3.org/2000/svg" xmlns:xlink="http://www.w3.org/1999/xlink">
<g id="graph0" class="graph" transform="scale(1 1) rotate(0) translate(4 366)">
<title>finite_state_machine</title>
<polygon fill="white" stroke="transparent" points="-4,4 -4,-366 384,-366 384,4 -4,4"/>
<!-- 4 -->
<g id="node1" class="node">
<title>4</title>
<ellipse fill="none" stroke="black" cx="18" cy="-188" rx="18" ry="18"/>
<text text-anchor="middle" x="18" y="-184.3" font-family="Helvetica,Arial,sans-serif" font-size="14.00">4</text>
</g>
<!-- 3 -->
<g id="node2" class="node">
<title>3</title>
<ellipse fill="none" stroke="black" cx="106" cy="-129" rx="18" ry="18"/>
<text text-anchor="middle" x="106" y="-125.3" font-family="Helvetica,Arial,sans-serif" font-size="14.00">3</text>
</g>
<!-- 4&#45;&gt;3 -->
<g id="edge1" class="edge">
<title>4&#45;&gt;3</title>
<path fill="none" stroke="black" d="M25.12,-171.35C30.64,-158.85 40.07,-142.48 54,-134 60.98,-129.75 69.5,-127.91 77.58,-127.29"/>
<polygon fill="black" stroke="black" points="77.83,-130.79 87.76,-127.09 77.69,-123.79 77.83,-130.79"/>
<text text-anchor="middle" x="62" y="-137.8" font-family="Helvetica,Arial,sans-serif" font-size="14.00">0</text>
</g>
<!-- 2 -->
<g id="node3" class="node">
<title>2</title>
<ellipse fill="none" stroke="black" cx="194" cy="-221" rx="18" ry="18"/>
<text text-anchor="middle" x="194" y="-217.3" font-family="Helvetica,Arial,sans-serif" font-size="14.00">2</text>
</g>
<!-- 4&#45;&gt;2 -->
<g id="edge2" class="edge">
<title>4&#45;&gt;2</title>
<path fill="none" stroke="black" d="M36,-191.22C66.35,-196.98 130.08,-209.07 166.32,-215.94"/>
<polygon fill="black" stroke="black" points="165.71,-219.39 176.19,-217.81 167.01,-212.51 165.71,-219.39"/>
<text text-anchor="middle" x="106" y="-210.8" font-family="Helvetica,Arial,sans-serif" font-size="14.00">0</text>
</g>
<!-- 1 -->
<g id="node4" class="node">
<title>1</title>
<ellipse fill="none" stroke="black" cx="362" cy="-218" rx="18" ry="18"/>
<text text-anchor="middle" x="362" y="-214.3" font-family="Helvetica,Arial,sans-serif" font-size="14.00">1</text>
</g>
<!-- 4&#45;&gt;1 -->
<g id="edge3" class="edge">
<title>4&#45;&gt;1</title>
<path fill="none" stroke="black" d="M20.37,-205.93C24.63,-247.51 41.45,-347 105,-347 105,-347 105,-347 283,-347 329.89,-347 349.35,-283.82 356.81,-245.89"/>
<polygon fill="black" stroke="black" points="360.27,-246.4 358.61,-235.94 353.39,-245.16 360.27,-246.4"/>
<text text-anchor="middle" x="194" y="-350.8" font-family="Helvetica,Arial,sans-serif" font-size="14.00">0</text>
</g>
<!-- 5 -->
<g id="node5" class="node">
<title>5</title>
<ellipse fill="none" stroke="black" cx="194" cy="-18" rx="18" ry="18"/>
<text text-anchor="middle" x="194" y="-14.3" font-family="Helvetica,Arial,sans-serif" font-size="14.00">5</text>
</g>
<!-- 4&#45;&gt;5 -->
<g id="edge4" class="edge">
<title>4&#45;&gt;5</title>
<path fill="none" stroke="black" d="M25.21,-171.51C39.51,-136.25 78.48,-54.16 142,-22 149.27,-18.32 157.89,-16.76 165.94,-16.28"/>
<polygon fill="black" stroke="black" points="166.09,-19.78 176.06,-16.18 166.02,-12.78 166.09,-19.78"/>
<text text-anchor="middle" x="106" y="-67.8" font-family="Helvetica,Arial,sans-serif" font-size="14.00">0</text>
</g>
<!-- 3&#45;&gt;4 -->
<g id="edge10" class="edge">
<title>3&#45;&gt;4</title>
<path fill="none" stroke="black" d="M90.78,-138.76C77.45,-147.9 57.31,-161.72 41.75,-172.4"/>
<polygon fill="black" stroke="black" points="39.47,-169.71 33.2,-178.26 43.43,-175.49 39.47,-169.71"/>
<text text-anchor="middle" x="62" y="-166.8" font-family="Helvetica,Arial,sans-serif" font-size="14.00">20</text>
</g>
<!-- 3&#45;&gt;2 -->
<g id="edge11" class="edge">
<title>3&#45;&gt;2</title>
<path fill="none" stroke="black" d="M123.24,-135.08C134.1,-139.77 148.15,-147.14 158,-157 168.66,-167.68 176.98,-182.28 182.83,-194.84"/>
<polygon fill="black" stroke="black" points="179.78,-196.6 186.98,-204.36 186.19,-193.8 179.78,-196.6"/>
<text text-anchor="middle" x="150" y="-160.8" font-family="Helvetica,Arial,sans-serif" font-size="14.00">0</text>
</g>
<!-- 3&#45;&gt;1 -->
<g id="edge12" class="edge">
<title>3&#45;&gt;1</title>
<path fill="none" stroke="black" d="M124.08,-132.68C134.02,-134.91 146.77,-137.91 158,-141 233.49,-161.76 255.61,-159.71 326,-194 330.29,-196.09 334.65,-198.66 338.77,-201.33"/>
<polygon fill="black" stroke="black" points="337.06,-204.4 347.28,-207.19 341.03,-198.64 337.06,-204.4"/>
<text text-anchor="middle" x="238" y="-165.8" font-family="Helvetica,Arial,sans-serif" font-size="14.00">0</text>
</g>
<!-- 3&#45;&gt;5 -->
<g id="edge13" class="edge">
<title>3&#45;&gt;5</title>
<path fill="none" stroke="black" d="M115.75,-113.27C122.42,-101.75 132.11,-85.93 142,-73 151.58,-60.47 163.52,-47.49 173.43,-37.28"/>
<polygon fill="black" stroke="black" points="176.01,-39.65 180.54,-30.07 171.03,-34.73 176.01,-39.65"/>
<text text-anchor="middle" x="150" y="-76.8" font-family="Helvetica,Arial,sans-serif" font-size="14.00">0</text>
</g>
<!-- 2&#45;&gt;4 -->
<g id="edge5" class="edge">
<title>2&#45;&gt;4</title>
<path fill="none" stroke="black" d="M176.03,-224.54C155.07,-228.29 118.46,-232.81 88,-226 71.25,-222.25 54.33,-213.05 41.44,-204.63"/>
<polygon fill="black" stroke="black" points="43.06,-201.5 32.83,-198.73 39.1,-207.27 43.06,-201.5"/>
<text text-anchor="middle" x="106" y="-232.8" font-family="Helvetica,Arial,sans-serif" font-size="14.00">33</text>
</g>
<!-- 2&#45;&gt;3 -->
<g id="edge6" class="edge">
<title>2&#45;&gt;3</title>
<path fill="none" stroke="black" d="M179.31,-210.24C168.62,-201.54 153.67,-188.69 142,-176 135.12,-168.52 128.28,-159.73 122.5,-151.78"/>
<polygon fill="black" stroke="black" points="125.33,-149.72 116.69,-143.59 119.62,-153.77 125.33,-149.72"/>
<text text-anchor="middle" x="150" y="-194.8" font-family="Helvetica,Arial,sans-serif" font-size="14.00">20</text>
</g>
<!-- 0 -->
<g id="node6" class="node">
<title>0</title>
<ellipse fill="none" stroke="black" cx="282" cy="-218" rx="18" ry="18"/>
<text text-anchor="middle" x="282" y="-214.3" font-family="Helvetica,Arial,sans-serif" font-size="14.00">0</text>
</g>
<!-- 2&#45;&gt;0 -->
<g id="edge7" class="edge">
<title>2&#45;&gt;0</title>
<path fill="none" stroke="black" d="M212.01,-222.6C221.94,-223.3 234.69,-223.8 246,-223 248.57,-222.82 251.24,-222.56 253.91,-222.26"/>
<polygon fill="black" stroke="black" points="254.51,-225.71 263.96,-220.93 253.59,-218.77 254.51,-225.71"/>
<text text-anchor="middle" x="238" y="-226.8" font-family="Helvetica,Arial,sans-serif" font-size="14.00">1</text>
</g>
<!-- 1&#45;&gt;4 -->
<g id="edge16" class="edge">
<title>1&#45;&gt;4</title>
<path fill="none" stroke="black" d="M353.76,-234.16C342.3,-257.01 317.66,-296 283,-296 105,-296 105,-296 105,-296 63.69,-296 39.02,-247.05 27.31,-215.06"/>
<polygon fill="black" stroke="black" points="30.54,-213.66 23.96,-205.35 23.92,-215.95 30.54,-213.66"/>
<text text-anchor="middle" x="194" y="-299.8" font-family="Helvetica,Arial,sans-serif" font-size="14.00">10</text>
</g>
<!-- 1&#45;&gt;3 -->
<g id="edge17" class="edge">
<title>1&#45;&gt;3</title>
<path fill="none" stroke="black" d="M348.9,-205.09C337.25,-193.21 318.69,-175.72 300,-164 245.2,-129.62 222.51,-136.83 158,-132 150.22,-131.42 141.76,-130.88 134.01,-130.43"/>
<polygon fill="black" stroke="black" points="134.19,-126.93 124.01,-129.86 133.8,-133.92 134.19,-126.93"/>
<text text-anchor="middle" x="238" y="-142.8" font-family="Helvetica,Arial,sans-serif" font-size="14.00">50</text>
</g>
<!-- 1&#45;&gt;0 -->
<g id="edge18" class="edge">
<title>1&#45;&gt;0</title>
<path fill="none" stroke="black" d="M346.69,-208.13C340.6,-204.51 333.24,-200.84 326,-199 319.09,-197.25 311.89,-198.9 305.4,-201.84"/>
<polygon fill="black" stroke="black" points="303.53,-198.88 296.52,-206.82 306.96,-204.98 303.53,-198.88"/>
<text text-anchor="middle" x="322" y="-202.8" font-family="Helvetica,Arial,sans-serif" font-size="14.00">2</text>
</g>
<!-- 5&#45;&gt;4 -->
<g id="edge14" class="edge">
<title>5&#45;&gt;4</title>
<path fill="none" stroke="black" d="M176.56,-12.22C154.5,-5.57 115,2.36 88,-15 38.94,-46.54 24.76,-119.52 20.66,-159.89"/>
<polygon fill="black" stroke="black" points="17.17,-159.61 19.79,-169.88 24.15,-160.22 17.17,-159.61"/>
<text text-anchor="middle" x="106" y="-18.8" font-family="Helvetica,Arial,sans-serif" font-size="14.00">1</text>
</g>
<!-- 5&#45;&gt;3 -->
<g id="edge15" class="edge">
<title>5&#45;&gt;3</title>
<path fill="none" stroke="black" d="M175.91,-19.89C164.95,-21.93 151.13,-26.18 142,-35 123.89,-52.49 115.07,-80.21 110.83,-101.02"/>
<polygon fill="black" stroke="black" points="107.38,-100.43 109.05,-110.89 114.27,-101.67 107.38,-100.43"/>
<text text-anchor="middle" x="150" y="-38.8" font-family="Helvetica,Arial,sans-serif" font-size="14.00">2</text>
</g>
<!-- 0&#45;&gt;2 -->
<g id="edge8" class="edge">
<title>0&#45;&gt;2</title>
<path fill="none" stroke="black" d="M265.91,-209.81C255.8,-205.33 242.17,-201.2 230,-204 226.29,-204.85 222.52,-206.15 218.9,-207.66"/>
<polygon fill="black" stroke="black" points="217.32,-204.54 209.78,-211.98 220.32,-210.86 217.32,-204.54"/>
<text text-anchor="middle" x="238" y="-207.8" font-family="Helvetica,Arial,sans-serif" font-size="14.00">19</text>
</g>
<!-- 0&#45;&gt;1 -->
<g id="edge9" class="edge">
<title>0&#45;&gt;1</title>
<path fill="none" stroke="black" d="M300.31,-218C310.11,-218 322.58,-218 333.67,-218"/>
<polygon fill="black" stroke="black" points="333.74,-221.5 343.74,-218 333.74,-214.5 333.74,-221.5"/>
<text text-anchor="middle" x="322" y="-221.8" font-family="Helvetica,Arial,sans-serif" font-size="14.00">8</text>
</g>
</g>
</svg>
