<?xml version="1.0" encoding="UTF-8" standalone="no"?>
<!DOCTYPE svg PUBLIC "-//W3C//DTD SVG 1.1//EN"
 "http://www.w3.org/Graphics/SVG/1.1/DTD/svg11.dtd">
<!-- Generated by graphviz version 2.43.0 (0)
 -->
<!-- Title: finite_state_machine Pages: 1 -->
<svg width="1062pt" height="477pt"
 viewBox="0.00 0.00 1062.00 477.00" xmlns="http://www.w3.org/2000/svg" xmlns:xlink="http://www.w3.org/1999/xlink">
<g id="graph0" class="graph" transform="scale(1 1) rotate(0) translate(4 473)">
<title>finite_state_machine</title>
<polygon fill="white" stroke="transparent" points="-4,4 -4,-473 1058,-473 1058,4 -4,4"/>
<!-- 1 -->
<g id="node1" class="node">
<title>1</title>
<ellipse fill="none" stroke="black" cx="18" cy="-158" rx="18" ry="18"/>
<text text-anchor="middle" x="18" y="-154.3" font-family="Helvetica,Arial,sans-serif" font-size="14.00">1</text>
</g>
<!-- 9 -->
<g id="node2" class="node">
<title>9</title>
<ellipse fill="none" stroke="black" cx="124" cy="-318" rx="18" ry="18"/>
<text text-anchor="middle" x="124" y="-314.3" font-family="Helvetica,Arial,sans-serif" font-size="14.00">9</text>
</g>
<!-- 1&#45;&gt;9 -->
<g id="edge1" class="edge">
<title>1&#45;&gt;9</title>
<path fill="none" stroke="black" d="M19.32,-176.32C20.73,-203.35 27.08,-254.15 54,-286 64.84,-298.82 81.93,-306.8 96.39,-311.58"/>
<polygon fill="black" stroke="black" points="95.75,-315.04 106.33,-314.53 97.73,-308.33 95.75,-315.04"/>
<text text-anchor="middle" x="71" y="-311.8" font-family="Helvetica,Arial,sans-serif" font-size="14.00">0/524</text>
</g>
<!-- 7 -->
<g id="node3" class="node">
<title>7</title>
<ellipse fill="none" stroke="black" cx="794" cy="-105" rx="18" ry="18"/>
<text text-anchor="middle" x="794" y="-101.3" font-family="Helvetica,Arial,sans-serif" font-size="14.00">7</text>
</g>
<!-- 1&#45;&gt;7 -->
<g id="edge2" class="edge">
<title>1&#45;&gt;7</title>
<path fill="none" stroke="black" d="M23.6,-140.69C28.72,-124.2 38.4,-99.49 54,-83 77.91,-57.72 88.2,-46 123,-46 123,-46 123,-46 659,-46 701.52,-46 745.69,-71.19 771.19,-88.65"/>
<polygon fill="black" stroke="black" points="769.22,-91.54 779.4,-94.45 773.25,-85.82 769.22,-91.54"/>
<text text-anchor="middle" x="393.5" y="-49.8" font-family="Helvetica,Arial,sans-serif" font-size="14.00">0/811</text>
</g>
<!-- 5 -->
<g id="node4" class="node">
<title>5</title>
<ellipse fill="none" stroke="black" cx="529" cy="-266" rx="18" ry="18"/>
<text text-anchor="middle" x="529" y="-262.3" font-family="Helvetica,Arial,sans-serif" font-size="14.00">5</text>
</g>
<!-- 1&#45;&gt;5 -->
<g id="edge3" class="edge">
<title>1&#45;&gt;5</title>
<path fill="none" stroke="black" d="M35.32,-163.92C55.6,-170.74 91.38,-181 123,-181 123,-181 123,-181 394.5,-181 439.56,-181 456.98,-177.93 493,-205 504.55,-213.68 512.9,-227.37 518.55,-239.59"/>
<polygon fill="black" stroke="black" points="515.38,-241.1 522.5,-248.94 521.83,-238.37 515.38,-241.1"/>
<text text-anchor="middle" x="251.5" y="-184.8" font-family="Helvetica,Arial,sans-serif" font-size="14.00">191/879</text>
</g>
<!-- 6 -->
<g id="node5" class="node">
<title>6</title>
<ellipse fill="none" stroke="black" cx="915" cy="-145" rx="18" ry="18"/>
<text text-anchor="middle" x="915" y="-141.3" font-family="Helvetica,Arial,sans-serif" font-size="14.00">6</text>
</g>
<!-- 1&#45;&gt;6 -->
<g id="edge4" class="edge">
<title>1&#45;&gt;6</title>
<path fill="none" stroke="black" d="M36.27,-157.85C125.12,-157.08 539.75,-153.21 879,-146 881.55,-145.95 884.21,-145.88 886.87,-145.81"/>
<polygon fill="black" stroke="black" points="887.01,-149.31 896.91,-145.54 886.82,-142.31 887.01,-149.31"/>
<text text-anchor="middle" x="464.5" y="-156.8" font-family="Helvetica,Arial,sans-serif" font-size="14.00">620/954</text>
</g>
<!-- 9&#45;&gt;1 -->
<g id="edge5" class="edge">
<title>9&#45;&gt;1</title>
<path fill="none" stroke="black" d="M114.59,-302.53C108.23,-291.76 98.77,-277.49 88,-267 75.1,-254.45 65.45,-258.89 54,-245 39.74,-227.7 30.69,-203.83 25.37,-185.47"/>
<polygon fill="black" stroke="black" points="28.71,-184.4 22.73,-175.65 21.95,-186.22 28.71,-184.4"/>
<text text-anchor="middle" x="71" y="-270.8" font-family="Helvetica,Arial,sans-serif" font-size="14.00">0/524</text>
</g>
<!-- 3 -->
<g id="node6" class="node">
<title>3</title>
<ellipse fill="none" stroke="black" cx="1036" cy="-393" rx="18" ry="18"/>
<text text-anchor="middle" x="1036" y="-389.3" font-family="Helvetica,Arial,sans-serif" font-size="14.00">3</text>
</g>
<!-- 9&#45;&gt;3 -->
<g id="edge6" class="edge">
<title>9&#45;&gt;3</title>
<path fill="none" stroke="black" d="M125.5,-336.29C127.19,-361.07 133.95,-405.07 160,-430 190.06,-458.78 208.89,-454 250.5,-454 250.5,-454 250.5,-454 916,-454 954.83,-454 966.81,-450.15 1000,-430 1006.65,-425.96 1012.87,-420.33 1018.16,-414.67"/>
<polygon fill="black" stroke="black" points="1020.83,-416.93 1024.76,-407.09 1015.55,-412.34 1020.83,-416.93"/>
<text text-anchor="middle" x="593.5" y="-457.8" font-family="Helvetica,Arial,sans-serif" font-size="14.00">0/1053</text>
</g>
<!-- 4 -->
<g id="node7" class="node">
<title>4</title>
<ellipse fill="none" stroke="black" cx="251.5" cy="-335" rx="18" ry="18"/>
<text text-anchor="middle" x="251.5" y="-331.3" font-family="Helvetica,Arial,sans-serif" font-size="14.00">4</text>
</g>
<!-- 9&#45;&gt;4 -->
<g id="edge7" class="edge">
<title>9&#45;&gt;4</title>
<path fill="none" stroke="black" d="M140.69,-310.82C146.61,-308.47 153.49,-306.17 160,-305 181.43,-301.15 188.28,-298.3 209,-305 216.44,-307.41 223.67,-311.71 229.96,-316.31"/>
<polygon fill="black" stroke="black" points="227.87,-319.12 237.87,-322.63 232.24,-313.65 227.87,-319.12"/>
<text text-anchor="middle" x="184.5" y="-308.8" font-family="Helvetica,Arial,sans-serif" font-size="14.00">433/766</text>
</g>
<!-- 7&#45;&gt;1 -->
<g id="edge15" class="edge">
<title>7&#45;&gt;1</title>
<path fill="none" stroke="black" d="M775.67,-103.3C750.16,-100.96 700.95,-97 659,-97 123,-97 123,-97 123,-97 90.53,-97 81.27,-103.37 54,-121 47.71,-125.06 41.76,-130.49 36.6,-135.92"/>
<polygon fill="black" stroke="black" points="33.68,-133.94 29.67,-143.75 38.92,-138.58 33.68,-133.94"/>
<text text-anchor="middle" x="393.5" y="-100.8" font-family="Helvetica,Arial,sans-serif" font-size="14.00">811/811</text>
</g>
<!-- 7&#45;&gt;6 -->
<g id="edge13" class="edge">
<title>7&#45;&gt;6</title>
<path fill="none" stroke="black" d="M810.52,-97.47C828.15,-90.07 857.28,-81.44 879,-93 889.66,-98.68 897.66,-109.21 903.3,-119.32"/>
<polygon fill="black" stroke="black" points="900.21,-120.96 907.82,-128.33 906.46,-117.82 900.21,-120.96"/>
<text text-anchor="middle" x="854.5" y="-96.8" font-family="Helvetica,Arial,sans-serif" font-size="14.00">624/837</text>
</g>
<!-- 0 -->
<g id="node9" class="node">
<title>0</title>
<ellipse fill="none" stroke="black" cx="658" cy="-231" rx="18" ry="18"/>
<text text-anchor="middle" x="658" y="-227.3" font-family="Helvetica,Arial,sans-serif" font-size="14.00">0</text>
</g>
<!-- 7&#45;&gt;0 -->
<g id="edge14" class="edge">
<title>7&#45;&gt;0</title>
<path fill="none" stroke="black" d="M782.67,-119.49C776.04,-128.39 767.02,-139.8 758,-149 744.73,-162.53 705.51,-194.19 680.6,-213.97"/>
<polygon fill="black" stroke="black" points="678.43,-211.23 672.76,-220.18 682.77,-216.72 678.43,-211.23"/>
<text text-anchor="middle" x="726" y="-204.8" font-family="Helvetica,Arial,sans-serif" font-size="14.00">0/1435</text>
</g>
<!-- 5&#45;&gt;1 -->
<g id="edge25" class="edge">
<title>5&#45;&gt;1</title>
<path fill="none" stroke="black" d="M510.98,-263.7C431.23,-252.85 96.73,-206.52 54,-187 48.71,-184.58 43.56,-181.15 38.91,-177.49"/>
<polygon fill="black" stroke="black" points="41.03,-174.69 31.16,-170.82 36.46,-180 41.03,-174.69"/>
<text text-anchor="middle" x="251.5" y="-232.8" font-family="Helvetica,Arial,sans-serif" font-size="14.00">0/879</text>
</g>
<!-- 5&#45;&gt;4 -->
<g id="edge23" class="edge">
<title>5&#45;&gt;4</title>
<path fill="none" stroke="black" d="M510.54,-265.82C480.97,-265.89 419.34,-267.69 369,-280 333.96,-288.57 326.35,-295.05 294,-311 288.02,-313.95 281.73,-317.4 275.89,-320.75"/>
<polygon fill="black" stroke="black" points="274.07,-317.76 267.22,-325.85 277.62,-323.8 274.07,-317.76"/>
<text text-anchor="middle" x="393.5" y="-283.8" font-family="Helvetica,Arial,sans-serif" font-size="14.00">0/1106</text>
</g>
<!-- 2 -->
<g id="node8" class="node">
<title>2</title>
<ellipse fill="none" stroke="black" cx="393.5" cy="-369" rx="18" ry="18"/>
<text text-anchor="middle" x="393.5" y="-365.3" font-family="Helvetica,Arial,sans-serif" font-size="14.00">2</text>
</g>
<!-- 5&#45;&gt;2 -->
<g id="edge24" class="edge">
<title>5&#45;&gt;2</title>
<path fill="none" stroke="black" d="M527.29,-283.95C525.33,-306.71 518.23,-345.25 493,-364 472.66,-379.12 442.92,-378.43 421.44,-375.15"/>
<polygon fill="black" stroke="black" points="421.81,-371.66 411.35,-373.34 420.57,-378.55 421.81,-371.66"/>
<text text-anchor="middle" x="464.5" y="-380.8" font-family="Helvetica,Arial,sans-serif" font-size="14.00">0/1054</text>
</g>
<!-- 5&#45;&gt;0 -->
<g id="edge26" class="edge">
<title>5&#45;&gt;0</title>
<path fill="none" stroke="black" d="M538.96,-250.86C545.07,-242.11 554.03,-231.89 565,-227 585.7,-217.77 611.68,-219.98 630.75,-223.8"/>
<polygon fill="black" stroke="black" points="630.03,-227.23 640.56,-226.03 631.58,-220.4 630.03,-227.23"/>
<text text-anchor="middle" x="593.5" y="-230.8" font-family="Helvetica,Arial,sans-serif" font-size="14.00">0/343</text>
</g>
<!-- 6&#45;&gt;1 -->
<g id="edge18" class="edge">
<title>6&#45;&gt;1</title>
<path fill="none" stroke="black" d="M908.95,-127.8C896.49,-89.39 860.46,0 795,0 123,0 123,0 123,0 61.31,0 34.15,-85.09 24.07,-130.38"/>
<polygon fill="black" stroke="black" points="20.64,-129.68 22.01,-140.18 27.49,-131.11 20.64,-129.68"/>
<text text-anchor="middle" x="464.5" y="-3.8" font-family="Helvetica,Arial,sans-serif" font-size="14.00">191/954</text>
</g>
<!-- 6&#45;&gt;7 -->
<g id="edge16" class="edge">
<title>6&#45;&gt;7</title>
<path fill="none" stroke="black" d="M898.07,-138.32C892.13,-135.9 885.29,-133.23 879,-131 859.81,-124.21 837.83,-117.44 821.16,-112.51"/>
<polygon fill="black" stroke="black" points="822.13,-109.14 811.55,-109.69 820.16,-115.86 822.13,-109.14"/>
<text text-anchor="middle" x="854.5" y="-134.8" font-family="Helvetica,Arial,sans-serif" font-size="14.00">0/837</text>
</g>
<!-- 6&#45;&gt;3 -->
<g id="edge17" class="edge">
<title>6&#45;&gt;3</title>
<path fill="none" stroke="black" d="M928.57,-157.28C947.01,-176.01 981.24,-213.59 1000,-252 1017.95,-288.73 1027.2,-335.48 1031.57,-364.83"/>
<polygon fill="black" stroke="black" points="1028.11,-365.39 1032.97,-374.81 1035.05,-364.42 1028.11,-365.39"/>
<text text-anchor="middle" x="975.5" y="-255.8" font-family="Helvetica,Arial,sans-serif" font-size="14.00">433/433</text>
</g>
<!-- 3&#45;&gt;9 -->
<g id="edge8" class="edge">
<title>3&#45;&gt;9</title>
<path fill="none" stroke="black" d="M1018.64,-398.22C995.87,-405.01 953.24,-416 916,-416 250.5,-416 250.5,-416 250.5,-416 202.15,-416 161.28,-370.25 140.25,-341.27"/>
<polygon fill="black" stroke="black" points="142.97,-339.06 134.37,-332.88 137.24,-343.08 142.97,-339.06"/>
<text text-anchor="middle" x="593.5" y="-419.8" font-family="Helvetica,Arial,sans-serif" font-size="14.00">433/1053</text>
</g>
<!-- 3&#45;&gt;6 -->
<g id="edge9" class="edge">
<title>3&#45;&gt;6</title>
<path fill="none" stroke="black" d="M1023.56,-379.65C1005.66,-358.14 971.02,-313.87 951,-271 935.97,-238.82 926.24,-198.91 920.94,-172.74"/>
<polygon fill="black" stroke="black" points="924.35,-171.92 919,-162.77 917.48,-173.25 924.35,-171.92"/>
<text text-anchor="middle" x="975.5" y="-351.8" font-family="Helvetica,Arial,sans-serif" font-size="14.00">0/433</text>
</g>
<!-- 4&#45;&gt;9 -->
<g id="edge10" class="edge">
<title>4&#45;&gt;9</title>
<path fill="none" stroke="black" d="M233.44,-332.69C212.51,-329.85 176.78,-325.01 152.08,-321.67"/>
<polygon fill="black" stroke="black" points="152.3,-318.17 141.93,-320.29 151.37,-325.1 152.3,-318.17"/>
<text text-anchor="middle" x="184.5" y="-332.8" font-family="Helvetica,Arial,sans-serif" font-size="14.00">0/766</text>
</g>
<!-- 4&#45;&gt;5 -->
<g id="edge11" class="edge">
<title>4&#45;&gt;5</title>
<path fill="none" stroke="black" d="M269.31,-331.85C308.78,-324.29 410.28,-303.88 493,-279 496.17,-278.05 499.46,-276.96 502.7,-275.83"/>
<polygon fill="black" stroke="black" points="503.92,-279.11 512.11,-272.39 501.52,-272.53 503.92,-279.11"/>
<text text-anchor="middle" x="393.5" y="-313.8" font-family="Helvetica,Arial,sans-serif" font-size="14.00">0/1106</text>
</g>
<!-- 4&#45;&gt;2 -->
<g id="edge12" class="edge">
<title>4&#45;&gt;2</title>
<path fill="none" stroke="black" d="M269.57,-335.83C289.49,-337.17 323.24,-340.56 351,-349 356.88,-350.79 362.97,-353.31 368.62,-355.95"/>
<polygon fill="black" stroke="black" points="367.07,-359.09 377.58,-360.43 370.2,-352.83 367.07,-359.09"/>
<text text-anchor="middle" x="322.5" y="-352.8" font-family="Helvetica,Arial,sans-serif" font-size="14.00">433/1364</text>
</g>
<!-- 2&#45;&gt;5 -->
<g id="edge28" class="edge">
<title>2&#45;&gt;5</title>
<path fill="none" stroke="black" d="M409.1,-359.58C416.88,-354.81 426.74,-349.17 436,-345 460.35,-334.04 472.27,-342.84 493,-326 503.9,-317.15 512.12,-303.94 517.85,-292.17"/>
<polygon fill="black" stroke="black" points="521.18,-293.3 522.08,-282.75 514.79,-290.44 521.18,-293.3"/>
<text text-anchor="middle" x="464.5" y="-348.8" font-family="Helvetica,Arial,sans-serif" font-size="14.00">433/1054</text>
</g>
<!-- 2&#45;&gt;4 -->
<g id="edge27" class="edge">
<title>2&#45;&gt;4</title>
<path fill="none" stroke="black" d="M375.59,-370.91C355.53,-372.56 321.37,-373.39 294,-364 286.85,-361.55 279.82,-357.47 273.64,-353.14"/>
<polygon fill="black" stroke="black" points="275.34,-350.04 265.27,-346.76 271.1,-355.61 275.34,-350.04"/>
<text text-anchor="middle" x="322.5" y="-374.8" font-family="Helvetica,Arial,sans-serif" font-size="14.00">0/1364</text>
</g>
<!-- 0&#45;&gt;7 -->
<g id="edge19" class="edge">
<title>0&#45;&gt;7</title>
<path fill="none" stroke="black" d="M660.19,-212.88C662.67,-190.2 670.34,-151.7 694,-130 704.4,-120.46 740.17,-113.11 765.72,-108.92"/>
<polygon fill="black" stroke="black" points="766.61,-112.33 775.95,-107.33 765.52,-105.41 766.61,-112.33"/>
<text text-anchor="middle" x="726" y="-133.8" font-family="Helvetica,Arial,sans-serif" font-size="14.00">1435/1435</text>
</g>
<!-- 0&#45;&gt;5 -->
<g id="edge21" class="edge">
<title>0&#45;&gt;5</title>
<path fill="none" stroke="black" d="M641.56,-238.37C635.55,-241.04 628.55,-243.91 622,-246 600.53,-252.87 575.49,-258.14 556.95,-261.54"/>
<polygon fill="black" stroke="black" points="556.11,-258.14 546.87,-263.33 557.33,-265.03 556.11,-258.14"/>
<text text-anchor="middle" x="593.5" y="-262.8" font-family="Helvetica,Arial,sans-serif" font-size="14.00">343/343</text>
</g>
<!-- 8 -->
<g id="node10" class="node">
<title>8</title>
<ellipse fill="none" stroke="black" cx="794" cy="-250" rx="18" ry="18"/>
<text text-anchor="middle" x="794" y="-246.3" font-family="Helvetica,Arial,sans-serif" font-size="14.00">8</text>
</g>
<!-- 0&#45;&gt;8 -->
<g id="edge20" class="edge">
<title>0&#45;&gt;8</title>
<path fill="none" stroke="black" d="M674.21,-239.55C680.19,-242.48 687.23,-245.42 694,-247 717.85,-252.57 745.8,-252.87 765.91,-252.04"/>
<polygon fill="black" stroke="black" points="766.12,-255.54 775.92,-251.51 765.75,-248.55 766.12,-255.54"/>
<text text-anchor="middle" x="726" y="-255.8" font-family="Helvetica,Arial,sans-serif" font-size="14.00">464/464</text>
</g>
<!-- 8&#45;&gt;0 -->
<g id="edge22" class="edge">
<title>8&#45;&gt;0</title>
<path fill="none" stroke="black" d="M779.57,-239.06C773.39,-234.72 765.72,-230.23 758,-228 734.33,-221.18 706.15,-222.93 685.92,-225.8"/>
<polygon fill="black" stroke="black" points="685.18,-222.37 675.86,-227.41 686.28,-229.28 685.18,-222.37"/>
<text text-anchor="middle" x="726" y="-231.8" font-family="Helvetica,Arial,sans-serif" font-size="14.00">0/464</text>
</g>
</g>
</svg>
