<?xml version="1.0" encoding="UTF-8" standalone="no"?>
<!DOCTYPE svg PUBLIC "-//W3C//DTD SVG 1.1//EN"
 "http://www.w3.org/Graphics/SVG/1.1/DTD/svg11.dtd">
<!-- Generated by graphviz version 2.43.0 (0)
 -->
<!-- Title: finite_state_machine Pages: 1 -->
<svg width="1085pt" height="477pt"
 viewBox="0.00 0.00 1085.00 477.00" xmlns="http://www.w3.org/2000/svg" xmlns:xlink="http://www.w3.org/1999/xlink">
<g id="graph0" class="graph" transform="scale(1 1) rotate(0) translate(4 473)">
<title>finite_state_machine</title>
<polygon fill="white" stroke="transparent" points="-4,4 -4,-473 1081,-473 1081,4 -4,4"/>
<!-- 1 -->
<g id="node1" class="node">
<title>1</title>
<ellipse fill="none" stroke="black" cx="18" cy="-158" rx="18" ry="18"/>
<text text-anchor="middle" x="18" y="-154.3" font-family="Helvetica,Arial,sans-serif" font-size="14.00">1</text>
</g>
<!-- 9 -->
<g id="node2" class="node">
<title>9</title>
<ellipse fill="none" stroke="black" cx="139" cy="-318" rx="18" ry="18"/>
<text text-anchor="middle" x="139" y="-314.3" font-family="Helvetica,Arial,sans-serif" font-size="14.00">9</text>
</g>
<!-- 1&#45;&gt;9 -->
<g id="edge1" class="edge">
<title>1&#45;&gt;9</title>
<path fill="none" stroke="black" d="M19.02,-176.12C20.02,-203.35 25.82,-254.95 54,-286 68.71,-302.21 92.51,-310.26 111.03,-314.23"/>
<polygon fill="black" stroke="black" points="110.48,-317.69 120.95,-316.08 111.76,-310.81 110.48,-317.69"/>
<text text-anchor="middle" x="78.5" y="-314.8" font-family="Helvetica,Arial,sans-serif" font-size="14.00">191/524</text>
</g>
<!-- 7 -->
<g id="node3" class="node">
<title>7</title>
<ellipse fill="none" stroke="black" cx="817" cy="-105" rx="18" ry="18"/>
<text text-anchor="middle" x="817" y="-101.3" font-family="Helvetica,Arial,sans-serif" font-size="14.00">7</text>
</g>
<!-- 1&#45;&gt;7 -->
<g id="edge2" class="edge">
<title>1&#45;&gt;7</title>
<path fill="none" stroke="black" d="M23.23,-140.74C28.12,-124.04 37.67,-98.98 54,-83 83.16,-54.47 97.21,-46 138,-46 138,-46 138,-46 682,-46 724.52,-46 768.69,-71.19 794.19,-88.65"/>
<polygon fill="black" stroke="black" points="792.22,-91.54 802.4,-94.45 796.25,-85.82 792.22,-91.54"/>
<text text-anchor="middle" x="412.5" y="-49.8" font-family="Helvetica,Arial,sans-serif" font-size="14.00">0/811</text>
</g>
<!-- 5 -->
<g id="node4" class="node">
<title>5</title>
<ellipse fill="none" stroke="black" cx="552" cy="-266" rx="18" ry="18"/>
<text text-anchor="middle" x="552" y="-262.3" font-family="Helvetica,Arial,sans-serif" font-size="14.00">5</text>
</g>
<!-- 1&#45;&gt;5 -->
<g id="edge3" class="edge">
<title>1&#45;&gt;5</title>
<path fill="none" stroke="black" d="M35.36,-163.22C58.13,-170.01 100.76,-181 138,-181 138,-181 138,-181 413.5,-181 460.29,-181 478.47,-177.06 516,-205 527.59,-213.63 535.95,-227.32 541.58,-239.54"/>
<polygon fill="black" stroke="black" points="538.42,-241.05 545.52,-248.91 544.87,-238.34 538.42,-241.05"/>
<text text-anchor="middle" x="266.5" y="-184.8" font-family="Helvetica,Arial,sans-serif" font-size="14.00">811/879</text>
</g>
<!-- 6 -->
<g id="node5" class="node">
<title>6</title>
<ellipse fill="none" stroke="black" cx="938" cy="-145" rx="18" ry="18"/>
<text text-anchor="middle" x="938" y="-141.3" font-family="Helvetica,Arial,sans-serif" font-size="14.00">6</text>
</g>
<!-- 1&#45;&gt;6 -->
<g id="edge4" class="edge">
<title>1&#45;&gt;6</title>
<path fill="none" stroke="black" d="M36.13,-157.86C126.08,-157.12 552.91,-153.36 902,-146 904.55,-145.95 907.21,-145.88 909.87,-145.82"/>
<polygon fill="black" stroke="black" points="910.01,-149.31 919.91,-145.54 909.82,-142.32 910.01,-149.31"/>
<text text-anchor="middle" x="487.5" y="-156.8" font-family="Helvetica,Arial,sans-serif" font-size="14.00">0/954</text>
</g>
<!-- 9&#45;&gt;1 -->
<g id="edge5" class="edge">
<title>9&#45;&gt;1</title>
<path fill="none" stroke="black" d="M130.06,-302.01C123.93,-290.98 114.54,-276.64 103,-267 84.68,-251.7 70.54,-262.21 54,-245 38.29,-228.66 29.32,-204.36 24.4,-185.59"/>
<polygon fill="black" stroke="black" points="27.79,-184.74 22.07,-175.82 20.98,-186.36 27.79,-184.74"/>
<text text-anchor="middle" x="78.5" y="-270.8" font-family="Helvetica,Arial,sans-serif" font-size="14.00">0/524</text>
</g>
<!-- 3 -->
<g id="node6" class="node">
<title>3</title>
<ellipse fill="none" stroke="black" cx="1059" cy="-393" rx="18" ry="18"/>
<text text-anchor="middle" x="1059" y="-389.3" font-family="Helvetica,Arial,sans-serif" font-size="14.00">3</text>
</g>
<!-- 9&#45;&gt;3 -->
<g id="edge6" class="edge">
<title>9&#45;&gt;3</title>
<path fill="none" stroke="black" d="M140.5,-336.29C142.19,-361.07 148.95,-405.07 175,-430 205.06,-458.78 223.89,-454 265.5,-454 265.5,-454 265.5,-454 939,-454 977.83,-454 989.81,-450.15 1023,-430 1029.65,-425.96 1035.87,-420.33 1041.16,-414.67"/>
<polygon fill="black" stroke="black" points="1043.83,-416.93 1047.76,-407.09 1038.55,-412.34 1043.83,-416.93"/>
<text text-anchor="middle" x="616.5" y="-457.8" font-family="Helvetica,Arial,sans-serif" font-size="14.00">0/1053</text>
</g>
<!-- 4 -->
<g id="node7" class="node">
<title>4</title>
<ellipse fill="none" stroke="black" cx="266.5" cy="-335" rx="18" ry="18"/>
<text text-anchor="middle" x="266.5" y="-331.3" font-family="Helvetica,Arial,sans-serif" font-size="14.00">4</text>
</g>
<!-- 9&#45;&gt;4 -->
<g id="edge7" class="edge">
<title>9&#45;&gt;4</title>
<path fill="none" stroke="black" d="M155.69,-310.82C161.61,-308.47 168.49,-306.17 175,-305 196.43,-301.15 203.28,-298.3 224,-305 231.44,-307.41 238.67,-311.71 244.96,-316.31"/>
<polygon fill="black" stroke="black" points="242.87,-319.12 252.87,-322.63 247.24,-313.65 242.87,-319.12"/>
<text text-anchor="middle" x="199.5" y="-308.8" font-family="Helvetica,Arial,sans-serif" font-size="14.00">624/766</text>
</g>
<!-- 7&#45;&gt;1 -->
<g id="edge15" class="edge">
<title>7&#45;&gt;1</title>
<path fill="none" stroke="black" d="M798.67,-103.3C773.16,-100.96 723.95,-97 682,-97 138,-97 138,-97 138,-97 99.17,-97 87.19,-100.85 54,-121 47.35,-125.04 41.13,-130.67 35.84,-136.33"/>
<polygon fill="black" stroke="black" points="33.17,-134.07 29.24,-143.91 38.45,-138.66 33.17,-134.07"/>
<text text-anchor="middle" x="412.5" y="-100.8" font-family="Helvetica,Arial,sans-serif" font-size="14.00">811/811</text>
</g>
<!-- 7&#45;&gt;6 -->
<g id="edge13" class="edge">
<title>7&#45;&gt;6</title>
<path fill="none" stroke="black" d="M833.52,-97.47C851.15,-90.07 880.28,-81.44 902,-93 912.66,-98.68 920.66,-109.21 926.3,-119.32"/>
<polygon fill="black" stroke="black" points="923.21,-120.96 930.82,-128.33 929.46,-117.82 923.21,-120.96"/>
<text text-anchor="middle" x="877.5" y="-96.8" font-family="Helvetica,Arial,sans-serif" font-size="14.00">624/837</text>
</g>
<!-- 0 -->
<g id="node9" class="node">
<title>0</title>
<ellipse fill="none" stroke="black" cx="681" cy="-231" rx="18" ry="18"/>
<text text-anchor="middle" x="681" y="-227.3" font-family="Helvetica,Arial,sans-serif" font-size="14.00">0</text>
</g>
<!-- 7&#45;&gt;0 -->
<g id="edge14" class="edge">
<title>7&#45;&gt;0</title>
<path fill="none" stroke="black" d="M805.67,-119.49C799.04,-128.39 790.02,-139.8 781,-149 767.73,-162.53 728.51,-194.19 703.6,-213.97"/>
<polygon fill="black" stroke="black" points="701.43,-211.23 695.76,-220.18 705.77,-216.72 701.43,-211.23"/>
<text text-anchor="middle" x="749" y="-204.8" font-family="Helvetica,Arial,sans-serif" font-size="14.00">0/1435</text>
</g>
<!-- 5&#45;&gt;1 -->
<g id="edge25" class="edge">
<title>5&#45;&gt;1</title>
<path fill="none" stroke="black" d="M533.9,-263.54C449.07,-251.31 76.56,-197.21 54,-187 48.7,-184.6 43.55,-181.18 38.9,-177.52"/>
<polygon fill="black" stroke="black" points="41.01,-174.72 31.15,-170.85 36.45,-180.03 41.01,-174.72"/>
<text text-anchor="middle" x="266.5" y="-230.8" font-family="Helvetica,Arial,sans-serif" font-size="14.00">0/879</text>
</g>
<!-- 5&#45;&gt;4 -->
<g id="edge23" class="edge">
<title>5&#45;&gt;4</title>
<path fill="none" stroke="black" d="M533.64,-265.65C502.96,-265.43 437.37,-266.74 384,-280 348.83,-288.74 341.56,-296.08 309,-312 303.22,-314.83 297.1,-318.07 291.38,-321.22"/>
<polygon fill="black" stroke="black" points="289.3,-318.37 282.29,-326.32 292.72,-324.48 289.3,-318.37"/>
<text text-anchor="middle" x="412.5" y="-283.8" font-family="Helvetica,Arial,sans-serif" font-size="14.00">0/1106</text>
</g>
<!-- 2 -->
<g id="node8" class="node">
<title>2</title>
<ellipse fill="none" stroke="black" cx="412.5" cy="-369" rx="18" ry="18"/>
<text text-anchor="middle" x="412.5" y="-365.3" font-family="Helvetica,Arial,sans-serif" font-size="14.00">2</text>
</g>
<!-- 5&#45;&gt;2 -->
<g id="edge24" class="edge">
<title>5&#45;&gt;2</title>
<path fill="none" stroke="black" d="M550.3,-283.96C548.34,-306.73 541.25,-345.27 516,-364 494.38,-380.04 462.58,-378.89 440.15,-375.25"/>
<polygon fill="black" stroke="black" points="440.74,-371.8 430.27,-373.39 439.45,-378.68 440.74,-371.8"/>
<text text-anchor="middle" x="487.5" y="-380.8" font-family="Helvetica,Arial,sans-serif" font-size="14.00">0/1054</text>
</g>
<!-- 5&#45;&gt;0 -->
<g id="edge26" class="edge">
<title>5&#45;&gt;0</title>
<path fill="none" stroke="black" d="M561.96,-250.86C568.07,-242.11 577.03,-231.89 588,-227 608.7,-217.77 634.68,-219.98 653.75,-223.8"/>
<polygon fill="black" stroke="black" points="653.03,-227.23 663.56,-226.03 654.58,-220.4 653.03,-227.23"/>
<text text-anchor="middle" x="616.5" y="-230.8" font-family="Helvetica,Arial,sans-serif" font-size="14.00">0/343</text>
</g>
<!-- 6&#45;&gt;1 -->
<g id="edge18" class="edge">
<title>6&#45;&gt;1</title>
<path fill="none" stroke="black" d="M931.95,-127.8C919.49,-89.39 883.46,0 818,0 138,0 138,0 138,0 95.44,0 80.97,-13.07 54,-46 34.21,-70.16 25.57,-105.55 21.82,-130.06"/>
<polygon fill="black" stroke="black" points="18.33,-129.77 20.46,-140.15 25.27,-130.71 18.33,-129.77"/>
<text text-anchor="middle" x="487.5" y="-3.8" font-family="Helvetica,Arial,sans-serif" font-size="14.00">191/954</text>
</g>
<!-- 6&#45;&gt;7 -->
<g id="edge16" class="edge">
<title>6&#45;&gt;7</title>
<path fill="none" stroke="black" d="M921.07,-138.32C915.13,-135.9 908.29,-133.23 902,-131 882.81,-124.21 860.83,-117.44 844.16,-112.51"/>
<polygon fill="black" stroke="black" points="845.13,-109.14 834.55,-109.69 843.16,-115.86 845.13,-109.14"/>
<text text-anchor="middle" x="877.5" y="-134.8" font-family="Helvetica,Arial,sans-serif" font-size="14.00">0/837</text>
</g>
<!-- 6&#45;&gt;3 -->
<g id="edge17" class="edge">
<title>6&#45;&gt;3</title>
<path fill="none" stroke="black" d="M951.57,-157.28C970.01,-176.01 1004.24,-213.59 1023,-252 1040.95,-288.73 1050.2,-335.48 1054.57,-364.83"/>
<polygon fill="black" stroke="black" points="1051.11,-365.39 1055.97,-374.81 1058.05,-364.42 1051.11,-365.39"/>
<text text-anchor="middle" x="998.5" y="-255.8" font-family="Helvetica,Arial,sans-serif" font-size="14.00">433/433</text>
</g>
<!-- 3&#45;&gt;9 -->
<g id="edge8" class="edge">
<title>3&#45;&gt;9</title>
<path fill="none" stroke="black" d="M1041.64,-398.22C1018.87,-405.01 976.24,-416 939,-416 265.5,-416 265.5,-416 265.5,-416 217.15,-416 176.28,-370.25 155.25,-341.27"/>
<polygon fill="black" stroke="black" points="157.97,-339.06 149.37,-332.88 152.24,-343.08 157.97,-339.06"/>
<text text-anchor="middle" x="616.5" y="-419.8" font-family="Helvetica,Arial,sans-serif" font-size="14.00">433/1053</text>
</g>
<!-- 3&#45;&gt;6 -->
<g id="edge9" class="edge">
<title>3&#45;&gt;6</title>
<path fill="none" stroke="black" d="M1046.56,-379.65C1028.66,-358.14 994.02,-313.87 974,-271 958.97,-238.82 949.24,-198.91 943.94,-172.74"/>
<polygon fill="black" stroke="black" points="947.35,-171.92 942,-162.77 940.48,-173.25 947.35,-171.92"/>
<text text-anchor="middle" x="998.5" y="-351.8" font-family="Helvetica,Arial,sans-serif" font-size="14.00">0/433</text>
</g>
<!-- 4&#45;&gt;9 -->
<g id="edge10" class="edge">
<title>4&#45;&gt;9</title>
<path fill="none" stroke="black" d="M248.44,-332.69C227.51,-329.85 191.78,-325.01 167.08,-321.67"/>
<polygon fill="black" stroke="black" points="167.3,-318.17 156.93,-320.29 166.37,-325.1 167.3,-318.17"/>
<text text-anchor="middle" x="199.5" y="-332.8" font-family="Helvetica,Arial,sans-serif" font-size="14.00">0/766</text>
</g>
<!-- 4&#45;&gt;5 -->
<g id="edge11" class="edge">
<title>4&#45;&gt;5</title>
<path fill="none" stroke="black" d="M284.27,-332.02C324.63,-324.69 430.15,-304.49 516,-279 519.17,-278.06 522.46,-276.98 525.71,-275.85"/>
<polygon fill="black" stroke="black" points="526.93,-279.13 535.12,-272.41 524.53,-272.55 526.93,-279.13"/>
<text text-anchor="middle" x="412.5" y="-314.8" font-family="Helvetica,Arial,sans-serif" font-size="14.00">191/1106</text>
</g>
<!-- 4&#45;&gt;2 -->
<g id="edge12" class="edge">
<title>4&#45;&gt;2</title>
<path fill="none" stroke="black" d="M284.52,-336.01C304.39,-337.5 338.09,-341.05 366,-349 373.02,-351 380.38,-353.87 387.08,-356.81"/>
<polygon fill="black" stroke="black" points="385.76,-360.05 396.31,-361.07 388.7,-353.7 385.76,-360.05"/>
<text text-anchor="middle" x="337.5" y="-352.8" font-family="Helvetica,Arial,sans-serif" font-size="14.00">433/1364</text>
</g>
<!-- 2&#45;&gt;5 -->
<g id="edge28" class="edge">
<title>2&#45;&gt;5</title>
<path fill="none" stroke="black" d="M428.37,-360.37C437.11,-355.49 448.49,-349.49 459,-345 483.56,-334.51 495.27,-342.84 516,-326 526.9,-317.15 535.12,-303.94 540.85,-292.17"/>
<polygon fill="black" stroke="black" points="544.18,-293.3 545.08,-282.75 537.79,-290.44 544.18,-293.3"/>
<text text-anchor="middle" x="487.5" y="-348.8" font-family="Helvetica,Arial,sans-serif" font-size="14.00">433/1054</text>
</g>
<!-- 2&#45;&gt;4 -->
<g id="edge27" class="edge">
<title>2&#45;&gt;4</title>
<path fill="none" stroke="black" d="M394.27,-371C373.46,-372.79 337.66,-373.8 309,-364 301.85,-361.56 294.82,-357.48 288.63,-353.15"/>
<polygon fill="black" stroke="black" points="290.34,-350.05 280.27,-346.77 286.1,-355.62 290.34,-350.05"/>
<text text-anchor="middle" x="337.5" y="-375.8" font-family="Helvetica,Arial,sans-serif" font-size="14.00">0/1364</text>
</g>
<!-- 0&#45;&gt;7 -->
<g id="edge19" class="edge">
<title>0&#45;&gt;7</title>
<path fill="none" stroke="black" d="M683.19,-212.88C685.67,-190.2 693.34,-151.7 717,-130 727.4,-120.46 763.17,-113.11 788.72,-108.92"/>
<polygon fill="black" stroke="black" points="789.61,-112.33 798.95,-107.33 788.52,-105.41 789.61,-112.33"/>
<text text-anchor="middle" x="749" y="-133.8" font-family="Helvetica,Arial,sans-serif" font-size="14.00">1435/1435</text>
</g>
<!-- 0&#45;&gt;5 -->
<g id="edge21" class="edge">
<title>0&#45;&gt;5</title>
<path fill="none" stroke="black" d="M664.56,-238.37C658.55,-241.04 651.55,-243.91 645,-246 623.53,-252.87 598.49,-258.14 579.95,-261.54"/>
<polygon fill="black" stroke="black" points="579.11,-258.14 569.87,-263.33 580.33,-265.03 579.11,-258.14"/>
<text text-anchor="middle" x="616.5" y="-262.8" font-family="Helvetica,Arial,sans-serif" font-size="14.00">343/343</text>
</g>
<!-- 8 -->
<g id="node10" class="node">
<title>8</title>
<ellipse fill="none" stroke="black" cx="817" cy="-250" rx="18" ry="18"/>
<text text-anchor="middle" x="817" y="-246.3" font-family="Helvetica,Arial,sans-serif" font-size="14.00">8</text>
</g>
<!-- 0&#45;&gt;8 -->
<g id="edge20" class="edge">
<title>0&#45;&gt;8</title>
<path fill="none" stroke="black" d="M697.21,-239.55C703.19,-242.48 710.23,-245.42 717,-247 740.85,-252.57 768.8,-252.87 788.91,-252.04"/>
<polygon fill="black" stroke="black" points="789.12,-255.54 798.92,-251.51 788.75,-248.55 789.12,-255.54"/>
<text text-anchor="middle" x="749" y="-255.8" font-family="Helvetica,Arial,sans-serif" font-size="14.00">0/464</text>
</g>
<!-- 8&#45;&gt;0 -->
<g id="edge22" class="edge">
<title>8&#45;&gt;0</title>
<path fill="none" stroke="black" d="M802.57,-239.06C796.39,-234.72 788.72,-230.23 781,-228 757.33,-221.18 729.15,-222.93 708.92,-225.8"/>
<polygon fill="black" stroke="black" points="708.18,-222.37 698.86,-227.41 709.28,-229.28 708.18,-222.37"/>
<text text-anchor="middle" x="749" y="-231.8" font-family="Helvetica,Arial,sans-serif" font-size="14.00">0/464</text>
</g>
</g>
</svg>
