<?xml version="1.0" encoding="UTF-8" standalone="no"?>
<!DOCTYPE svg PUBLIC "-//W3C//DTD SVG 1.1//EN"
 "http://www.w3.org/Graphics/SVG/1.1/DTD/svg11.dtd">
<!-- Generated by graphviz version 2.43.0 (0)
 -->
<!-- Title: finite_state_machine Pages: 1 -->
<svg width="836pt" height="451pt"
 viewBox="0.00 0.00 836.00 451.10" xmlns="http://www.w3.org/2000/svg" xmlns:xlink="http://www.w3.org/1999/xlink">
<g id="graph0" class="graph" transform="scale(1 1) rotate(0) translate(4 447.1)">
<title>finite_state_machine</title>
<polygon fill="white" stroke="transparent" points="-4,4 -4,-447.1 832,-447.1 832,4 -4,4"/>
<!-- 8 -->
<g id="node1" class="node">
<title>8</title>
<ellipse fill="none" stroke="black" cx="18" cy="-144.1" rx="18" ry="18"/>
<text text-anchor="middle" x="18" y="-140.4" font-family="Helvetica,Arial,sans-serif" font-size="14.00">8</text>
</g>
<!-- 0 -->
<g id="node2" class="node">
<title>0</title>
<ellipse fill="none" stroke="black" cx="113" cy="-144.1" rx="18" ry="18"/>
<text text-anchor="middle" x="113" y="-140.4" font-family="Helvetica,Arial,sans-serif" font-size="14.00">0</text>
</g>
<!-- 8&#45;&gt;0 -->
<g id="edge1" class="edge">
<title>8&#45;&gt;0</title>
<path fill="none" stroke="black" d="M36.06,-144.1C49.61,-144.1 68.82,-144.1 84.53,-144.1"/>
<polygon fill="black" stroke="black" points="84.74,-147.6 94.74,-144.1 84.74,-140.6 84.74,-147.6"/>
<text text-anchor="middle" x="65.5" y="-147.9" font-family="Helvetica,Arial,sans-serif" font-size="14.00">464</text>
</g>
<!-- 0&#45;&gt;8 -->
<g id="edge3" class="edge">
<title>0&#45;&gt;8</title>
<path fill="none" stroke="black" d="M97.69,-134.24C91.6,-130.61 84.24,-126.94 77,-125.1 67.09,-122.59 63.91,-122.59 54,-125.1 50.04,-126.11 46.05,-127.66 42.24,-129.45"/>
<polygon fill="black" stroke="black" points="40.48,-126.43 33.31,-134.24 43.78,-132.6 40.48,-126.43"/>
<text text-anchor="middle" x="65.5" y="-128.9" font-family="Helvetica,Arial,sans-serif" font-size="14.00">464</text>
</g>
<!-- 5 -->
<g id="node3" class="node">
<title>5</title>
<ellipse fill="none" stroke="black" cx="406" cy="-94.1" rx="18" ry="18"/>
<text text-anchor="middle" x="406" y="-90.4" font-family="Helvetica,Arial,sans-serif" font-size="14.00">5</text>
</g>
<!-- 0&#45;&gt;5 -->
<g id="edge2" class="edge">
<title>0&#45;&gt;5</title>
<path fill="none" stroke="black" d="M123.15,-128.68C129.33,-119.59 138.3,-108.63 149,-102.1 189.04,-77.67 205.38,-84.24 252,-79.1 296.14,-74.23 347.53,-82.03 378.11,-88.08"/>
<polygon fill="black" stroke="black" points="377.5,-91.53 388.01,-90.13 378.92,-84.68 377.5,-91.53"/>
<text text-anchor="middle" x="263.5" y="-82.9" font-family="Helvetica,Arial,sans-serif" font-size="14.00">343</text>
</g>
<!-- 7 -->
<g id="node4" class="node">
<title>7</title>
<ellipse fill="none" stroke="black" cx="216" cy="-236.1" rx="18" ry="18"/>
<text text-anchor="middle" x="216" y="-232.4" font-family="Helvetica,Arial,sans-serif" font-size="14.00">7</text>
</g>
<!-- 0&#45;&gt;7 -->
<g id="edge4" class="edge">
<title>0&#45;&gt;7</title>
<path fill="none" stroke="black" d="M129.61,-151.76C143.8,-159.22 164.79,-171.55 180,-186.1 187.84,-193.6 195.01,-203.11 200.79,-211.81"/>
<polygon fill="black" stroke="black" points="197.97,-213.9 206.28,-220.47 203.88,-210.15 197.97,-213.9"/>
<text text-anchor="middle" x="164.5" y="-189.9" font-family="Helvetica,Arial,sans-serif" font-size="14.00">1435</text>
</g>
<!-- 5&#45;&gt;0 -->
<g id="edge16" class="edge">
<title>5&#45;&gt;0</title>
<path fill="none" stroke="black" d="M388.05,-97.01C339.57,-105.34 200.06,-129.32 140.96,-139.47"/>
<polygon fill="black" stroke="black" points="140.17,-136.05 130.9,-141.2 141.35,-142.95 140.17,-136.05"/>
<text text-anchor="middle" x="263.5" y="-124.9" font-family="Helvetica,Arial,sans-serif" font-size="14.00">343</text>
</g>
<!-- 2 -->
<g id="node5" class="node">
<title>2</title>
<ellipse fill="none" stroke="black" cx="612" cy="-57.1" rx="18" ry="18"/>
<text text-anchor="middle" x="612" y="-53.4" font-family="Helvetica,Arial,sans-serif" font-size="14.00">2</text>
</g>
<!-- 5&#45;&gt;2 -->
<g id="edge15" class="edge">
<title>5&#45;&gt;2</title>
<path fill="none" stroke="black" d="M421.96,-85.73C428.03,-82.63 435.2,-79.34 442,-77.1 486.23,-62.58 498.68,-62.69 545,-58.1 557.66,-56.85 571.75,-56.49 583.65,-56.49"/>
<polygon fill="black" stroke="black" points="583.83,-59.99 593.86,-56.58 583.89,-52.99 583.83,-59.99"/>
<text text-anchor="middle" x="509" y="-67.9" font-family="Helvetica,Arial,sans-serif" font-size="14.00">1054</text>
</g>
<!-- 4 -->
<g id="node6" class="node">
<title>4</title>
<ellipse fill="none" stroke="black" cx="509" cy="-121.1" rx="18" ry="18"/>
<text text-anchor="middle" x="509" y="-117.4" font-family="Helvetica,Arial,sans-serif" font-size="14.00">4</text>
</g>
<!-- 5&#45;&gt;4 -->
<g id="edge17" class="edge">
<title>5&#45;&gt;4</title>
<path fill="none" stroke="black" d="M423.68,-98.56C439.39,-102.76 463.2,-109.13 481.51,-114.02"/>
<polygon fill="black" stroke="black" points="480.73,-117.43 491.3,-116.64 482.54,-110.67 480.73,-117.43"/>
<text text-anchor="middle" x="457.5" y="-115.9" font-family="Helvetica,Arial,sans-serif" font-size="14.00">1106</text>
</g>
<!-- 1 -->
<g id="node10" class="node">
<title>1</title>
<ellipse fill="none" stroke="black" cx="311" cy="-236.1" rx="18" ry="18"/>
<text text-anchor="middle" x="311" y="-232.4" font-family="Helvetica,Arial,sans-serif" font-size="14.00">1</text>
</g>
<!-- 5&#45;&gt;1 -->
<g id="edge18" class="edge">
<title>5&#45;&gt;1</title>
<path fill="none" stroke="black" d="M392.33,-106.08C375.8,-121.75 348.74,-147.54 347,-150.1 334.69,-168.29 325.57,-191.48 319.73,-209.2"/>
<polygon fill="black" stroke="black" points="316.34,-208.33 316.67,-218.92 323.01,-210.43 316.34,-208.33"/>
<text text-anchor="middle" x="358.5" y="-153.9" font-family="Helvetica,Arial,sans-serif" font-size="14.00">879</text>
</g>
<!-- 7&#45;&gt;0 -->
<g id="edge19" class="edge">
<title>7&#45;&gt;0</title>
<path fill="none" stroke="black" d="M198.85,-230.37C184.49,-224.66 163.56,-214.77 149,-201.1 139.51,-192.19 131.61,-180.14 125.74,-169.42"/>
<polygon fill="black" stroke="black" points="128.81,-167.74 121.11,-160.46 122.59,-170.95 128.81,-167.74"/>
<text text-anchor="middle" x="164.5" y="-224.9" font-family="Helvetica,Arial,sans-serif" font-size="14.00">1435</text>
</g>
<!-- 6 -->
<g id="node9" class="node">
<title>6</title>
<ellipse fill="none" stroke="black" cx="810" cy="-312.1" rx="18" ry="18"/>
<text text-anchor="middle" x="810" y="-308.4" font-family="Helvetica,Arial,sans-serif" font-size="14.00">6</text>
</g>
<!-- 7&#45;&gt;6 -->
<g id="edge20" class="edge">
<title>7&#45;&gt;6</title>
<path fill="none" stroke="black" d="M217.47,-254.16C219.78,-301.96 233.15,-428.1 310,-428.1 310,-428.1 310,-428.1 716,-428.1 761.38,-428.1 788.29,-373.39 800.7,-339.12"/>
<polygon fill="black" stroke="black" points="804.16,-339.81 804.09,-329.22 797.54,-337.54 804.16,-339.81"/>
<text text-anchor="middle" x="509" y="-431.9" font-family="Helvetica,Arial,sans-serif" font-size="14.00">837</text>
</g>
<!-- 7&#45;&gt;1 -->
<g id="edge21" class="edge">
<title>7&#45;&gt;1</title>
<path fill="none" stroke="black" d="M234.06,-236.1C247.61,-236.1 266.82,-236.1 282.53,-236.1"/>
<polygon fill="black" stroke="black" points="282.74,-239.6 292.74,-236.1 282.74,-232.6 282.74,-239.6"/>
<text text-anchor="middle" x="263.5" y="-239.9" font-family="Helvetica,Arial,sans-serif" font-size="14.00">811</text>
</g>
<!-- 2&#45;&gt;5 -->
<g id="edge5" class="edge">
<title>2&#45;&gt;5</title>
<path fill="none" stroke="black" d="M598.75,-44.68C592.34,-38.6 584.14,-31.45 576,-26.1 543.3,-4.59 529.2,5.42 491,-3.1 467.52,-8.34 459.32,-9.4 442,-26.1 430.16,-37.52 421.58,-53.82 415.88,-67.6"/>
<polygon fill="black" stroke="black" points="412.55,-66.49 412.23,-77.08 419.09,-69 412.55,-66.49"/>
<text text-anchor="middle" x="509" y="-6.9" font-family="Helvetica,Arial,sans-serif" font-size="14.00">1054</text>
</g>
<!-- 2&#45;&gt;4 -->
<g id="edge6" class="edge">
<title>2&#45;&gt;4</title>
<path fill="none" stroke="black" d="M594,-58.34C579.86,-60.07 559.73,-64.21 545,-74.1 536.44,-79.85 529.17,-88.41 523.52,-96.66"/>
<polygon fill="black" stroke="black" points="520.41,-95.02 518.02,-105.34 526.33,-98.76 520.41,-95.02"/>
<text text-anchor="middle" x="560.5" y="-77.9" font-family="Helvetica,Arial,sans-serif" font-size="14.00">1364</text>
</g>
<!-- 4&#45;&gt;5 -->
<g id="edge8" class="edge">
<title>4&#45;&gt;5</title>
<path fill="none" stroke="black" d="M498.58,-106.34C492.42,-98.12 483.56,-88.65 473,-84.1 460.36,-78.66 445.25,-80.42 432.67,-83.87"/>
<polygon fill="black" stroke="black" points="431.26,-80.64 422.82,-87.04 433.41,-87.31 431.26,-80.64"/>
<text text-anchor="middle" x="457.5" y="-87.9" font-family="Helvetica,Arial,sans-serif" font-size="14.00">1106</text>
</g>
<!-- 4&#45;&gt;2 -->
<g id="edge7" class="edge">
<title>4&#45;&gt;2</title>
<path fill="none" stroke="black" d="M526.17,-114.82C539.98,-109.09 560.09,-99.9 576,-89.1 581.24,-85.55 586.49,-81.24 591.27,-76.96"/>
<polygon fill="black" stroke="black" points="593.89,-79.3 598.78,-69.9 589.1,-74.19 593.89,-79.3"/>
<text text-anchor="middle" x="560.5" y="-109.9" font-family="Helvetica,Arial,sans-serif" font-size="14.00">1364</text>
</g>
<!-- 9 -->
<g id="node7" class="node">
<title>9</title>
<ellipse fill="none" stroke="black" cx="612" cy="-215.1" rx="18" ry="18"/>
<text text-anchor="middle" x="612" y="-211.4" font-family="Helvetica,Arial,sans-serif" font-size="14.00">9</text>
</g>
<!-- 4&#45;&gt;9 -->
<g id="edge9" class="edge">
<title>4&#45;&gt;9</title>
<path fill="none" stroke="black" d="M526.62,-125.1C541.1,-129.29 561.93,-137.11 576,-150.1 587.41,-160.63 595.86,-175.75 601.59,-188.75"/>
<polygon fill="black" stroke="black" points="598.42,-190.25 605.45,-198.18 604.9,-187.6 598.42,-190.25"/>
<text text-anchor="middle" x="560.5" y="-153.9" font-family="Helvetica,Arial,sans-serif" font-size="14.00">766</text>
</g>
<!-- 9&#45;&gt;4 -->
<g id="edge26" class="edge">
<title>9&#45;&gt;4</title>
<path fill="none" stroke="black" d="M597.42,-204.53C590.95,-199.52 583.1,-193.47 576,-188.1 562.32,-177.75 557.33,-177.03 545,-165.1 538.34,-158.66 531.81,-150.95 526.23,-143.8"/>
<polygon fill="black" stroke="black" points="528.98,-141.64 520.16,-135.77 523.4,-145.86 528.98,-141.64"/>
<text text-anchor="middle" x="560.5" y="-191.9" font-family="Helvetica,Arial,sans-serif" font-size="14.00">766</text>
</g>
<!-- 3 -->
<g id="node8" class="node">
<title>3</title>
<ellipse fill="none" stroke="black" cx="715" cy="-236.1" rx="18" ry="18"/>
<text text-anchor="middle" x="715" y="-232.4" font-family="Helvetica,Arial,sans-serif" font-size="14.00">3</text>
</g>
<!-- 9&#45;&gt;3 -->
<g id="edge27" class="edge">
<title>9&#45;&gt;3</title>
<path fill="none" stroke="black" d="M629.19,-209.55C642.83,-205.77 662.69,-202.38 679,-208.1 684.42,-210 689.62,-213.13 694.27,-216.62"/>
<polygon fill="black" stroke="black" points="692.1,-219.36 702.01,-223.11 696.6,-214 692.1,-219.36"/>
<text text-anchor="middle" x="663.5" y="-211.9" font-family="Helvetica,Arial,sans-serif" font-size="14.00">1053</text>
</g>
<!-- 9&#45;&gt;1 -->
<g id="edge28" class="edge">
<title>9&#45;&gt;1</title>
<path fill="none" stroke="black" d="M595.26,-222.06C589.34,-224.38 582.47,-226.73 576,-228.1 486.26,-247.16 461.69,-238.21 370,-241.1 359.78,-241.42 357.2,-241.83 347,-241.1 344.43,-240.92 341.76,-240.66 339.09,-240.36"/>
<polygon fill="black" stroke="black" points="339.41,-236.87 329.04,-239.03 338.49,-243.81 339.41,-236.87"/>
<text text-anchor="middle" x="457.5" y="-243.9" font-family="Helvetica,Arial,sans-serif" font-size="14.00">524</text>
</g>
<!-- 3&#45;&gt;9 -->
<g id="edge11" class="edge">
<title>3&#45;&gt;9</title>
<path fill="none" stroke="black" d="M697.01,-234.7C683.58,-233.38 664.43,-231 648,-227.1 644.97,-226.38 641.84,-225.51 638.74,-224.56"/>
<polygon fill="black" stroke="black" points="639.78,-221.22 629.19,-221.39 637.58,-227.86 639.78,-221.22"/>
<text text-anchor="middle" x="663.5" y="-235.9" font-family="Helvetica,Arial,sans-serif" font-size="14.00">1053</text>
</g>
<!-- 3&#45;&gt;6 -->
<g id="edge10" class="edge">
<title>3&#45;&gt;6</title>
<path fill="none" stroke="black" d="M731.31,-227.87C743.79,-222.39 761.37,-217.6 774,-226.1 793.05,-238.91 801.73,-264.08 805.69,-283.9"/>
<polygon fill="black" stroke="black" points="802.28,-284.69 807.4,-293.96 809.18,-283.51 802.28,-284.69"/>
<text text-anchor="middle" x="762.5" y="-229.9" font-family="Helvetica,Arial,sans-serif" font-size="14.00">433</text>
</g>
<!-- 6&#45;&gt;7 -->
<g id="edge12" class="edge">
<title>6&#45;&gt;7</title>
<path fill="none" stroke="black" d="M798.39,-326.21C782.68,-345.32 751.26,-377.1 716,-377.1 310,-377.1 310,-377.1 310,-377.1 256.18,-377.1 231.73,-304.64 222.2,-263.61"/>
<polygon fill="black" stroke="black" points="225.59,-262.7 220.04,-253.67 218.75,-264.19 225.59,-262.7"/>
<text text-anchor="middle" x="509" y="-380.9" font-family="Helvetica,Arial,sans-serif" font-size="14.00">837</text>
</g>
<!-- 6&#45;&gt;3 -->
<g id="edge13" class="edge">
<title>6&#45;&gt;3</title>
<path fill="none" stroke="black" d="M800.51,-296.72C794.25,-286.45 784.93,-273.22 774,-264.1 764.47,-256.15 752.3,-249.83 741.57,-245.22"/>
<polygon fill="black" stroke="black" points="742.82,-241.95 732.23,-241.47 740.21,-248.45 742.82,-241.95"/>
<text text-anchor="middle" x="762.5" y="-267.9" font-family="Helvetica,Arial,sans-serif" font-size="14.00">433</text>
</g>
<!-- 6&#45;&gt;1 -->
<g id="edge14" class="edge">
<title>6&#45;&gt;1</title>
<path fill="none" stroke="black" d="M792.74,-317.5C774.34,-323.11 743.36,-331.1 716,-331.1 405,-331.1 405,-331.1 405,-331.1 377.1,-331.1 367.36,-326.17 347,-307.1 334.29,-295.2 325.58,-277.67 320.03,-263.02"/>
<polygon fill="black" stroke="black" points="323.29,-261.72 316.69,-253.43 316.68,-264.03 323.29,-261.72"/>
<text text-anchor="middle" x="560.5" y="-334.9" font-family="Helvetica,Arial,sans-serif" font-size="14.00">954</text>
</g>
<!-- 1&#45;&gt;5 -->
<g id="edge23" class="edge">
<title>1&#45;&gt;5</title>
<path fill="none" stroke="black" d="M321.85,-221.37C328.57,-211.64 337.88,-198.76 347,-188.1 356.4,-177.12 361.58,-176.85 370,-165.1 379.92,-151.26 388.44,-134.18 394.58,-120.24"/>
<polygon fill="black" stroke="black" points="397.93,-121.31 398.63,-110.74 391.49,-118.57 397.93,-121.31"/>
<text text-anchor="middle" x="358.5" y="-191.9" font-family="Helvetica,Arial,sans-serif" font-size="14.00">879</text>
</g>
<!-- 1&#45;&gt;7 -->
<g id="edge24" class="edge">
<title>1&#45;&gt;7</title>
<path fill="none" stroke="black" d="M295.69,-226.24C289.6,-222.61 282.24,-218.94 275,-217.1 265.09,-214.59 261.91,-214.59 252,-217.1 248.04,-218.11 244.05,-219.66 240.24,-221.45"/>
<polygon fill="black" stroke="black" points="238.48,-218.43 231.31,-226.24 241.78,-224.6 238.48,-218.43"/>
<text text-anchor="middle" x="263.5" y="-220.9" font-family="Helvetica,Arial,sans-serif" font-size="14.00">811</text>
</g>
<!-- 1&#45;&gt;9 -->
<g id="edge25" class="edge">
<title>1&#45;&gt;9</title>
<path fill="none" stroke="black" d="M328.76,-233.13C353.45,-228.89 401.11,-221.28 442,-218.1 491.68,-214.24 549.81,-214.18 583.32,-214.58"/>
<polygon fill="black" stroke="black" points="583.64,-218.08 593.69,-214.73 583.75,-211.08 583.64,-218.08"/>
<text text-anchor="middle" x="457.5" y="-221.9" font-family="Helvetica,Arial,sans-serif" font-size="14.00">524</text>
</g>
<!-- 1&#45;&gt;6 -->
<g id="edge22" class="edge">
<title>1&#45;&gt;6</title>
<path fill="none" stroke="black" d="M323.53,-249.04C339.85,-265.85 371.48,-293.1 405,-293.1 405,-293.1 405,-293.1 716,-293.1 738.97,-293.1 764.51,-298.74 783,-303.87"/>
<polygon fill="black" stroke="black" points="782.16,-307.27 792.74,-306.71 784.12,-300.55 782.16,-307.27"/>
<text text-anchor="middle" x="560.5" y="-296.9" font-family="Helvetica,Arial,sans-serif" font-size="14.00">954</text>
</g>
</g>
</svg>
