<?xml version="1.0" encoding="UTF-8" standalone="no"?>
<!DOCTYPE svg PUBLIC "-//W3C//DTD SVG 1.1//EN"
 "http://www.w3.org/Graphics/SVG/1.1/DTD/svg11.dtd">
<!-- Generated by graphviz version 2.43.0 (0)
 -->
<!-- Title: finite_state_machine Pages: 1 -->
<svg width="638pt" height="289pt"
 viewBox="0.00 0.00 638.00 289.00" xmlns="http://www.w3.org/2000/svg" xmlns:xlink="http://www.w3.org/1999/xlink">
<g id="graph0" class="graph" transform="scale(1 1) rotate(0) translate(4 285)">
<title>finite_state_machine</title>
<polygon fill="white" stroke="transparent" points="-4,4 -4,-285 634,-285 634,4 -4,4"/>
<!-- 4 -->
<g id="node1" class="node">
<title>4</title>
<ellipse fill="none" stroke="black" cx="216" cy="-68" rx="18" ry="18"/>
<text text-anchor="middle" x="216" y="-64.3" font-family="Helvetica,Arial,sans-serif" font-size="14.00">4</text>
</g>
<!-- 2 -->
<g id="node2" class="node">
<title>2</title>
<ellipse fill="none" stroke="black" cx="315" cy="-185" rx="18" ry="18"/>
<text text-anchor="middle" x="315" y="-181.3" font-family="Helvetica,Arial,sans-serif" font-size="14.00">2</text>
</g>
<!-- 4&#45;&gt;2 -->
<g id="edge1" class="edge">
<title>4&#45;&gt;2</title>
<path fill="none" stroke="black" d="M233.19,-73.42C246.99,-78.76 266.5,-88.15 279,-102 293.28,-117.82 302.27,-140.31 307.56,-157.89"/>
<polygon fill="black" stroke="black" points="304.21,-158.89 310.26,-167.59 310.95,-157.02 304.21,-158.89"/>
<text text-anchor="middle" x="265.5" y="-105.8" font-family="Helvetica,Arial,sans-serif" font-size="14.00">0/2</text>
</g>
<!-- 7 -->
<g id="node3" class="node">
<title>7</title>
<ellipse fill="none" stroke="black" cx="612" cy="-94" rx="18" ry="18"/>
<text text-anchor="middle" x="612" y="-90.3" font-family="Helvetica,Arial,sans-serif" font-size="14.00">7</text>
</g>
<!-- 4&#45;&gt;7 -->
<g id="edge2" class="edge">
<title>4&#45;&gt;7</title>
<path fill="none" stroke="black" d="M227.51,-53.91C243.7,-33.99 276.78,0 314,0 314,0 314,0 514,0 553.61,0 583.18,-40.92 598.71,-68.76"/>
<polygon fill="black" stroke="black" points="595.64,-70.45 603.44,-77.63 601.82,-67.16 595.64,-70.45"/>
<text text-anchor="middle" x="414" y="-3.8" font-family="Helvetica,Arial,sans-serif" font-size="14.00">0/7</text>
</g>
<!-- 5 -->
<g id="node4" class="node">
<title>5</title>
<ellipse fill="none" stroke="black" cx="513" cy="-129" rx="18" ry="18"/>
<text text-anchor="middle" x="513" y="-125.3" font-family="Helvetica,Arial,sans-serif" font-size="14.00">5</text>
</g>
<!-- 4&#45;&gt;5 -->
<g id="edge3" class="edge">
<title>4&#45;&gt;5</title>
<path fill="none" stroke="black" d="M234.16,-68.18C246.64,-68.47 263.91,-69.2 279,-71 355.67,-80.17 443.37,-106.43 486,-120.25"/>
<polygon fill="black" stroke="black" points="485,-123.61 495.6,-123.4 487.19,-116.96 485,-123.61"/>
<text text-anchor="middle" x="364.5" y="-92.8" font-family="Helvetica,Arial,sans-serif" font-size="14.00">0/1</text>
</g>
<!-- 3 -->
<g id="node8" class="node">
<title>3</title>
<ellipse fill="none" stroke="black" cx="414" cy="-136" rx="18" ry="18"/>
<text text-anchor="middle" x="414" y="-132.3" font-family="Helvetica,Arial,sans-serif" font-size="14.00">3</text>
</g>
<!-- 2&#45;&gt;3 -->
<g id="edge16" class="edge">
<title>2&#45;&gt;3</title>
<path fill="none" stroke="black" d="M331.58,-177.13C346.86,-169.41 370.38,-157.53 388.22,-148.52"/>
<polygon fill="black" stroke="black" points="390.11,-151.49 397.45,-143.85 386.95,-145.24 390.11,-151.49"/>
<text text-anchor="middle" x="364.5" y="-169.8" font-family="Helvetica,Arial,sans-serif" font-size="14.00">5/26</text>
</g>
<!-- 5&#45;&gt;7 -->
<g id="edge12" class="edge">
<title>5&#45;&gt;7</title>
<path fill="none" stroke="black" d="M530.45,-123.06C545.46,-117.65 567.86,-109.57 585.23,-103.3"/>
<polygon fill="black" stroke="black" points="586.57,-106.54 594.79,-99.85 584.19,-99.95 586.57,-106.54"/>
<text text-anchor="middle" x="562.5" y="-118.8" font-family="Helvetica,Arial,sans-serif" font-size="14.00">5/7</text>
</g>
<!-- 0 -->
<g id="node5" class="node">
<title>0</title>
<ellipse fill="none" stroke="black" cx="18" cy="-228" rx="18" ry="18"/>
<text text-anchor="middle" x="18" y="-224.3" font-family="Helvetica,Arial,sans-serif" font-size="14.00">0</text>
</g>
<!-- 0&#45;&gt;2 -->
<g id="edge6" class="edge">
<title>0&#45;&gt;2</title>
<path fill="none" stroke="black" d="M36.12,-226.24C77.84,-221.83 188.02,-209.49 279,-193 281.72,-192.51 284.56,-191.94 287.38,-191.35"/>
<polygon fill="black" stroke="black" points="288.33,-194.72 297.33,-189.14 286.81,-187.89 288.33,-194.72"/>
<text text-anchor="middle" x="166.5" y="-215.8" font-family="Helvetica,Arial,sans-serif" font-size="14.00">0/1</text>
</g>
<!-- 6 -->
<g id="node6" class="node">
<title>6</title>
<ellipse fill="none" stroke="black" cx="513" cy="-183" rx="18" ry="18"/>
<text text-anchor="middle" x="513" y="-179.3" font-family="Helvetica,Arial,sans-serif" font-size="14.00">6</text>
</g>
<!-- 0&#45;&gt;6 -->
<g id="edge4" class="edge">
<title>0&#45;&gt;6</title>
<path fill="none" stroke="black" d="M33.43,-237.59C51.8,-248.85 84.89,-266 116,-266 116,-266 116,-266 415,-266 451.52,-266 481.21,-231.62 497.74,-207.11"/>
<polygon fill="black" stroke="black" points="500.74,-208.91 503.22,-198.61 494.86,-205.12 500.74,-208.91"/>
<text text-anchor="middle" x="265.5" y="-269.8" font-family="Helvetica,Arial,sans-serif" font-size="14.00">0/2</text>
</g>
<!-- 1 -->
<g id="node7" class="node">
<title>1</title>
<ellipse fill="none" stroke="black" cx="117" cy="-161" rx="18" ry="18"/>
<text text-anchor="middle" x="117" y="-157.3" font-family="Helvetica,Arial,sans-serif" font-size="14.00">1</text>
</g>
<!-- 0&#45;&gt;1 -->
<g id="edge5" class="edge">
<title>0&#45;&gt;1</title>
<path fill="none" stroke="black" d="M31.94,-216.53C38.4,-211 46.43,-204.42 54,-199 66.15,-190.31 80.32,-181.53 92.04,-174.6"/>
<polygon fill="black" stroke="black" points="93.96,-177.54 100.84,-169.48 90.43,-171.49 93.96,-177.54"/>
<text text-anchor="middle" x="67.5" y="-202.8" font-family="Helvetica,Arial,sans-serif" font-size="14.00">5/38</text>
</g>
<!-- 6&#45;&gt;7 -->
<g id="edge11" class="edge">
<title>6&#45;&gt;7</title>
<path fill="none" stroke="black" d="M528.14,-172.98C541.11,-163.53 560.59,-148.66 576,-134 581.88,-128.4 587.86,-121.93 593.17,-115.84"/>
<polygon fill="black" stroke="black" points="596.11,-117.78 599.92,-107.89 590.78,-113.25 596.11,-117.78"/>
<text text-anchor="middle" x="562.5" y="-159.8" font-family="Helvetica,Arial,sans-serif" font-size="14.00">0/27</text>
</g>
<!-- 1&#45;&gt;4 -->
<g id="edge15" class="edge">
<title>1&#45;&gt;4</title>
<path fill="none" stroke="black" d="M126.48,-145.6C132.87,-134.86 142.34,-120.6 153,-110 164.24,-98.83 178.84,-88.77 191.05,-81.3"/>
<polygon fill="black" stroke="black" points="192.99,-84.22 199.82,-76.12 189.43,-78.19 192.99,-84.22"/>
<text text-anchor="middle" x="166.5" y="-113.8" font-family="Helvetica,Arial,sans-serif" font-size="14.00">0/13</text>
</g>
<!-- 1&#45;&gt;2 -->
<g id="edge13" class="edge">
<title>1&#45;&gt;2</title>
<path fill="none" stroke="black" d="M135.05,-163.09C169.08,-167.25 245.66,-176.63 286.74,-181.66"/>
<polygon fill="black" stroke="black" points="286.5,-185.16 296.85,-182.9 287.35,-178.21 286.5,-185.16"/>
<text text-anchor="middle" x="216" y="-177.8" font-family="Helvetica,Arial,sans-serif" font-size="14.00">5/8</text>
</g>
<!-- 1&#45;&gt;3 -->
<g id="edge14" class="edge">
<title>1&#45;&gt;3</title>
<path fill="none" stroke="black" d="M135.14,-159.55C184.22,-155.39 325.65,-143.4 385.61,-138.32"/>
<polygon fill="black" stroke="black" points="386.15,-141.79 395.82,-137.46 385.56,-134.81 386.15,-141.79"/>
<text text-anchor="middle" x="265.5" y="-152.8" font-family="Helvetica,Arial,sans-serif" font-size="14.00">0/10</text>
</g>
<!-- 3&#45;&gt;4 -->
<g id="edge9" class="edge">
<title>3&#45;&gt;4</title>
<path fill="none" stroke="black" d="M397.21,-128.67C372.46,-117.39 322.81,-95.68 279,-82 267.59,-78.44 254.72,-75.38 243.69,-73.04"/>
<polygon fill="black" stroke="black" points="244.27,-69.59 233.77,-71.03 242.87,-76.45 244.27,-69.59"/>
<text text-anchor="middle" x="315" y="-104.8" font-family="Helvetica,Arial,sans-serif" font-size="14.00">0/20</text>
</g>
<!-- 3&#45;&gt;7 -->
<g id="edge8" class="edge">
<title>3&#45;&gt;7</title>
<path fill="none" stroke="black" d="M428.33,-124.59C443.38,-112.54 469.13,-94.29 495,-87 524.81,-78.6 560.57,-82.79 584.43,-87.49"/>
<polygon fill="black" stroke="black" points="583.99,-90.97 594.5,-89.64 585.45,-84.13 583.99,-90.97"/>
<text text-anchor="middle" x="513" y="-90.8" font-family="Helvetica,Arial,sans-serif" font-size="14.00">0/1</text>
</g>
<!-- 3&#45;&gt;5 -->
<g id="edge10" class="edge">
<title>3&#45;&gt;5</title>
<path fill="none" stroke="black" d="M432.34,-134.75C446.82,-133.7 467.74,-132.19 484.5,-130.98"/>
<polygon fill="black" stroke="black" points="485.09,-134.45 494.81,-130.24 484.58,-127.47 485.09,-134.45"/>
<text text-anchor="middle" x="463.5" y="-136.8" font-family="Helvetica,Arial,sans-serif" font-size="14.00">5/8</text>
</g>
<!-- 3&#45;&gt;6 -->
<g id="edge7" class="edge">
<title>3&#45;&gt;6</title>
<path fill="none" stroke="black" d="M430.58,-143.55C445.86,-150.95 469.38,-162.35 487.22,-170.99"/>
<polygon fill="black" stroke="black" points="485.93,-174.26 496.45,-175.47 488.98,-167.96 485.93,-174.26"/>
<text text-anchor="middle" x="463.5" y="-168.8" font-family="Helvetica,Arial,sans-serif" font-size="14.00">0/24</text>
</g>
</g>
</svg>
