<?xml version="1.0" encoding="UTF-8" standalone="no"?>
<!DOCTYPE svg PUBLIC "-//W3C//DTD SVG 1.1//EN"
 "http://www.w3.org/Graphics/SVG/1.1/DTD/svg11.dtd">
<!-- Generated by graphviz version 2.43.0 (0)
 -->
<!-- Title: finite_state_machine Pages: 1 -->
<svg width="614pt" height="228pt"
 viewBox="0.00 0.00 614.00 228.00" xmlns="http://www.w3.org/2000/svg" xmlns:xlink="http://www.w3.org/1999/xlink">
<g id="graph0" class="graph" transform="scale(1 1) rotate(0) translate(4 224)">
<title>finite_state_machine</title>
<polygon fill="white" stroke="transparent" points="-4,4 -4,-224 610,-224 610,4 -4,4"/>
<!-- 2 -->
<g id="node1" class="node">
<title>2</title>
<ellipse fill="none" stroke="black" cx="208" cy="-165" rx="18" ry="18"/>
<text text-anchor="middle" x="208" y="-161.3" font-family="Helvetica,Arial,sans-serif" font-size="14.00">2</text>
</g>
<!-- 3 -->
<g id="node2" class="node">
<title>3</title>
<ellipse fill="none" stroke="black" cx="307" cy="-110" rx="18" ry="18"/>
<text text-anchor="middle" x="307" y="-106.3" font-family="Helvetica,Arial,sans-serif" font-size="14.00">3</text>
</g>
<!-- 2&#45;&gt;3 -->
<g id="edge1" class="edge">
<title>2&#45;&gt;3</title>
<path fill="none" stroke="black" d="M223.91,-155.88C230.1,-152.14 237.36,-147.81 244,-144 256.39,-136.89 270.34,-129.21 281.86,-122.96"/>
<polygon fill="black" stroke="black" points="283.74,-125.92 290.87,-118.08 280.41,-119.76 283.74,-125.92"/>
<text text-anchor="middle" x="257.5" y="-147.8" font-family="Helvetica,Arial,sans-serif" font-size="14.00">0/26</text>
</g>
<!-- 4 -->
<g id="node4" class="node">
<title>4</title>
<ellipse fill="none" stroke="black" cx="406" cy="-173" rx="18" ry="18"/>
<text text-anchor="middle" x="406" y="-169.3" font-family="Helvetica,Arial,sans-serif" font-size="14.00">4</text>
</g>
<!-- 3&#45;&gt;4 -->
<g id="edge8" class="edge">
<title>3&#45;&gt;4</title>
<path fill="none" stroke="black" d="M323.51,-117.47C336.35,-123.89 354.87,-133.72 370,-144 374.81,-147.27 379.76,-151.06 384.36,-154.81"/>
<polygon fill="black" stroke="black" points="382.26,-157.61 392.17,-161.37 386.76,-152.25 382.26,-157.61"/>
<text text-anchor="middle" x="356.5" y="-147.8" font-family="Helvetica,Arial,sans-serif" font-size="14.00">0/20</text>
</g>
<!-- 5 -->
<g id="node5" class="node">
<title>5</title>
<ellipse fill="none" stroke="black" cx="497" cy="-110" rx="18" ry="18"/>
<text text-anchor="middle" x="497" y="-106.3" font-family="Helvetica,Arial,sans-serif" font-size="14.00">5</text>
</g>
<!-- 3&#45;&gt;5 -->
<g id="edge7" class="edge">
<title>3&#45;&gt;5</title>
<path fill="none" stroke="black" d="M325.02,-110C357.65,-110 429.29,-110 468.69,-110"/>
<polygon fill="black" stroke="black" points="468.89,-113.5 478.89,-110 468.89,-106.5 468.89,-113.5"/>
<text text-anchor="middle" x="406" y="-113.8" font-family="Helvetica,Arial,sans-serif" font-size="14.00">0/8</text>
</g>
<!-- 7 -->
<g id="node6" class="node">
<title>7</title>
<ellipse fill="none" stroke="black" cx="588" cy="-87" rx="18" ry="18"/>
<text text-anchor="middle" x="588" y="-83.3" font-family="Helvetica,Arial,sans-serif" font-size="14.00">7</text>
</g>
<!-- 3&#45;&gt;7 -->
<g id="edge9" class="edge">
<title>3&#45;&gt;7</title>
<path fill="none" stroke="black" d="M324.89,-106.43C355.45,-100.18 422.07,-87.47 479,-83 494.95,-81.75 499.01,-82.56 515,-83 529.81,-83.41 546.32,-84.3 559.79,-85.13"/>
<polygon fill="black" stroke="black" points="559.64,-88.63 569.84,-85.78 560.09,-81.64 559.64,-88.63"/>
<text text-anchor="middle" x="451.5" y="-89.8" font-family="Helvetica,Arial,sans-serif" font-size="14.00">0/1</text>
</g>
<!-- 6 -->
<g id="node7" class="node">
<title>6</title>
<ellipse fill="none" stroke="black" cx="406" cy="-18" rx="18" ry="18"/>
<text text-anchor="middle" x="406" y="-14.3" font-family="Helvetica,Arial,sans-serif" font-size="14.00">6</text>
</g>
<!-- 3&#45;&gt;6 -->
<g id="edge10" class="edge">
<title>3&#45;&gt;6</title>
<path fill="none" stroke="black" d="M311.66,-92.52C316.15,-75.42 325.43,-49.83 343,-35 352.67,-26.84 365.92,-22.58 377.7,-20.36"/>
<polygon fill="black" stroke="black" points="378.57,-23.76 387.95,-18.84 377.54,-16.84 378.57,-23.76"/>
<text text-anchor="middle" x="356.5" y="-38.8" font-family="Helvetica,Arial,sans-serif" font-size="14.00">0/24</text>
</g>
<!-- 1 -->
<g id="node3" class="node">
<title>1</title>
<ellipse fill="none" stroke="black" cx="117" cy="-119" rx="18" ry="18"/>
<text text-anchor="middle" x="117" y="-115.3" font-family="Helvetica,Arial,sans-serif" font-size="14.00">1</text>
</g>
<!-- 1&#45;&gt;2 -->
<g id="edge4" class="edge">
<title>1&#45;&gt;2</title>
<path fill="none" stroke="black" d="M133.81,-125.79C144.69,-130.58 159.4,-137.33 172,-144 175.8,-146.01 179.77,-148.26 183.62,-150.5"/>
<polygon fill="black" stroke="black" points="181.84,-153.52 192.21,-155.65 185.43,-147.51 181.84,-153.52"/>
<text text-anchor="middle" x="162.5" y="-147.8" font-family="Helvetica,Arial,sans-serif" font-size="14.00">0/8</text>
</g>
<!-- 1&#45;&gt;3 -->
<g id="edge3" class="edge">
<title>1&#45;&gt;3</title>
<path fill="none" stroke="black" d="M135.02,-118.19C167.65,-116.62 239.29,-113.19 278.69,-111.31"/>
<polygon fill="black" stroke="black" points="279.07,-114.79 288.89,-110.82 278.73,-107.8 279.07,-114.79"/>
<text text-anchor="middle" x="208" y="-118.8" font-family="Helvetica,Arial,sans-serif" font-size="14.00">0/10</text>
</g>
<!-- 1&#45;&gt;4 -->
<g id="edge2" class="edge">
<title>1&#45;&gt;4</title>
<path fill="none" stroke="black" d="M126.82,-134.19C138.51,-152.49 161.06,-182.01 190,-192 265.68,-218.12 291.51,-200.78 370,-185 373.05,-184.39 376.2,-183.58 379.3,-182.66"/>
<polygon fill="black" stroke="black" points="380.45,-185.97 388.86,-179.53 378.27,-179.32 380.45,-185.97"/>
<text text-anchor="middle" x="257.5" y="-208.8" font-family="Helvetica,Arial,sans-serif" font-size="14.00">0/13</text>
</g>
<!-- 4&#45;&gt;2 -->
<g id="edge16" class="edge">
<title>4&#45;&gt;2</title>
<path fill="none" stroke="black" d="M387.85,-172.3C353.74,-170.91 277.15,-167.78 236.14,-166.11"/>
<polygon fill="black" stroke="black" points="236.19,-162.61 226.05,-165.7 235.9,-169.6 236.19,-162.61"/>
<text text-anchor="middle" x="307" y="-172.8" font-family="Helvetica,Arial,sans-serif" font-size="14.00">0/2</text>
</g>
<!-- 4&#45;&gt;5 -->
<g id="edge14" class="edge">
<title>4&#45;&gt;5</title>
<path fill="none" stroke="black" d="M419.97,-161.57C426.43,-156.05 434.46,-149.46 442,-144 451.65,-137.01 462.73,-129.88 472.33,-123.98"/>
<polygon fill="black" stroke="black" points="474.25,-126.91 480.99,-118.73 470.63,-120.92 474.25,-126.91"/>
<text text-anchor="middle" x="451.5" y="-147.8" font-family="Helvetica,Arial,sans-serif" font-size="14.00">0/1</text>
</g>
<!-- 4&#45;&gt;7 -->
<g id="edge15" class="edge">
<title>4&#45;&gt;7</title>
<path fill="none" stroke="black" d="M423.87,-169.5C452.23,-163.03 510.45,-147.23 552,-119 557.24,-115.44 562.48,-111.14 567.26,-106.85"/>
<polygon fill="black" stroke="black" points="569.88,-109.19 574.78,-99.8 565.09,-104.09 569.88,-109.19"/>
<text text-anchor="middle" x="497" y="-156.8" font-family="Helvetica,Arial,sans-serif" font-size="14.00">0/7</text>
</g>
<!-- 5&#45;&gt;7 -->
<g id="edge5" class="edge">
<title>5&#45;&gt;7</title>
<path fill="none" stroke="black" d="M514.74,-105.67C527.54,-102.36 545.45,-97.74 560.24,-93.92"/>
<polygon fill="black" stroke="black" points="561.53,-97.2 570.33,-91.31 559.78,-90.42 561.53,-97.2"/>
<text text-anchor="middle" x="542.5" y="-103.8" font-family="Helvetica,Arial,sans-serif" font-size="14.00">0/7</text>
</g>
<!-- 6&#45;&gt;7 -->
<g id="edge6" class="edge">
<title>6&#45;&gt;7</title>
<path fill="none" stroke="black" d="M424.25,-17.8C453.17,-18.27 512.19,-22.81 552,-50 558.18,-54.22 564.1,-59.7 569.26,-65.14"/>
<polygon fill="black" stroke="black" points="566.94,-67.79 576.21,-72.93 572.16,-63.13 566.94,-67.79"/>
<text text-anchor="middle" x="497" y="-35.8" font-family="Helvetica,Arial,sans-serif" font-size="14.00">0/27</text>
</g>
<!-- 0 -->
<g id="node8" class="node">
<title>0</title>
<ellipse fill="none" stroke="black" cx="18" cy="-119" rx="18" ry="18"/>
<text text-anchor="middle" x="18" y="-115.3" font-family="Helvetica,Arial,sans-serif" font-size="14.00">0</text>
</g>
<!-- 0&#45;&gt;2 -->
<g id="edge11" class="edge">
<title>0&#45;&gt;2</title>
<path fill="none" stroke="black" d="M33.54,-128.12C39.67,-131.63 46.99,-135.42 54,-138 96.33,-153.61 148.67,-160.35 179.86,-163.14"/>
<polygon fill="black" stroke="black" points="179.71,-166.64 189.96,-163.98 180.28,-159.67 179.71,-166.64"/>
<text text-anchor="middle" x="117" y="-160.8" font-family="Helvetica,Arial,sans-serif" font-size="14.00">0/1</text>
</g>
<!-- 0&#45;&gt;1 -->
<g id="edge12" class="edge">
<title>0&#45;&gt;1</title>
<path fill="none" stroke="black" d="M36.34,-119C50.82,-119 71.74,-119 88.5,-119"/>
<polygon fill="black" stroke="black" points="88.81,-122.5 98.81,-119 88.81,-115.5 88.81,-122.5"/>
<text text-anchor="middle" x="67.5" y="-122.8" font-family="Helvetica,Arial,sans-serif" font-size="14.00">0/38</text>
</g>
<!-- 0&#45;&gt;6 -->
<g id="edge13" class="edge">
<title>0&#45;&gt;6</title>
<path fill="none" stroke="black" d="M24.17,-101.84C35.22,-69.11 64.42,-1 116,-1 116,-1 116,-1 308,-1 332.09,-1 359.05,-6.15 378.42,-10.78"/>
<polygon fill="black" stroke="black" points="377.78,-14.23 388.33,-13.26 379.48,-7.44 377.78,-14.23"/>
<text text-anchor="middle" x="208" y="-4.8" font-family="Helvetica,Arial,sans-serif" font-size="14.00">0/2</text>
</g>
</g>
</svg>
