<?xml version="1.0" encoding="UTF-8" standalone="no"?>
<!DOCTYPE svg PUBLIC "-//W3C//DTD SVG 1.1//EN"
 "http://www.w3.org/Graphics/SVG/1.1/DTD/svg11.dtd">
<!-- Generated by graphviz version 2.43.0 (0)
 -->
<!-- Title: finite_state_machine Pages: 1 -->
<svg width="432pt" height="141pt"
 viewBox="0.00 0.00 432.00 141.00" xmlns="http://www.w3.org/2000/svg" xmlns:xlink="http://www.w3.org/1999/xlink">
<g id="graph0" class="graph" transform="scale(1 1) rotate(0) translate(4 137)">
<title>finite_state_machine</title>
<polygon fill="white" stroke="transparent" points="-4,4 -4,-137 428,-137 428,4 -4,4"/>
<!-- 3 -->
<g id="node1" class="node">
<title>3</title>
<ellipse fill="none" stroke="black" cx="216" cy="-18" rx="18" ry="18"/>
<text text-anchor="middle" x="216" y="-14.3" font-family="Helvetica,Arial,sans-serif" font-size="14.00">3</text>
</g>
<!-- 5 -->
<g id="node2" class="node">
<title>5</title>
<ellipse fill="none" stroke="black" cx="406" cy="-25" rx="18" ry="18"/>
<text text-anchor="middle" x="406" y="-21.3" font-family="Helvetica,Arial,sans-serif" font-size="14.00">5</text>
</g>
<!-- 3&#45;&gt;5 -->
<g id="edge1" class="edge">
<title>3&#45;&gt;5</title>
<path fill="none" stroke="black" d="M234.02,-18.63C266.65,-19.85 338.29,-22.52 377.69,-23.98"/>
<polygon fill="black" stroke="black" points="377.76,-27.49 387.89,-24.36 378.02,-20.49 377.76,-27.49"/>
<text text-anchor="middle" x="315" y="-25.8" font-family="Helvetica,Arial,sans-serif" font-size="14.00">2/2</text>
</g>
<!-- 4 -->
<g id="node3" class="node">
<title>4</title>
<ellipse fill="none" stroke="black" cx="315" cy="-66" rx="18" ry="18"/>
<text text-anchor="middle" x="315" y="-62.3" font-family="Helvetica,Arial,sans-serif" font-size="14.00">4</text>
</g>
<!-- 3&#45;&gt;4 -->
<g id="edge2" class="edge">
<title>3&#45;&gt;4</title>
<path fill="none" stroke="black" d="M233.19,-23.53C245.93,-28.11 263.99,-35.14 279,-43 283.1,-45.14 287.32,-47.64 291.35,-50.19"/>
<polygon fill="black" stroke="black" points="289.47,-53.14 299.75,-55.71 293.31,-47.29 289.47,-53.14"/>
<text text-anchor="middle" x="265.5" y="-46.8" font-family="Helvetica,Arial,sans-serif" font-size="14.00">0/20</text>
</g>
<!-- 4&#45;&gt;5 -->
<g id="edge3" class="edge">
<title>4&#45;&gt;5</title>
<path fill="none" stroke="black" d="M331.91,-58.67C345.2,-52.55 364.39,-43.71 379.77,-36.62"/>
<polygon fill="black" stroke="black" points="381.61,-39.63 389.23,-32.27 378.68,-33.27 381.61,-39.63"/>
<text text-anchor="middle" x="360.5" y="-52.8" font-family="Helvetica,Arial,sans-serif" font-size="14.00">1/1</text>
</g>
<!-- 2 -->
<g id="node4" class="node">
<title>2</title>
<ellipse fill="none" stroke="black" cx="117" cy="-61" rx="18" ry="18"/>
<text text-anchor="middle" x="117" y="-57.3" font-family="Helvetica,Arial,sans-serif" font-size="14.00">2</text>
</g>
<!-- 2&#45;&gt;3 -->
<g id="edge5" class="edge">
<title>2&#45;&gt;3</title>
<path fill="none" stroke="black" d="M133.18,-52.81C139.28,-49.62 146.41,-46.01 153,-43 164.72,-37.64 177.93,-32.23 189.14,-27.81"/>
<polygon fill="black" stroke="black" points="190.72,-30.96 198.77,-24.08 188.18,-24.43 190.72,-30.96"/>
<text text-anchor="middle" x="166.5" y="-46.8" font-family="Helvetica,Arial,sans-serif" font-size="14.00">0/20</text>
</g>
<!-- 2&#45;&gt;4 -->
<g id="edge4" class="edge">
<title>2&#45;&gt;4</title>
<path fill="none" stroke="black" d="M135.05,-61.43C169.08,-62.3 245.66,-64.26 286.74,-65.3"/>
<polygon fill="black" stroke="black" points="286.76,-68.81 296.85,-65.56 286.94,-61.81 286.76,-68.81"/>
<text text-anchor="middle" x="216" y="-66.8" font-family="Helvetica,Arial,sans-serif" font-size="14.00">1/33</text>
</g>
<!-- 1 -->
<g id="node5" class="node">
<title>1</title>
<ellipse fill="none" stroke="black" cx="117" cy="-115" rx="18" ry="18"/>
<text text-anchor="middle" x="117" y="-111.3" font-family="Helvetica,Arial,sans-serif" font-size="14.00">1</text>
</g>
<!-- 1&#45;&gt;3 -->
<g id="edge7" class="edge">
<title>1&#45;&gt;3</title>
<path fill="none" stroke="black" d="M131.97,-104.33C144.99,-94.1 164.66,-77.89 180,-62 186.43,-55.34 192.9,-47.57 198.5,-40.43"/>
<polygon fill="black" stroke="black" points="201.32,-42.51 204.62,-32.44 195.76,-38.26 201.32,-42.51"/>
<text text-anchor="middle" x="166.5" y="-89.8" font-family="Helvetica,Arial,sans-serif" font-size="14.00">2/50</text>
</g>
<!-- 1&#45;&gt;4 -->
<g id="edge6" class="edge">
<title>1&#45;&gt;4</title>
<path fill="none" stroke="black" d="M134.93,-112.76C147.45,-110.99 164.87,-108.27 180,-105 224.58,-95.36 235.41,-91.4 279,-78 281.97,-77.09 285.08,-76.09 288.15,-75.07"/>
<polygon fill="black" stroke="black" points="289.34,-78.36 297.69,-71.83 287.1,-71.73 289.34,-78.36"/>
<text text-anchor="middle" x="216" y="-103.8" font-family="Helvetica,Arial,sans-serif" font-size="14.00">0/10</text>
</g>
<!-- 0 -->
<g id="node6" class="node">
<title>0</title>
<ellipse fill="none" stroke="black" cx="18" cy="-88" rx="18" ry="18"/>
<text text-anchor="middle" x="18" y="-84.3" font-family="Helvetica,Arial,sans-serif" font-size="14.00">0</text>
</g>
<!-- 0&#45;&gt;2 -->
<g id="edge8" class="edge">
<title>0&#45;&gt;2</title>
<path fill="none" stroke="black" d="M34.82,-80.99C40.76,-78.55 47.61,-75.93 54,-74 65.33,-70.58 78.09,-67.73 89.07,-65.59"/>
<polygon fill="black" stroke="black" points="89.77,-69.02 98.96,-63.75 88.49,-62.14 89.77,-69.02"/>
<text text-anchor="middle" x="67.5" y="-77.8" font-family="Helvetica,Arial,sans-serif" font-size="14.00">1/20</text>
</g>
<!-- 0&#45;&gt;1 -->
<g id="edge9" class="edge">
<title>0&#45;&gt;1</title>
<path fill="none" stroke="black" d="M35.45,-92.58C50.23,-96.69 72.18,-102.8 89.43,-107.6"/>
<polygon fill="black" stroke="black" points="88.89,-111.09 99.46,-110.4 90.77,-104.34 88.89,-111.09"/>
<text text-anchor="middle" x="67.5" y="-107.8" font-family="Helvetica,Arial,sans-serif" font-size="14.00">2/10</text>
</g>
</g>
</svg>
