<?xml version="1.0" encoding="UTF-8" standalone="no"?>
<!DOCTYPE svg PUBLIC "-//W3C//DTD SVG 1.1//EN"
 "http://www.w3.org/Graphics/SVG/1.1/DTD/svg11.dtd">
<!-- Generated by graphviz version 2.43.0 (0)
 -->
<!-- Title: finite_state_machine Pages: 1 -->
<svg width="572pt" height="289pt"
 viewBox="0.00 0.00 572.00 289.00" xmlns="http://www.w3.org/2000/svg" xmlns:xlink="http://www.w3.org/1999/xlink">
<g id="graph0" class="graph" transform="scale(1 1) rotate(0) translate(4 285)">
<title>finite_state_machine</title>
<polygon fill="white" stroke="transparent" points="-4,4 -4,-285 568,-285 568,4 -4,4"/>
<!-- 4 -->
<g id="node1" class="node">
<title>4</title>
<ellipse fill="none" stroke="black" cx="194" cy="-68" rx="18" ry="18"/>
<text text-anchor="middle" x="194" y="-64.3" font-family="Helvetica,Arial,sans-serif" font-size="14.00">4</text>
</g>
<!-- 2 -->
<g id="node2" class="node">
<title>2</title>
<ellipse fill="none" stroke="black" cx="282" cy="-185" rx="18" ry="18"/>
<text text-anchor="middle" x="282" y="-181.3" font-family="Helvetica,Arial,sans-serif" font-size="14.00">2</text>
</g>
<!-- 4&#45;&gt;2 -->
<g id="edge1" class="edge">
<title>4&#45;&gt;2</title>
<path fill="none" stroke="black" d="M210.6,-75.29C221.73,-81.17 236.37,-90.35 246,-102 259.37,-118.17 268.34,-140.18 273.85,-157.48"/>
<polygon fill="black" stroke="black" points="270.63,-158.96 276.84,-167.54 277.34,-156.96 270.63,-158.96"/>
<text text-anchor="middle" x="238" y="-105.8" font-family="Helvetica,Arial,sans-serif" font-size="14.00">2</text>
</g>
<!-- 7 -->
<g id="node3" class="node">
<title>7</title>
<ellipse fill="none" stroke="black" cx="546" cy="-94" rx="18" ry="18"/>
<text text-anchor="middle" x="546" y="-90.3" font-family="Helvetica,Arial,sans-serif" font-size="14.00">7</text>
</g>
<!-- 4&#45;&gt;7 -->
<g id="edge2" class="edge">
<title>4&#45;&gt;7</title>
<path fill="none" stroke="black" d="M204.41,-53.25C218.46,-33.25 246.93,0 281,0 281,0 281,0 459,0 496,0 521.37,-40.13 534.5,-67.95"/>
<polygon fill="black" stroke="black" points="531.36,-69.5 538.64,-77.19 537.75,-66.64 531.36,-69.5"/>
<text text-anchor="middle" x="370" y="-3.8" font-family="Helvetica,Arial,sans-serif" font-size="14.00">7</text>
</g>
<!-- 5 -->
<g id="node4" class="node">
<title>5</title>
<ellipse fill="none" stroke="black" cx="458" cy="-129" rx="18" ry="18"/>
<text text-anchor="middle" x="458" y="-125.3" font-family="Helvetica,Arial,sans-serif" font-size="14.00">5</text>
</g>
<!-- 4&#45;&gt;5 -->
<g id="edge3" class="edge">
<title>4&#45;&gt;5</title>
<path fill="none" stroke="black" d="M212.07,-69.13C222.01,-69.93 234.76,-71.18 246,-73 314,-84.02 391.8,-107.62 431.21,-120.38"/>
<polygon fill="black" stroke="black" points="430.23,-123.74 440.82,-123.53 432.41,-117.09 430.23,-123.74"/>
<text text-anchor="middle" x="326" y="-94.8" font-family="Helvetica,Arial,sans-serif" font-size="14.00">1</text>
</g>
<!-- 3 -->
<g id="node8" class="node">
<title>3</title>
<ellipse fill="none" stroke="black" cx="370" cy="-136" rx="18" ry="18"/>
<text text-anchor="middle" x="370" y="-132.3" font-family="Helvetica,Arial,sans-serif" font-size="14.00">3</text>
</g>
<!-- 2&#45;&gt;3 -->
<g id="edge16" class="edge">
<title>2&#45;&gt;3</title>
<path fill="none" stroke="black" d="M297.98,-176.46C310.97,-169.06 330.01,-158.22 345.1,-149.62"/>
<polygon fill="black" stroke="black" points="346.95,-152.59 353.9,-144.6 343.48,-146.51 346.95,-152.59"/>
<text text-anchor="middle" x="326" y="-167.8" font-family="Helvetica,Arial,sans-serif" font-size="14.00">26</text>
</g>
<!-- 5&#45;&gt;7 -->
<g id="edge12" class="edge">
<title>5&#45;&gt;7</title>
<path fill="none" stroke="black" d="M475.18,-122.42C487.75,-117.3 505.41,-110.11 519.83,-104.24"/>
<polygon fill="black" stroke="black" points="521.24,-107.45 529.19,-100.44 518.61,-100.96 521.24,-107.45"/>
<text text-anchor="middle" x="502" y="-117.8" font-family="Helvetica,Arial,sans-serif" font-size="14.00">7</text>
</g>
<!-- 0 -->
<g id="node5" class="node">
<title>0</title>
<ellipse fill="none" stroke="black" cx="18" cy="-228" rx="18" ry="18"/>
<text text-anchor="middle" x="18" y="-224.3" font-family="Helvetica,Arial,sans-serif" font-size="14.00">0</text>
</g>
<!-- 0&#45;&gt;2 -->
<g id="edge6" class="edge">
<title>0&#45;&gt;2</title>
<path fill="none" stroke="black" d="M35.87,-225.82C73.65,-220.85 167.86,-207.93 246,-193 248.72,-192.48 251.55,-191.9 254.37,-191.3"/>
<polygon fill="black" stroke="black" points="255.32,-194.67 264.32,-189.07 253.79,-187.84 255.32,-194.67"/>
<text text-anchor="middle" x="150" y="-213.8" font-family="Helvetica,Arial,sans-serif" font-size="14.00">1</text>
</g>
<!-- 6 -->
<g id="node6" class="node">
<title>6</title>
<ellipse fill="none" stroke="black" cx="458" cy="-183" rx="18" ry="18"/>
<text text-anchor="middle" x="458" y="-179.3" font-family="Helvetica,Arial,sans-serif" font-size="14.00">6</text>
</g>
<!-- 0&#45;&gt;6 -->
<g id="edge4" class="edge">
<title>0&#45;&gt;6</title>
<path fill="none" stroke="black" d="M32.78,-238.38C49.11,-249.63 77.58,-266 105,-266 105,-266 105,-266 371,-266 404.85,-266 430.49,-232.29 444.63,-207.83"/>
<polygon fill="black" stroke="black" points="447.73,-209.45 449.48,-199 441.6,-206.08 447.73,-209.45"/>
<text text-anchor="middle" x="238" y="-269.8" font-family="Helvetica,Arial,sans-serif" font-size="14.00">2</text>
</g>
<!-- 1 -->
<g id="node7" class="node">
<title>1</title>
<ellipse fill="none" stroke="black" cx="106" cy="-161" rx="18" ry="18"/>
<text text-anchor="middle" x="106" y="-157.3" font-family="Helvetica,Arial,sans-serif" font-size="14.00">1</text>
</g>
<!-- 0&#45;&gt;1 -->
<g id="edge5" class="edge">
<title>0&#45;&gt;1</title>
<path fill="none" stroke="black" d="M32.16,-216.82C38.67,-211.37 46.68,-204.75 54,-199 63.34,-191.66 73.84,-183.77 82.87,-177.1"/>
<polygon fill="black" stroke="black" points="85.01,-179.87 91,-171.13 80.87,-174.23 85.01,-179.87"/>
<text text-anchor="middle" x="62" y="-202.8" font-family="Helvetica,Arial,sans-serif" font-size="14.00">38</text>
</g>
<!-- 6&#45;&gt;7 -->
<g id="edge11" class="edge">
<title>6&#45;&gt;7</title>
<path fill="none" stroke="black" d="M471.8,-170.89C482.25,-160.9 497.31,-146.26 510,-133 515.53,-127.22 521.4,-120.8 526.71,-114.87"/>
<polygon fill="black" stroke="black" points="529.51,-116.99 533.54,-107.19 524.28,-112.34 529.51,-116.99"/>
<text text-anchor="middle" x="502" y="-151.8" font-family="Helvetica,Arial,sans-serif" font-size="14.00">27</text>
</g>
<!-- 1&#45;&gt;4 -->
<g id="edge15" class="edge">
<title>1&#45;&gt;4</title>
<path fill="none" stroke="black" d="M116.07,-145.45C122.6,-134.89 131.99,-120.93 142,-110 150.54,-100.68 161.19,-91.59 170.54,-84.27"/>
<polygon fill="black" stroke="black" points="172.82,-86.93 178.66,-78.09 168.59,-81.36 172.82,-86.93"/>
<text text-anchor="middle" x="150" y="-113.8" font-family="Helvetica,Arial,sans-serif" font-size="14.00">13</text>
</g>
<!-- 1&#45;&gt;2 -->
<g id="edge13" class="edge">
<title>1&#45;&gt;2</title>
<path fill="none" stroke="black" d="M124,-163.34C154.15,-167.5 217.21,-176.2 253.57,-181.22"/>
<polygon fill="black" stroke="black" points="253.55,-184.75 263.93,-182.65 254.5,-177.81 253.55,-184.75"/>
<text text-anchor="middle" x="194" y="-178.8" font-family="Helvetica,Arial,sans-serif" font-size="14.00">8</text>
</g>
<!-- 1&#45;&gt;3 -->
<g id="edge14" class="edge">
<title>1&#45;&gt;3</title>
<path fill="none" stroke="black" d="M124.19,-159.36C168.6,-155.12 287.47,-143.78 341.54,-138.62"/>
<polygon fill="black" stroke="black" points="342.12,-142.08 351.75,-137.65 341.46,-135.11 342.12,-142.08"/>
<text text-anchor="middle" x="238" y="-152.8" font-family="Helvetica,Arial,sans-serif" font-size="14.00">10</text>
</g>
<!-- 3&#45;&gt;4 -->
<g id="edge9" class="edge">
<title>3&#45;&gt;4</title>
<path fill="none" stroke="black" d="M353.32,-128.52C330.18,-117.64 285.37,-97.21 246,-83 238.15,-80.17 229.49,-77.46 221.56,-75.15"/>
<polygon fill="black" stroke="black" points="222.28,-71.72 211.7,-72.36 220.37,-78.45 222.28,-71.72"/>
<text text-anchor="middle" x="282" y="-107.8" font-family="Helvetica,Arial,sans-serif" font-size="14.00">20</text>
</g>
<!-- 3&#45;&gt;7 -->
<g id="edge8" class="edge">
<title>3&#45;&gt;7</title>
<path fill="none" stroke="black" d="M383.38,-123.51C396.25,-111.5 417.6,-94.14 440,-87 465.88,-78.75 497.11,-82.44 518.75,-86.99"/>
<polygon fill="black" stroke="black" points="518.01,-90.41 528.54,-89.24 519.58,-83.59 518.01,-90.41"/>
<text text-anchor="middle" x="458" y="-90.8" font-family="Helvetica,Arial,sans-serif" font-size="14.00">1</text>
</g>
<!-- 3&#45;&gt;5 -->
<g id="edge10" class="edge">
<title>3&#45;&gt;5</title>
<path fill="none" stroke="black" d="M387.99,-134.62C399.89,-133.65 416.04,-132.33 429.73,-131.22"/>
<polygon fill="black" stroke="black" points="430.36,-134.68 440.04,-130.38 429.79,-127.7 430.36,-134.68"/>
<text text-anchor="middle" x="414" y="-136.8" font-family="Helvetica,Arial,sans-serif" font-size="14.00">8</text>
</g>
<!-- 3&#45;&gt;6 -->
<g id="edge7" class="edge">
<title>3&#45;&gt;6</title>
<path fill="none" stroke="black" d="M386.38,-144.4C399.22,-151.42 417.76,-161.55 432.62,-169.68"/>
<polygon fill="black" stroke="black" points="431.3,-172.95 441.76,-174.67 434.66,-166.8 431.3,-172.95"/>
<text text-anchor="middle" x="414" y="-166.8" font-family="Helvetica,Arial,sans-serif" font-size="14.00">24</text>
</g>
</g>
</svg>
