<?xml version="1.0" encoding="UTF-8" standalone="no"?>
<!DOCTYPE svg PUBLIC "-//W3C//DTD SVG 1.1//EN"
 "http://www.w3.org/Graphics/SVG/1.1/DTD/svg11.dtd">
<!-- Generated by graphviz version 2.43.0 (0)
 -->
<!-- Title: finite_state_machine Pages: 1 -->
<svg width="388pt" height="141pt"
 viewBox="0.00 0.00 388.00 141.00" xmlns="http://www.w3.org/2000/svg" xmlns:xlink="http://www.w3.org/1999/xlink">
<g id="graph0" class="graph" transform="scale(1 1) rotate(0) translate(4 137)">
<title>finite_state_machine</title>
<polygon fill="white" stroke="transparent" points="-4,4 -4,-137 384,-137 384,4 -4,4"/>
<!-- 0 -->
<g id="node1" class="node">
<title>0</title>
<ellipse fill="none" stroke="black" cx="18" cy="-88" rx="18" ry="18"/>
<text text-anchor="middle" x="18" y="-84.3" font-family="Helvetica,Arial,sans-serif" font-size="14.00">0</text>
</g>
<!-- 1 -->
<g id="node2" class="node">
<title>1</title>
<ellipse fill="none" stroke="black" cx="106" cy="-61" rx="18" ry="18"/>
<text text-anchor="middle" x="106" y="-57.3" font-family="Helvetica,Arial,sans-serif" font-size="14.00">1</text>
</g>
<!-- 0&#45;&gt;1 -->
<g id="edge1" class="edge">
<title>0&#45;&gt;1</title>
<path fill="none" stroke="black" d="M34.87,-81.14C40.81,-78.71 47.65,-76.07 54,-74 61.85,-71.44 70.52,-69.07 78.44,-67.07"/>
<polygon fill="black" stroke="black" points="79.41,-70.44 88.31,-64.67 77.76,-63.63 79.41,-70.44"/>
<text text-anchor="middle" x="62" y="-77.8" font-family="Helvetica,Arial,sans-serif" font-size="14.00">10</text>
</g>
<!-- 2 -->
<g id="node3" class="node">
<title>2</title>
<ellipse fill="none" stroke="black" cx="106" cy="-115" rx="18" ry="18"/>
<text text-anchor="middle" x="106" y="-111.3" font-family="Helvetica,Arial,sans-serif" font-size="14.00">2</text>
</g>
<!-- 0&#45;&gt;2 -->
<g id="edge2" class="edge">
<title>0&#45;&gt;2</title>
<path fill="none" stroke="black" d="M35.58,-93.21C47.84,-97.05 64.76,-102.37 78.84,-106.79"/>
<polygon fill="black" stroke="black" points="77.88,-110.15 88.47,-109.81 79.98,-103.48 77.88,-110.15"/>
<text text-anchor="middle" x="62" y="-106.8" font-family="Helvetica,Arial,sans-serif" font-size="14.00">20</text>
</g>
<!-- 3 -->
<g id="node4" class="node">
<title>3</title>
<ellipse fill="none" stroke="black" cx="194" cy="-18" rx="18" ry="18"/>
<text text-anchor="middle" x="194" y="-14.3" font-family="Helvetica,Arial,sans-serif" font-size="14.00">3</text>
</g>
<!-- 1&#45;&gt;3 -->
<g id="edge3" class="edge">
<title>1&#45;&gt;3</title>
<path fill="none" stroke="black" d="M122.3,-53.05C128.41,-49.9 135.53,-46.25 142,-43 150.49,-38.74 159.81,-34.14 168.13,-30.07"/>
<polygon fill="black" stroke="black" points="169.88,-33.11 177.34,-25.58 166.81,-26.82 169.88,-33.11"/>
<text text-anchor="middle" x="150" y="-46.8" font-family="Helvetica,Arial,sans-serif" font-size="14.00">50</text>
</g>
<!-- 4 -->
<g id="node5" class="node">
<title>4</title>
<ellipse fill="none" stroke="black" cx="282" cy="-66" rx="18" ry="18"/>
<text text-anchor="middle" x="282" y="-62.3" font-family="Helvetica,Arial,sans-serif" font-size="14.00">4</text>
</g>
<!-- 1&#45;&gt;4 -->
<g id="edge4" class="edge">
<title>1&#45;&gt;4</title>
<path fill="none" stroke="black" d="M124,-61.49C154.15,-62.35 217.21,-64.17 253.57,-65.21"/>
<polygon fill="black" stroke="black" points="253.83,-68.72 263.93,-65.51 254.04,-61.72 253.83,-68.72"/>
<text text-anchor="middle" x="194" y="-67.8" font-family="Helvetica,Arial,sans-serif" font-size="14.00">10</text>
</g>
<!-- 2&#45;&gt;3 -->
<g id="edge5" class="edge">
<title>2&#45;&gt;3</title>
<path fill="none" stroke="black" d="M119.5,-102.68C130.04,-92.13 145.38,-76.41 158,-62 164.1,-55.03 170.49,-47.19 176.11,-40.07"/>
<polygon fill="black" stroke="black" points="178.9,-42.18 182.29,-32.15 173.38,-37.87 178.9,-42.18"/>
<text text-anchor="middle" x="150" y="-81.8" font-family="Helvetica,Arial,sans-serif" font-size="14.00">20</text>
</g>
<!-- 2&#45;&gt;4 -->
<g id="edge6" class="edge">
<title>2&#45;&gt;4</title>
<path fill="none" stroke="black" d="M123.85,-111.22C150.15,-105.2 202.48,-92.68 246,-79 249.15,-78.01 252.44,-76.9 255.68,-75.75"/>
<polygon fill="black" stroke="black" points="256.91,-79.03 265.09,-72.3 254.5,-72.46 256.91,-79.03"/>
<text text-anchor="middle" x="194" y="-101.8" font-family="Helvetica,Arial,sans-serif" font-size="14.00">33</text>
</g>
<!-- 3&#45;&gt;4 -->
<g id="edge8" class="edge">
<title>3&#45;&gt;4</title>
<path fill="none" stroke="black" d="M210.89,-25.16C221.09,-29.91 234.52,-36.45 246,-43 250.02,-45.29 254.2,-47.86 258.21,-50.44"/>
<polygon fill="black" stroke="black" points="256.33,-53.39 266.61,-55.96 260.18,-47.54 256.33,-53.39"/>
<text text-anchor="middle" x="238" y="-46.8" font-family="Helvetica,Arial,sans-serif" font-size="14.00">20</text>
</g>
<!-- 5 -->
<g id="node6" class="node">
<title>5</title>
<ellipse fill="none" stroke="black" cx="362" cy="-25" rx="18" ry="18"/>
<text text-anchor="middle" x="362" y="-21.3" font-family="Helvetica,Arial,sans-serif" font-size="14.00">5</text>
</g>
<!-- 3&#45;&gt;5 -->
<g id="edge9" class="edge">
<title>3&#45;&gt;5</title>
<path fill="none" stroke="black" d="M212.14,-18.72C240.84,-19.93 298.87,-22.38 333.39,-23.84"/>
<polygon fill="black" stroke="black" points="333.57,-27.35 343.7,-24.27 333.86,-20.35 333.57,-27.35"/>
<text text-anchor="middle" x="282" y="-26.8" font-family="Helvetica,Arial,sans-serif" font-size="14.00">2</text>
</g>
<!-- 4&#45;&gt;5 -->
<g id="edge7" class="edge">
<title>4&#45;&gt;5</title>
<path fill="none" stroke="black" d="M298.41,-57.9C309.31,-52.17 324.14,-44.38 336.63,-37.81"/>
<polygon fill="black" stroke="black" points="338.4,-40.83 345.62,-33.08 335.14,-34.64 338.4,-40.83"/>
<text text-anchor="middle" x="322" y="-50.8" font-family="Helvetica,Arial,sans-serif" font-size="14.00">1</text>
</g>
</g>
</svg>
