<?xml version="1.0" encoding="UTF-8" standalone="no"?>
<!DOCTYPE svg PUBLIC "-//W3C//DTD SVG 1.1//EN"
 "http://www.w3.org/Graphics/SVG/1.1/DTD/svg11.dtd">
<!-- Generated by graphviz version 2.43.0 (0)
 -->
<!-- Title: finite_state_machine Pages: 1 -->
<svg width="564pt" height="686pt"
 viewBox="0.00 0.00 564.00 686.00" xmlns="http://www.w3.org/2000/svg" xmlns:xlink="http://www.w3.org/1999/xlink">
<g id="graph0" class="graph" transform="scale(1 1) rotate(0) translate(4 682)">
<title>finite_state_machine</title>
<polygon fill="white" stroke="transparent" points="-4,4 -4,-682 560,-682 560,4 -4,4"/>
<!-- 3 -->
<g id="node1" class="node">
<title>3</title>
<ellipse fill="none" stroke="black" cx="18" cy="-246" rx="18" ry="18"/>
<text text-anchor="middle" x="18" y="-242.3" font-family="Helvetica,Arial,sans-serif" font-size="14.00">3</text>
</g>
<!-- 2 -->
<g id="node2" class="node">
<title>2</title>
<ellipse fill="none" stroke="black" cx="106" cy="-400" rx="18" ry="18"/>
<text text-anchor="middle" x="106" y="-396.3" font-family="Helvetica,Arial,sans-serif" font-size="14.00">2</text>
</g>
<!-- 3&#45;&gt;2 -->
<g id="edge1" class="edge">
<title>3&#45;&gt;2</title>
<path fill="none" stroke="black" d="M19.96,-264.3C22.18,-290.3 29.54,-338.3 54,-370 60.52,-378.45 70.15,-384.98 79.29,-389.76"/>
<polygon fill="black" stroke="black" points="77.95,-393 88.49,-394.12 80.94,-386.68 77.95,-393"/>
<text text-anchor="middle" x="62" y="-386.8" font-family="Helvetica,Arial,sans-serif" font-size="14.00">5</text>
</g>
<!-- 1 -->
<g id="node3" class="node">
<title>1</title>
<ellipse fill="none" stroke="black" cx="538" cy="-487" rx="18" ry="18"/>
<text text-anchor="middle" x="538" y="-483.3" font-family="Helvetica,Arial,sans-serif" font-size="14.00">1</text>
</g>
<!-- 3&#45;&gt;1 -->
<g id="edge2" class="edge">
<title>3&#45;&gt;1</title>
<path fill="none" stroke="black" d="M18.73,-264.02C18.01,-330.75 18.19,-563.1 54,-626 67.85,-650.34 77,-663 105,-663 105,-663 105,-663 451,-663 515.95,-663 531.86,-565.04 535.74,-515.29"/>
<polygon fill="black" stroke="black" points="539.25,-515.38 536.42,-505.17 532.26,-514.92 539.25,-515.38"/>
<text text-anchor="middle" x="282" y="-666.8" font-family="Helvetica,Arial,sans-serif" font-size="14.00">0</text>
</g>
<!-- 5 -->
<g id="node4" class="node">
<title>5</title>
<ellipse fill="none" stroke="black" cx="538" cy="-171" rx="18" ry="18"/>
<text text-anchor="middle" x="538" y="-167.3" font-family="Helvetica,Arial,sans-serif" font-size="14.00">5</text>
</g>
<!-- 3&#45;&gt;5 -->
<g id="edge3" class="edge">
<title>3&#45;&gt;5</title>
<path fill="none" stroke="black" d="M36.11,-245.55C91.35,-243.85 269.67,-236.36 414,-208 448.27,-201.26 486.65,-188.92 511.28,-180.35"/>
<polygon fill="black" stroke="black" points="512.68,-183.57 520.94,-176.94 510.35,-176.97 512.68,-183.57"/>
<text text-anchor="middle" x="282" y="-232.8" font-family="Helvetica,Arial,sans-serif" font-size="14.00">3</text>
</g>
<!-- 4 -->
<g id="node5" class="node">
<title>4</title>
<ellipse fill="none" stroke="black" cx="450" cy="-297" rx="18" ry="18"/>
<text text-anchor="middle" x="450" y="-293.3" font-family="Helvetica,Arial,sans-serif" font-size="14.00">4</text>
</g>
<!-- 3&#45;&gt;4 -->
<g id="edge4" class="edge">
<title>3&#45;&gt;4</title>
<path fill="none" stroke="black" d="M29.97,-259.51C44.98,-276.36 73.65,-303 105,-303 105,-303 105,-303 371,-303 387.94,-303 406.89,-301.58 421.87,-300.12"/>
<polygon fill="black" stroke="black" points="422.4,-303.58 431.99,-299.06 421.68,-296.62 422.4,-303.58"/>
<text text-anchor="middle" x="238" y="-306.8" font-family="Helvetica,Arial,sans-serif" font-size="14.00">20</text>
</g>
<!-- 7 -->
<g id="node6" class="node">
<title>7</title>
<ellipse fill="none" stroke="black" cx="370" cy="-127" rx="18" ry="18"/>
<text text-anchor="middle" x="370" y="-123.3" font-family="Helvetica,Arial,sans-serif" font-size="14.00">7</text>
</g>
<!-- 3&#45;&gt;7 -->
<g id="edge5" class="edge">
<title>3&#45;&gt;7</title>
<path fill="none" stroke="black" d="M20.93,-228.03C26.28,-188.4 45.12,-97 105,-97 105,-97 105,-97 283,-97 304.81,-97 328.08,-105.71 344.91,-113.74"/>
<polygon fill="black" stroke="black" points="343.51,-116.95 354.02,-118.32 346.66,-110.7 343.51,-116.95"/>
<text text-anchor="middle" x="194" y="-100.8" font-family="Helvetica,Arial,sans-serif" font-size="14.00">1</text>
</g>
<!-- 6 -->
<g id="node7" class="node">
<title>6</title>
<ellipse fill="none" stroke="black" cx="282" cy="-166" rx="18" ry="18"/>
<text text-anchor="middle" x="282" y="-162.3" font-family="Helvetica,Arial,sans-serif" font-size="14.00">6</text>
</g>
<!-- 3&#45;&gt;6 -->
<g id="edge6" class="edge">
<title>3&#45;&gt;6</title>
<path fill="none" stroke="black" d="M21.86,-228.26C25.82,-209.57 34.77,-180.58 54,-164 111.03,-114.83 209.36,-140.17 255.59,-156.18"/>
<polygon fill="black" stroke="black" points="254.55,-159.53 265.15,-159.62 256.92,-152.94 254.55,-159.53"/>
<text text-anchor="middle" x="150" y="-139.8" font-family="Helvetica,Arial,sans-serif" font-size="14.00">24</text>
</g>
<!-- 2&#45;&gt;3 -->
<g id="edge24" class="edge">
<title>2&#45;&gt;3</title>
<path fill="none" stroke="black" d="M95.36,-385.25C84.78,-368.85 67.49,-341.43 54,-317 45.77,-302.09 37.3,-284.98 30.76,-271.29"/>
<polygon fill="black" stroke="black" points="33.81,-269.55 26.37,-262.01 27.48,-272.54 33.81,-269.55"/>
<text text-anchor="middle" x="62" y="-345.8" font-family="Helvetica,Arial,sans-serif" font-size="14.00">21</text>
</g>
<!-- 2&#45;&gt;1 -->
<g id="edge25" class="edge">
<title>2&#45;&gt;1</title>
<path fill="none" stroke="black" d="M108.03,-418.08C111.57,-461.1 126.95,-566 193,-566 193,-566 193,-566 451,-566 483.57,-566 509.14,-534.88 523.66,-511.7"/>
<polygon fill="black" stroke="black" points="526.74,-513.37 528.85,-502.99 520.72,-509.79 526.74,-513.37"/>
<text text-anchor="middle" x="326" y="-569.8" font-family="Helvetica,Arial,sans-serif" font-size="14.00">5</text>
</g>
<!-- 2&#45;&gt;4 -->
<g id="edge27" class="edge">
<title>2&#45;&gt;4</title>
<path fill="none" stroke="black" d="M121.03,-410.37C164.77,-441.32 300.85,-527.2 388,-466 433.62,-433.97 445.27,-364.31 448.15,-325.16"/>
<polygon fill="black" stroke="black" points="451.66,-325.17 448.75,-314.98 444.67,-324.76 451.66,-325.17"/>
<text text-anchor="middle" x="282" y="-489.8" font-family="Helvetica,Arial,sans-serif" font-size="14.00">0</text>
</g>
<!-- 0 -->
<g id="node8" class="node">
<title>0</title>
<ellipse fill="none" stroke="black" cx="194" cy="-352" rx="18" ry="18"/>
<text text-anchor="middle" x="194" y="-348.3" font-family="Helvetica,Arial,sans-serif" font-size="14.00">0</text>
</g>
<!-- 2&#45;&gt;0 -->
<g id="edge26" class="edge">
<title>2&#45;&gt;0</title>
<path fill="none" stroke="black" d="M113.18,-383.33C118.69,-371.11 128.07,-355.41 142,-348 149.39,-344.07 158.24,-343.57 166.49,-344.52"/>
<polygon fill="black" stroke="black" points="165.98,-347.98 176.45,-346.33 167.24,-341.09 165.98,-347.98"/>
<text text-anchor="middle" x="150" y="-351.8" font-family="Helvetica,Arial,sans-serif" font-size="14.00">0</text>
</g>
<!-- 1&#45;&gt;3 -->
<g id="edge8" class="edge">
<title>1&#45;&gt;3</title>
<path fill="none" stroke="black" d="M533.49,-504.64C525.5,-539.1 502.5,-612 451,-612 105,-612 105,-612 105,-612 35.68,-612 22.19,-360.02 19.6,-274.21"/>
<polygon fill="black" stroke="black" points="23.1,-274.05 19.33,-264.15 16.1,-274.24 23.1,-274.05"/>
<text text-anchor="middle" x="282" y="-615.8" font-family="Helvetica,Arial,sans-serif" font-size="14.00">10</text>
</g>
<!-- 1&#45;&gt;2 -->
<g id="edge9" class="edge">
<title>1&#45;&gt;2</title>
<path fill="none" stroke="black" d="M523.64,-497.99C507.48,-510.13 478.95,-528 451,-528 193,-528 193,-528 193,-528 144.91,-528 121.97,-464.99 112.56,-427.39"/>
<polygon fill="black" stroke="black" points="115.94,-426.47 110.25,-417.53 109.12,-428.06 115.94,-426.47"/>
<text text-anchor="middle" x="326" y="-531.8" font-family="Helvetica,Arial,sans-serif" font-size="14.00">3</text>
</g>
<!-- 1&#45;&gt;4 -->
<g id="edge7" class="edge">
<title>1&#45;&gt;4</title>
<path fill="none" stroke="black" d="M537.25,-468.77C536.81,-437.57 531.99,-373.09 502,-330 495.58,-320.78 485.68,-313.52 476.3,-308.19"/>
<polygon fill="black" stroke="black" points="477.73,-304.99 467.24,-303.49 474.51,-311.2 477.73,-304.99"/>
<text text-anchor="middle" x="494" y="-333.8" font-family="Helvetica,Arial,sans-serif" font-size="14.00">13</text>
</g>
<!-- 1&#45;&gt;0 -->
<g id="edge10" class="edge">
<title>1&#45;&gt;0</title>
<path fill="none" stroke="black" d="M529.88,-470.92C523.92,-459.06 514.4,-443.25 502,-433 468.35,-405.18 454.66,-396 411,-396 281,-396 281,-396 281,-396 256.72,-396 232.4,-381.93 215.85,-369.7"/>
<polygon fill="black" stroke="black" points="217.99,-366.93 207.94,-363.56 213.69,-372.46 217.99,-366.93"/>
<text text-anchor="middle" x="370" y="-399.8" font-family="Helvetica,Arial,sans-serif" font-size="14.00">5</text>
</g>
<!-- 5&#45;&gt;3 -->
<g id="edge18" class="edge">
<title>5&#45;&gt;3</title>
<path fill="none" stroke="black" d="M536.21,-153.02C533.22,-109.12 518.96,0 451,0 105,0 105,0 105,0 71.34,0 68.96,-25.84 54,-56 27.75,-108.92 21.05,-178.95 19.43,-217.5"/>
<polygon fill="black" stroke="black" points="15.92,-217.84 19.08,-227.95 22.91,-218.07 15.92,-217.84"/>
<text text-anchor="middle" x="282" y="-3.8" font-family="Helvetica,Arial,sans-serif" font-size="14.00">5</text>
</g>
<!-- 5&#45;&gt;4 -->
<g id="edge19" class="edge">
<title>5&#45;&gt;4</title>
<path fill="none" stroke="black" d="M528.62,-186.63C521.84,-198.94 511.84,-216.4 502,-231 491.74,-246.22 479.14,-262.55 469.03,-275.16"/>
<polygon fill="black" stroke="black" points="466.06,-273.26 462.49,-283.23 471.5,-277.66 466.06,-273.26"/>
<text text-anchor="middle" x="494" y="-254.8" font-family="Helvetica,Arial,sans-serif" font-size="14.00">0</text>
</g>
<!-- 5&#45;&gt;7 -->
<g id="edge17" class="edge">
<title>5&#45;&gt;7</title>
<path fill="none" stroke="black" d="M530.54,-154.4C524.6,-140.61 514.78,-121.05 502,-107 489.72,-93.51 485.44,-89.35 468,-84 452.7,-79.31 447.25,-79.16 432,-84 416.84,-88.81 402.2,-98.88 391.06,-108.08"/>
<polygon fill="black" stroke="black" points="388.54,-105.64 383.28,-114.83 393.12,-110.92 388.54,-105.64"/>
<text text-anchor="middle" x="450" y="-87.8" font-family="Helvetica,Arial,sans-serif" font-size="14.00">2</text>
</g>
<!-- 4&#45;&gt;3 -->
<g id="edge29" class="edge">
<title>4&#45;&gt;3</title>
<path fill="none" stroke="black" d="M434.76,-287.23C419.65,-277.81 394.71,-265 371,-265 105,-265 105,-265 105,-265 84.49,-265 61.86,-259.78 44.96,-254.82"/>
<polygon fill="black" stroke="black" points="45.84,-251.42 35.25,-251.8 43.77,-258.11 45.84,-251.42"/>
<text text-anchor="middle" x="238" y="-268.8" font-family="Helvetica,Arial,sans-serif" font-size="14.00">0</text>
</g>
<!-- 4&#45;&gt;2 -->
<g id="edge32" class="edge">
<title>4&#45;&gt;2</title>
<path fill="none" stroke="black" d="M434.39,-306.31C428.25,-309.97 420.94,-314 414,-317 305.42,-364 274.02,-366.81 158,-390 150.21,-391.56 141.75,-393.22 134,-394.74"/>
<polygon fill="black" stroke="black" points="133.15,-391.34 124.01,-396.7 134.49,-398.21 133.15,-391.34"/>
<text text-anchor="middle" x="282" y="-371.8" font-family="Helvetica,Arial,sans-serif" font-size="14.00">2</text>
</g>
<!-- 4&#45;&gt;1 -->
<g id="edge28" class="edge">
<title>4&#45;&gt;1</title>
<path fill="none" stroke="black" d="M461.42,-311.25C475.9,-331.08 500.5,-364.93 502,-368 516.56,-397.8 526.27,-434.81 531.69,-459.57"/>
<polygon fill="black" stroke="black" points="528.27,-460.31 533.76,-469.38 535.12,-458.87 528.27,-460.31"/>
<text text-anchor="middle" x="494" y="-371.8" font-family="Helvetica,Arial,sans-serif" font-size="14.00">0</text>
</g>
<!-- 4&#45;&gt;5 -->
<g id="edge30" class="edge">
<title>4&#45;&gt;5</title>
<path fill="none" stroke="black" d="M467.27,-291.59C478.43,-287.13 492.83,-279.76 502,-269 519.04,-249 528.02,-220.1 532.59,-198.86"/>
<polygon fill="black" stroke="black" points="536.07,-199.32 534.55,-188.83 529.2,-197.98 536.07,-199.32"/>
<text text-anchor="middle" x="494" y="-285.8" font-family="Helvetica,Arial,sans-serif" font-size="14.00">1</text>
</g>
<!-- 4&#45;&gt;7 -->
<g id="edge31" class="edge">
<title>4&#45;&gt;7</title>
<path fill="none" stroke="black" d="M445.25,-279.58C440.06,-257.33 429.55,-217.99 414,-187 407.2,-173.44 397.5,-159.6 389.03,-148.62"/>
<polygon fill="black" stroke="black" points="391.54,-146.16 382.58,-140.5 386.06,-150.51 391.54,-146.16"/>
<text text-anchor="middle" x="410" y="-190.8" font-family="Helvetica,Arial,sans-serif" font-size="14.00">7</text>
</g>
<!-- 7&#45;&gt;3 -->
<g id="edge22" class="edge">
<title>7&#45;&gt;3</title>
<path fill="none" stroke="black" d="M361.17,-111C348.35,-87.39 320.53,-46 283,-46 105,-46 105,-46 105,-46 31.12,-46 19.92,-162.6 18.76,-217.74"/>
<polygon fill="black" stroke="black" points="15.26,-217.86 18.64,-227.9 22.26,-217.94 15.26,-217.86"/>
<text text-anchor="middle" x="194" y="-49.8" font-family="Helvetica,Arial,sans-serif" font-size="14.00">0</text>
</g>
<!-- 7&#45;&gt;5 -->
<g id="edge20" class="edge">
<title>7&#45;&gt;5</title>
<path fill="none" stroke="black" d="M387.52,-131.38C416.21,-138.98 475.47,-154.69 510.14,-163.88"/>
<polygon fill="black" stroke="black" points="509.49,-167.33 520.05,-166.51 511.28,-160.56 509.49,-167.33"/>
<text text-anchor="middle" x="450" y="-155.8" font-family="Helvetica,Arial,sans-serif" font-size="14.00">5</text>
</g>
<!-- 7&#45;&gt;4 -->
<g id="edge23" class="edge">
<title>7&#45;&gt;4</title>
<path fill="none" stroke="black" d="M378.34,-142.99C391.93,-172.61 421.1,-236.2 437.39,-271.71"/>
<polygon fill="black" stroke="black" points="434.27,-273.3 441.62,-280.93 440.64,-270.38 434.27,-273.3"/>
<text text-anchor="middle" x="410" y="-220.8" font-family="Helvetica,Arial,sans-serif" font-size="14.00">0</text>
</g>
<!-- 7&#45;&gt;6 -->
<g id="edge21" class="edge">
<title>7&#45;&gt;6</title>
<path fill="none" stroke="black" d="M353.88,-135.74C347.79,-139.12 340.64,-142.91 334,-146 325.91,-149.77 316.9,-153.46 308.72,-156.62"/>
<polygon fill="black" stroke="black" points="307.41,-153.38 299.29,-160.2 309.89,-159.93 307.41,-153.38"/>
<text text-anchor="middle" x="326" y="-155.8" font-family="Helvetica,Arial,sans-serif" font-size="14.00">0</text>
</g>
<!-- 6&#45;&gt;3 -->
<g id="edge12" class="edge">
<title>6&#45;&gt;3</title>
<path fill="none" stroke="black" d="M264,-166.4C224.77,-167.97 125.75,-175.64 54,-213 47.97,-216.14 42.24,-220.62 37.22,-225.26"/>
<polygon fill="black" stroke="black" points="34.56,-222.98 29.99,-232.54 39.53,-227.92 34.56,-222.98"/>
<text text-anchor="middle" x="150" y="-184.8" font-family="Helvetica,Arial,sans-serif" font-size="14.00">0</text>
</g>
<!-- 6&#45;&gt;7 -->
<g id="edge11" class="edge">
<title>6&#45;&gt;7</title>
<path fill="none" stroke="black" d="M293.3,-151.6C299.53,-144.08 308.17,-135.53 318,-131 325.21,-127.68 333.6,-126.19 341.47,-125.66"/>
<polygon fill="black" stroke="black" points="341.79,-129.15 351.72,-125.44 341.65,-122.15 341.79,-129.15"/>
<text text-anchor="middle" x="326" y="-134.8" font-family="Helvetica,Arial,sans-serif" font-size="14.00">27</text>
</g>
<!-- 6&#45;&gt;0 -->
<g id="edge13" class="edge">
<title>6&#45;&gt;0</title>
<path fill="none" stroke="black" d="M268.35,-178.17C256.81,-189.92 240.07,-208.73 230,-228 213.79,-259.01 204.32,-298.43 199.41,-324.4"/>
<polygon fill="black" stroke="black" points="195.95,-323.85 197.63,-334.31 202.84,-325.08 195.95,-323.85"/>
<text text-anchor="middle" x="238" y="-231.8" font-family="Helvetica,Arial,sans-serif" font-size="14.00">0</text>
</g>
<!-- 0&#45;&gt;2 -->
<g id="edge14" class="edge">
<title>0&#45;&gt;2</title>
<path fill="none" stroke="black" d="M176.98,-358.27C166.73,-362.51 153.28,-368.51 142,-375 137.62,-377.52 133.11,-380.46 128.84,-383.41"/>
<polygon fill="black" stroke="black" points="126.62,-380.69 120.55,-389.38 130.71,-386.38 126.62,-380.69"/>
<text text-anchor="middle" x="150" y="-378.8" font-family="Helvetica,Arial,sans-serif" font-size="14.00">1</text>
</g>
<!-- 0&#45;&gt;1 -->
<g id="edge15" class="edge">
<title>0&#45;&gt;1</title>
<path fill="none" stroke="black" d="M203.66,-367.21C209.88,-376.92 219.08,-389.13 230,-397 243,-406.37 248.73,-404.13 264,-409 353.69,-437.61 461.5,-466.94 510.47,-480"/>
<polygon fill="black" stroke="black" points="509.71,-483.42 520.27,-482.6 511.51,-476.65 509.71,-483.42"/>
<text text-anchor="middle" x="370" y="-448.8" font-family="Helvetica,Arial,sans-serif" font-size="14.00">33</text>
</g>
<!-- 0&#45;&gt;6 -->
<g id="edge16" class="edge">
<title>0&#45;&gt;6</title>
<path fill="none" stroke="black" d="M211.01,-345.9C222.66,-340.6 237.76,-331.76 246,-319 275.01,-274.06 247.84,-250.99 264,-200 265.02,-196.79 266.3,-193.51 267.71,-190.32"/>
<polygon fill="black" stroke="black" points="270.95,-191.67 272.15,-181.14 264.65,-188.62 270.95,-191.67"/>
<text text-anchor="middle" x="238" y="-337.8" font-family="Helvetica,Arial,sans-serif" font-size="14.00">2</text>
</g>
</g>
</svg>
