<?xml version="1.0" encoding="UTF-8" standalone="no"?>
<!DOCTYPE svg PUBLIC "-//W3C//DTD SVG 1.1//EN"
 "http://www.w3.org/Graphics/SVG/1.1/DTD/svg11.dtd">
<!-- Generated by graphviz version 2.43.0 (0)
 -->
<!-- Title: finite_state_machine Pages: 1 -->
<svg width="836pt" height="451pt"
 viewBox="0.00 0.00 836.00 451.10" xmlns="http://www.w3.org/2000/svg" xmlns:xlink="http://www.w3.org/1999/xlink">
<g id="graph0" class="graph" transform="scale(1 1) rotate(0) translate(4 447.1)">
<title>finite_state_machine</title>
<polygon fill="white" stroke="transparent" points="-4,4 -4,-447.1 832,-447.1 832,4 -4,4"/>
<!-- 8 -->
<g id="node1" class="node">
<title>8</title>
<ellipse fill="none" stroke="black" cx="18" cy="-144.1" rx="18" ry="18"/>
<text text-anchor="middle" x="18" y="-140.4" font-family="Helvetica,Arial,sans-serif" font-size="14.00">8</text>
</g>
<!-- 0 -->
<g id="node2" class="node">
<title>0</title>
<ellipse fill="none" stroke="black" cx="113" cy="-144.1" rx="18" ry="18"/>
<text text-anchor="middle" x="113" y="-140.4" font-family="Helvetica,Arial,sans-serif" font-size="14.00">0</text>
</g>
<!-- 8&#45;&gt;0 -->
<g id="edge1" class="edge">
<title>8&#45;&gt;0</title>
<path fill="none" stroke="black" d="M36.06,-144.1C49.61,-144.1 68.82,-144.1 84.53,-144.1"/>
<polygon fill="black" stroke="black" points="84.74,-147.6 94.74,-144.1 84.74,-140.6 84.74,-147.6"/>
<text text-anchor="middle" x="65.5" y="-147.9" font-family="Helvetica,Arial,sans-serif" font-size="14.00">0</text>
</g>
<!-- 0&#45;&gt;8 -->
<g id="edge22" class="edge">
<title>0&#45;&gt;8</title>
<path fill="none" stroke="black" d="M97.69,-134.24C91.6,-130.61 84.24,-126.94 77,-125.1 67.09,-122.59 63.91,-122.59 54,-125.1 50.04,-126.11 46.05,-127.66 42.24,-129.45"/>
<polygon fill="black" stroke="black" points="40.48,-126.43 33.31,-134.24 43.78,-132.6 40.48,-126.43"/>
<text text-anchor="middle" x="65.5" y="-128.9" font-family="Helvetica,Arial,sans-serif" font-size="14.00">464</text>
</g>
<!-- 5 -->
<g id="node4" class="node">
<title>5</title>
<ellipse fill="none" stroke="black" cx="406" cy="-94.1" rx="18" ry="18"/>
<text text-anchor="middle" x="406" y="-90.4" font-family="Helvetica,Arial,sans-serif" font-size="14.00">5</text>
</g>
<!-- 0&#45;&gt;5 -->
<g id="edge24" class="edge">
<title>0&#45;&gt;5</title>
<path fill="none" stroke="black" d="M123.15,-128.68C129.33,-119.59 138.3,-108.63 149,-102.1 189.04,-77.67 205.38,-84.24 252,-79.1 296.14,-74.23 347.53,-82.03 378.11,-88.08"/>
<polygon fill="black" stroke="black" points="377.5,-91.53 388.01,-90.13 378.92,-84.68 377.5,-91.53"/>
<text text-anchor="middle" x="263.5" y="-82.9" font-family="Helvetica,Arial,sans-serif" font-size="14.00">0</text>
</g>
<!-- 7 -->
<g id="node9" class="node">
<title>7</title>
<ellipse fill="none" stroke="black" cx="216" cy="-236.1" rx="18" ry="18"/>
<text text-anchor="middle" x="216" y="-232.4" font-family="Helvetica,Arial,sans-serif" font-size="14.00">7</text>
</g>
<!-- 0&#45;&gt;7 -->
<g id="edge23" class="edge">
<title>0&#45;&gt;7</title>
<path fill="none" stroke="black" d="M130.58,-148.14C145.03,-152.37 165.84,-160.21 180,-173.1 191.02,-183.14 199.36,-197.48 205.14,-209.95"/>
<polygon fill="black" stroke="black" points="202.05,-211.62 209.21,-219.42 208.48,-208.85 202.05,-211.62"/>
<text text-anchor="middle" x="164.5" y="-176.9" font-family="Helvetica,Arial,sans-serif" font-size="14.00">0</text>
</g>
<!-- 2 -->
<g id="node3" class="node">
<title>2</title>
<ellipse fill="none" stroke="black" cx="612" cy="-57.1" rx="18" ry="18"/>
<text text-anchor="middle" x="612" y="-53.4" font-family="Helvetica,Arial,sans-serif" font-size="14.00">2</text>
</g>
<!-- 2&#45;&gt;5 -->
<g id="edge2" class="edge">
<title>2&#45;&gt;5</title>
<path fill="none" stroke="black" d="M598.75,-44.68C592.34,-38.6 584.14,-31.45 576,-26.1 543.3,-4.59 529.2,5.42 491,-3.1 467.52,-8.34 459.32,-9.4 442,-26.1 430.16,-37.52 421.58,-53.82 415.88,-67.6"/>
<polygon fill="black" stroke="black" points="412.55,-66.49 412.23,-77.08 419.09,-69 412.55,-66.49"/>
<text text-anchor="middle" x="509" y="-6.9" font-family="Helvetica,Arial,sans-serif" font-size="14.00">0</text>
</g>
<!-- 4 -->
<g id="node5" class="node">
<title>4</title>
<ellipse fill="none" stroke="black" cx="509" cy="-121.1" rx="18" ry="18"/>
<text text-anchor="middle" x="509" y="-117.4" font-family="Helvetica,Arial,sans-serif" font-size="14.00">4</text>
</g>
<!-- 2&#45;&gt;4 -->
<g id="edge3" class="edge">
<title>2&#45;&gt;4</title>
<path fill="none" stroke="black" d="M594,-58.34C579.86,-60.07 559.73,-64.21 545,-74.1 536.44,-79.85 529.17,-88.41 523.52,-96.66"/>
<polygon fill="black" stroke="black" points="520.41,-95.02 518.02,-105.34 526.33,-98.76 520.41,-95.02"/>
<text text-anchor="middle" x="560.5" y="-77.9" font-family="Helvetica,Arial,sans-serif" font-size="14.00">0</text>
</g>
<!-- 5&#45;&gt;0 -->
<g id="edge28" class="edge">
<title>5&#45;&gt;0</title>
<path fill="none" stroke="black" d="M388.05,-97.01C339.57,-105.34 200.06,-129.32 140.96,-139.47"/>
<polygon fill="black" stroke="black" points="140.17,-136.05 130.9,-141.2 141.35,-142.95 140.17,-136.05"/>
<text text-anchor="middle" x="263.5" y="-124.9" font-family="Helvetica,Arial,sans-serif" font-size="14.00">343</text>
</g>
<!-- 5&#45;&gt;2 -->
<g id="edge25" class="edge">
<title>5&#45;&gt;2</title>
<path fill="none" stroke="black" d="M421.96,-85.73C428.03,-82.63 435.2,-79.34 442,-77.1 486.23,-62.58 498.68,-62.69 545,-58.1 557.66,-56.85 571.75,-56.49 583.65,-56.49"/>
<polygon fill="black" stroke="black" points="583.83,-59.99 593.86,-56.58 583.89,-52.99 583.83,-59.99"/>
<text text-anchor="middle" x="509" y="-67.9" font-family="Helvetica,Arial,sans-serif" font-size="14.00">1054</text>
</g>
<!-- 5&#45;&gt;4 -->
<g id="edge26" class="edge">
<title>5&#45;&gt;4</title>
<path fill="none" stroke="black" d="M423.68,-98.56C439.39,-102.76 463.2,-109.13 481.51,-114.02"/>
<polygon fill="black" stroke="black" points="480.73,-117.43 491.3,-116.64 482.54,-110.67 480.73,-117.43"/>
<text text-anchor="middle" x="457.5" y="-115.9" font-family="Helvetica,Arial,sans-serif" font-size="14.00">0</text>
</g>
<!-- 1 -->
<g id="node10" class="node">
<title>1</title>
<ellipse fill="none" stroke="black" cx="311" cy="-236.1" rx="18" ry="18"/>
<text text-anchor="middle" x="311" y="-232.4" font-family="Helvetica,Arial,sans-serif" font-size="14.00">1</text>
</g>
<!-- 5&#45;&gt;1 -->
<g id="edge27" class="edge">
<title>5&#45;&gt;1</title>
<path fill="none" stroke="black" d="M392.55,-106.22C385.95,-112.55 377.64,-120.36 370,-127.1 360.06,-135.88 354.76,-135.35 347,-146.1 333.33,-165.02 324.18,-189.98 318.67,-208.81"/>
<polygon fill="black" stroke="black" points="315.27,-208 315.98,-218.57 322.01,-209.86 315.27,-208"/>
<text text-anchor="middle" x="358.5" y="-149.9" font-family="Helvetica,Arial,sans-serif" font-size="14.00">0</text>
</g>
<!-- 4&#45;&gt;2 -->
<g id="edge4" class="edge">
<title>4&#45;&gt;2</title>
<path fill="none" stroke="black" d="M526.17,-114.82C539.98,-109.09 560.09,-99.9 576,-89.1 581.24,-85.55 586.49,-81.24 591.27,-76.96"/>
<polygon fill="black" stroke="black" points="593.89,-79.3 598.78,-69.9 589.1,-74.19 593.89,-79.3"/>
<text text-anchor="middle" x="560.5" y="-109.9" font-family="Helvetica,Arial,sans-serif" font-size="14.00">1364</text>
</g>
<!-- 4&#45;&gt;5 -->
<g id="edge5" class="edge">
<title>4&#45;&gt;5</title>
<path fill="none" stroke="black" d="M498.58,-106.34C492.42,-98.12 483.56,-88.65 473,-84.1 460.36,-78.66 445.25,-80.42 432.67,-83.87"/>
<polygon fill="black" stroke="black" points="431.26,-80.64 422.82,-87.04 433.41,-87.31 431.26,-80.64"/>
<text text-anchor="middle" x="457.5" y="-87.9" font-family="Helvetica,Arial,sans-serif" font-size="14.00">1106</text>
</g>
<!-- 9 -->
<g id="node6" class="node">
<title>9</title>
<ellipse fill="none" stroke="black" cx="612" cy="-215.1" rx="18" ry="18"/>
<text text-anchor="middle" x="612" y="-211.4" font-family="Helvetica,Arial,sans-serif" font-size="14.00">9</text>
</g>
<!-- 4&#45;&gt;9 -->
<g id="edge6" class="edge">
<title>4&#45;&gt;9</title>
<path fill="none" stroke="black" d="M520.16,-135.77C526.72,-144.73 535.74,-156.15 545,-165.1 557.33,-177.03 562.32,-177.75 576,-188.1 580.33,-191.37 584.93,-194.9 589.33,-198.29"/>
<polygon fill="black" stroke="black" points="587.36,-201.19 597.42,-204.53 591.64,-195.65 587.36,-201.19"/>
<text text-anchor="middle" x="560.5" y="-191.9" font-family="Helvetica,Arial,sans-serif" font-size="14.00">0</text>
</g>
<!-- 9&#45;&gt;4 -->
<g id="edge15" class="edge">
<title>9&#45;&gt;4</title>
<path fill="none" stroke="black" d="M606.19,-197.85C601.05,-182.37 591.49,-160.01 576,-146.1 565.07,-136.28 549.89,-130.18 536.85,-126.46"/>
<polygon fill="black" stroke="black" points="537.52,-123.02 526.97,-123.97 535.81,-129.81 537.52,-123.02"/>
<text text-anchor="middle" x="560.5" y="-149.9" font-family="Helvetica,Arial,sans-serif" font-size="14.00">766</text>
</g>
<!-- 3 -->
<g id="node7" class="node">
<title>3</title>
<ellipse fill="none" stroke="black" cx="715" cy="-236.1" rx="18" ry="18"/>
<text text-anchor="middle" x="715" y="-232.4" font-family="Helvetica,Arial,sans-serif" font-size="14.00">3</text>
</g>
<!-- 9&#45;&gt;3 -->
<g id="edge16" class="edge">
<title>9&#45;&gt;3</title>
<path fill="none" stroke="black" d="M629.19,-221.39C635.04,-223.46 641.75,-225.62 648,-227.1 660.58,-230.09 674.75,-232.18 686.74,-233.59"/>
<polygon fill="black" stroke="black" points="686.7,-237.11 697.01,-234.7 687.45,-230.15 686.7,-237.11"/>
<text text-anchor="middle" x="663.5" y="-235.9" font-family="Helvetica,Arial,sans-serif" font-size="14.00">1053</text>
</g>
<!-- 9&#45;&gt;1 -->
<g id="edge17" class="edge">
<title>9&#45;&gt;1</title>
<path fill="none" stroke="black" d="M593.69,-214.73C563.06,-214.21 497.29,-213.8 442,-218.1 406.06,-220.9 364.9,-227.11 338.69,-231.45"/>
<polygon fill="black" stroke="black" points="338.04,-228.01 328.76,-233.13 339.2,-234.91 338.04,-228.01"/>
<text text-anchor="middle" x="457.5" y="-221.9" font-family="Helvetica,Arial,sans-serif" font-size="14.00">0</text>
</g>
<!-- 3&#45;&gt;9 -->
<g id="edge8" class="edge">
<title>3&#45;&gt;9</title>
<path fill="none" stroke="black" d="M701.05,-224.44C694.84,-219.62 687.02,-214.59 679,-212.1 666.46,-208.21 651.94,-208.4 639.71,-209.8"/>
<polygon fill="black" stroke="black" points="639.06,-206.36 629.67,-211.27 640.07,-213.29 639.06,-206.36"/>
<text text-anchor="middle" x="663.5" y="-215.9" font-family="Helvetica,Arial,sans-serif" font-size="14.00">0</text>
</g>
<!-- 6 -->
<g id="node8" class="node">
<title>6</title>
<ellipse fill="none" stroke="black" cx="810" cy="-312.1" rx="18" ry="18"/>
<text text-anchor="middle" x="810" y="-308.4" font-family="Helvetica,Arial,sans-serif" font-size="14.00">6</text>
</g>
<!-- 3&#45;&gt;6 -->
<g id="edge7" class="edge">
<title>3&#45;&gt;6</title>
<path fill="none" stroke="black" d="M732.23,-241.47C744.6,-246.11 761.55,-253.72 774,-264.1 782.11,-270.87 789.33,-279.9 795.08,-288.31"/>
<polygon fill="black" stroke="black" points="792.15,-290.22 800.51,-296.72 798.03,-286.42 792.15,-290.22"/>
<text text-anchor="middle" x="762.5" y="-267.9" font-family="Helvetica,Arial,sans-serif" font-size="14.00">433</text>
</g>
<!-- 6&#45;&gt;3 -->
<g id="edge10" class="edge">
<title>6&#45;&gt;3</title>
<path fill="none" stroke="black" d="M807.01,-294.07C803.79,-274.54 795.44,-244.26 774,-230.1 764.59,-223.89 752.39,-224.22 741.6,-226.57"/>
<polygon fill="black" stroke="black" points="740.52,-223.24 731.84,-229.3 742.41,-229.98 740.52,-223.24"/>
<text text-anchor="middle" x="762.5" y="-233.9" font-family="Helvetica,Arial,sans-serif" font-size="14.00">0</text>
</g>
<!-- 6&#45;&gt;7 -->
<g id="edge9" class="edge">
<title>6&#45;&gt;7</title>
<path fill="none" stroke="black" d="M798.39,-326.21C782.68,-345.32 751.26,-377.1 716,-377.1 310,-377.1 310,-377.1 310,-377.1 256.18,-377.1 231.73,-304.64 222.2,-263.61"/>
<polygon fill="black" stroke="black" points="225.59,-262.7 220.04,-253.67 218.75,-264.19 225.59,-262.7"/>
<text text-anchor="middle" x="509" y="-380.9" font-family="Helvetica,Arial,sans-serif" font-size="14.00">0</text>
</g>
<!-- 6&#45;&gt;1 -->
<g id="edge11" class="edge">
<title>6&#45;&gt;1</title>
<path fill="none" stroke="black" d="M792.74,-306.71C774.34,-301.09 743.36,-293.1 716,-293.1 405,-293.1 405,-293.1 405,-293.1 375.93,-293.1 348.29,-272.61 330.81,-256.2"/>
<polygon fill="black" stroke="black" points="333.11,-253.55 323.53,-249.04 328.2,-258.54 333.11,-253.55"/>
<text text-anchor="middle" x="560.5" y="-296.9" font-family="Helvetica,Arial,sans-serif" font-size="14.00">0</text>
</g>
<!-- 7&#45;&gt;0 -->
<g id="edge12" class="edge">
<title>7&#45;&gt;0</title>
<path fill="none" stroke="black" d="M199.75,-228.01C185.62,-220.06 164.51,-206.97 149,-192.1 141.56,-184.97 134.6,-176.1 128.88,-167.93"/>
<polygon fill="black" stroke="black" points="131.67,-165.81 123.19,-159.46 125.86,-169.71 131.67,-165.81"/>
<text text-anchor="middle" x="164.5" y="-218.9" font-family="Helvetica,Arial,sans-serif" font-size="14.00">1435</text>
</g>
<!-- 7&#45;&gt;6 -->
<g id="edge13" class="edge">
<title>7&#45;&gt;6</title>
<path fill="none" stroke="black" d="M217.47,-254.16C219.78,-301.96 233.15,-428.1 310,-428.1 310,-428.1 310,-428.1 716,-428.1 761.38,-428.1 788.29,-373.39 800.7,-339.12"/>
<polygon fill="black" stroke="black" points="804.16,-339.81 804.09,-329.22 797.54,-337.54 804.16,-339.81"/>
<text text-anchor="middle" x="509" y="-431.9" font-family="Helvetica,Arial,sans-serif" font-size="14.00">837</text>
</g>
<!-- 7&#45;&gt;1 -->
<g id="edge14" class="edge">
<title>7&#45;&gt;1</title>
<path fill="none" stroke="black" d="M234.06,-236.1C247.61,-236.1 266.82,-236.1 282.53,-236.1"/>
<polygon fill="black" stroke="black" points="282.74,-239.6 292.74,-236.1 282.74,-232.6 282.74,-239.6"/>
<text text-anchor="middle" x="263.5" y="-239.9" font-family="Helvetica,Arial,sans-serif" font-size="14.00">0</text>
</g>
<!-- 1&#45;&gt;5 -->
<g id="edge19" class="edge">
<title>1&#45;&gt;5</title>
<path fill="none" stroke="black" d="M321.85,-221.37C328.57,-211.64 337.88,-198.76 347,-188.1 356.4,-177.12 361.58,-176.85 370,-165.1 379.92,-151.26 388.44,-134.18 394.58,-120.24"/>
<polygon fill="black" stroke="black" points="397.93,-121.31 398.63,-110.74 391.49,-118.57 397.93,-121.31"/>
<text text-anchor="middle" x="358.5" y="-191.9" font-family="Helvetica,Arial,sans-serif" font-size="14.00">879</text>
</g>
<!-- 1&#45;&gt;9 -->
<g id="edge21" class="edge">
<title>1&#45;&gt;9</title>
<path fill="none" stroke="black" d="M329.04,-239.03C334.73,-239.88 341.12,-240.68 347,-241.1 357.2,-241.83 359.78,-241.42 370,-241.1 461.69,-238.21 486.26,-247.16 576,-228.1 579.23,-227.41 582.57,-226.49 585.83,-225.44"/>
<polygon fill="black" stroke="black" points="587.03,-228.73 595.26,-222.06 584.67,-222.14 587.03,-228.73"/>
<text text-anchor="middle" x="457.5" y="-243.9" font-family="Helvetica,Arial,sans-serif" font-size="14.00">524</text>
</g>
<!-- 1&#45;&gt;6 -->
<g id="edge18" class="edge">
<title>1&#45;&gt;6</title>
<path fill="none" stroke="black" d="M319.01,-252.65C331.79,-279.87 361.61,-331.1 405,-331.1 405,-331.1 405,-331.1 716,-331.1 738.97,-331.1 764.51,-325.47 783,-320.33"/>
<polygon fill="black" stroke="black" points="784.12,-323.65 792.74,-317.5 782.16,-316.93 784.12,-323.65"/>
<text text-anchor="middle" x="560.5" y="-334.9" font-family="Helvetica,Arial,sans-serif" font-size="14.00">954</text>
</g>
<!-- 1&#45;&gt;7 -->
<g id="edge20" class="edge">
<title>1&#45;&gt;7</title>
<path fill="none" stroke="black" d="M295.69,-226.24C289.6,-222.61 282.24,-218.94 275,-217.1 265.09,-214.59 261.91,-214.59 252,-217.1 248.04,-218.11 244.05,-219.66 240.24,-221.45"/>
<polygon fill="black" stroke="black" points="238.48,-218.43 231.31,-226.24 241.78,-224.6 238.48,-218.43"/>
<text text-anchor="middle" x="263.5" y="-220.9" font-family="Helvetica,Arial,sans-serif" font-size="14.00">811</text>
</g>
</g>
</svg>
