<?xml version="1.0" encoding="UTF-8" standalone="no"?>
<!DOCTYPE svg PUBLIC "-//W3C//DTD SVG 1.1//EN"
 "http://www.w3.org/Graphics/SVG/1.1/DTD/svg11.dtd">
<!-- Generated by graphviz version 2.43.0 (0)
 -->
<!-- Title: finite_state_machine Pages: 1 -->
<svg width="587pt" height="351pt"
 viewBox="0.00 0.00 587.19 351.00" xmlns="http://www.w3.org/2000/svg" xmlns:xlink="http://www.w3.org/1999/xlink">
<g id="graph0" class="graph" transform="scale(1 1) rotate(0) translate(4 347)">
<title>finite_state_machine</title>
<polygon fill="white" stroke="transparent" points="-4,4 -4,-347 583.19,-347 583.19,4 -4,4"/>
<!-- 0 -->
<g id="node1" class="node">
<title>0</title>
<ellipse fill="none" stroke="black" cx="18" cy="-156" rx="18" ry="18"/>
<text text-anchor="middle" x="18" y="-152.3" font-family="Helvetica,Arial,sans-serif" font-size="14.00">0</text>
</g>
<!-- 1 -->
<g id="node2" class="node">
<title>1</title>
<ellipse fill="none" stroke="black" cx="124" cy="-223" rx="18" ry="18"/>
<text text-anchor="middle" x="124" y="-219.3" font-family="Helvetica,Arial,sans-serif" font-size="14.00">1</text>
</g>
<!-- 0&#45;&gt;1 -->
<g id="edge1" class="edge">
<title>0&#45;&gt;1</title>
<path fill="none" stroke="black" d="M33.46,-165.32C50.59,-176.35 79.37,-194.89 99.67,-207.97"/>
<polygon fill="black" stroke="black" points="98.02,-211.07 108.33,-213.55 101.82,-205.19 98.02,-211.07"/>
<text text-anchor="middle" x="71" y="-202.8" font-family="Helvetica,Arial,sans-serif" font-size="14.00">30/30</text>
</g>
<!-- 2 -->
<g id="node3" class="node">
<title>2</title>
<ellipse fill="none" stroke="black" cx="124" cy="-102" rx="18" ry="18"/>
<text text-anchor="middle" x="124" y="-98.3" font-family="Helvetica,Arial,sans-serif" font-size="14.00">2</text>
</g>
<!-- 0&#45;&gt;2 -->
<g id="edge2" class="edge">
<title>0&#45;&gt;2</title>
<path fill="none" stroke="black" d="M31.5,-143.84C37.85,-138.15 45.92,-131.62 54,-127 67.26,-119.41 83.24,-113.44 96.48,-109.25"/>
<polygon fill="black" stroke="black" points="97.84,-112.49 106.41,-106.26 95.83,-105.79 97.84,-112.49"/>
<text text-anchor="middle" x="71" y="-130.8" font-family="Helvetica,Arial,sans-serif" font-size="14.00">40/40</text>
</g>
<!-- 3 -->
<g id="node4" class="node">
<title>3</title>
<ellipse fill="none" stroke="black" cx="178" cy="-324" rx="18" ry="18"/>
<text text-anchor="middle" x="178" y="-320.3" font-family="Helvetica,Arial,sans-serif" font-size="14.00">3</text>
</g>
<!-- 0&#45;&gt;3 -->
<g id="edge3" class="edge">
<title>0&#45;&gt;3</title>
<path fill="none" stroke="black" d="M26.24,-172.24C32.52,-185.34 42.4,-203.85 54,-218 84.19,-254.82 128.08,-289.2 154.46,-308.33"/>
<polygon fill="black" stroke="black" points="152.52,-311.24 162.69,-314.21 156.59,-305.55 152.52,-311.24"/>
<text text-anchor="middle" x="71" y="-255.8" font-family="Helvetica,Arial,sans-serif" font-size="14.00">50/50</text>
</g>
<!-- 9 -->
<g id="node5" class="node">
<title>9</title>
<ellipse fill="none" stroke="black" cx="232" cy="-18" rx="18" ry="18"/>
<text text-anchor="middle" x="232" y="-14.3" font-family="Helvetica,Arial,sans-serif" font-size="14.00">9</text>
</g>
<!-- 0&#45;&gt;9 -->
<g id="edge4" class="edge">
<title>0&#45;&gt;9</title>
<path fill="none" stroke="black" d="M28.27,-141.14C42.37,-119.82 71.27,-80.81 106,-60 137.24,-41.28 177.92,-29.61 204.25,-23.45"/>
<polygon fill="black" stroke="black" points="205.26,-26.81 214.25,-21.22 203.73,-19.98 205.26,-26.81"/>
<text text-anchor="middle" x="124" y="-63.8" font-family="Helvetica,Arial,sans-serif" font-size="14.00">60/60</text>
</g>
<!-- 8 -->
<g id="node6" class="node">
<title>8</title>
<ellipse fill="none" stroke="black" cx="232" cy="-177" rx="18" ry="18"/>
<text text-anchor="middle" x="232" y="-173.3" font-family="Helvetica,Arial,sans-serif" font-size="14.00">8</text>
</g>
<!-- 0&#45;&gt;8 -->
<g id="edge5" class="edge">
<title>0&#45;&gt;8</title>
<path fill="none" stroke="black" d="M35.99,-157.68C72.66,-161.32 159.49,-169.92 203.87,-174.31"/>
<polygon fill="black" stroke="black" points="203.63,-177.81 213.93,-175.31 204.32,-170.84 203.63,-177.81"/>
<text text-anchor="middle" x="124" y="-171.8" font-family="Helvetica,Arial,sans-serif" font-size="14.00">35/35</text>
</g>
<!-- 1&#45;&gt;8 -->
<g id="edge12" class="edge">
<title>1&#45;&gt;8</title>
<path fill="none" stroke="black" d="M141.26,-217.11C155.78,-211.73 177.53,-203.36 196,-195 199.5,-193.41 203.16,-191.65 206.73,-189.87"/>
<polygon fill="black" stroke="black" points="208.52,-192.89 215.83,-185.22 205.33,-186.66 208.52,-192.89"/>
<text text-anchor="middle" x="178" y="-212.8" font-family="Helvetica,Arial,sans-serif" font-size="14.00">10/45</text>
</g>
<!-- 7 -->
<g id="node11" class="node">
<title>7</title>
<ellipse fill="none" stroke="black" cx="340.8" cy="-89" rx="18" ry="18"/>
<text text-anchor="middle" x="340.8" y="-85.3" font-family="Helvetica,Arial,sans-serif" font-size="14.00">7</text>
</g>
<!-- 1&#45;&gt;7 -->
<g id="edge13" class="edge">
<title>1&#45;&gt;7</title>
<path fill="none" stroke="black" d="M135.66,-209.24C151.07,-190.17 181.34,-155.71 214,-135 218.4,-132.21 278.35,-110.76 313.87,-98.16"/>
<polygon fill="black" stroke="black" points="315.35,-101.35 323.6,-94.72 313.01,-94.75 315.35,-101.35"/>
<text text-anchor="middle" x="232" y="-138.8" font-family="Helvetica,Arial,sans-serif" font-size="14.00">10/20</text>
</g>
<!-- 4 -->
<g id="node12" class="node">
<title>4</title>
<ellipse fill="none" stroke="black" cx="232" cy="-282" rx="18" ry="18"/>
<text text-anchor="middle" x="232" y="-278.3" font-family="Helvetica,Arial,sans-serif" font-size="14.00">4</text>
</g>
<!-- 1&#45;&gt;4 -->
<g id="edge14" class="edge">
<title>1&#45;&gt;4</title>
<path fill="none" stroke="black" d="M140.19,-231.45C157.66,-241.18 186.58,-257.27 207.08,-268.69"/>
<polygon fill="black" stroke="black" points="205.4,-271.76 215.84,-273.56 208.81,-265.64 205.4,-271.76"/>
<text text-anchor="middle" x="178" y="-264.8" font-family="Helvetica,Arial,sans-serif" font-size="14.00">10/55</text>
</g>
<!-- 2&#45;&gt;8 -->
<g id="edge6" class="edge">
<title>2&#45;&gt;8</title>
<path fill="none" stroke="black" d="M141.9,-104.88C157.24,-108.17 179.87,-114.75 196,-127 204.86,-133.73 212.34,-143.35 218.08,-152.36"/>
<polygon fill="black" stroke="black" points="215.12,-154.22 223.23,-161.03 221.14,-150.64 215.12,-154.22"/>
<text text-anchor="middle" x="178" y="-130.8" font-family="Helvetica,Arial,sans-serif" font-size="14.00">20/25</text>
</g>
<!-- 5 -->
<g id="node7" class="node">
<title>5</title>
<ellipse fill="none" stroke="black" cx="232" cy="-72" rx="18" ry="18"/>
<text text-anchor="middle" x="232" y="-68.3" font-family="Helvetica,Arial,sans-serif" font-size="14.00">5</text>
</g>
<!-- 2&#45;&gt;5 -->
<g id="edge7" class="edge">
<title>2&#45;&gt;5</title>
<path fill="none" stroke="black" d="M138.48,-90.93C144.66,-86.46 152.32,-81.71 160,-79 173.91,-74.08 190.26,-72.22 203.75,-71.65"/>
<polygon fill="black" stroke="black" points="203.94,-75.14 213.86,-71.42 203.79,-68.14 203.94,-75.14"/>
<text text-anchor="middle" x="178" y="-82.8" font-family="Helvetica,Arial,sans-serif" font-size="14.00">15/30</text>
</g>
<!-- 10 -->
<g id="node8" class="node">
<title>10</title>
<ellipse fill="none" stroke="black" cx="340.8" cy="-249" rx="20.6" ry="20.6"/>
<text text-anchor="middle" x="340.8" y="-245.3" font-family="Helvetica,Arial,sans-serif" font-size="14.00">10</text>
</g>
<!-- 2&#45;&gt;10 -->
<g id="edge8" class="edge">
<title>2&#45;&gt;10</title>
<path fill="none" stroke="black" d="M134.29,-117.11C148.69,-139.3 178.47,-180.61 214,-204 243.93,-223.71 283.55,-236.02 310.26,-242.68"/>
<polygon fill="black" stroke="black" points="309.63,-246.13 320.17,-245.04 311.25,-239.32 309.63,-246.13"/>
<text text-anchor="middle" x="232" y="-225.8" font-family="Helvetica,Arial,sans-serif" font-size="14.00">5/60</text>
</g>
<!-- 11 -->
<g id="node9" class="node">
<title>11</title>
<ellipse fill="none" stroke="black" cx="558.39" cy="-200" rx="20.6" ry="20.6"/>
<text text-anchor="middle" x="558.39" y="-196.3" font-family="Helvetica,Arial,sans-serif" font-size="14.00">11</text>
</g>
<!-- 3&#45;&gt;11 -->
<g id="edge9" class="edge">
<title>3&#45;&gt;11</title>
<path fill="none" stroke="black" d="M196.09,-325.05C216.86,-326.24 252.99,-328 284,-328 284,-328 284,-328 450.6,-328 501.74,-328 533.16,-267.01 547.72,-229.23"/>
<polygon fill="black" stroke="black" points="551.05,-230.31 551.22,-219.72 544.49,-227.89 551.05,-230.31"/>
<text text-anchor="middle" x="340.8" y="-331.8" font-family="Helvetica,Arial,sans-serif" font-size="14.00">50/70</text>
</g>
<!-- 6 -->
<g id="node10" class="node">
<title>6</title>
<ellipse fill="none" stroke="black" cx="449.6" cy="-78" rx="18" ry="18"/>
<text text-anchor="middle" x="449.6" y="-74.3" font-family="Helvetica,Arial,sans-serif" font-size="14.00">6</text>
</g>
<!-- 9&#45;&gt;6 -->
<g id="edge10" class="edge">
<title>9&#45;&gt;6</title>
<path fill="none" stroke="black" d="M249.81,-21.12C274.53,-25.86 322.03,-35.53 361.6,-47 382.58,-53.08 405.87,-61.47 423.07,-67.99"/>
<polygon fill="black" stroke="black" points="421.84,-71.27 432.43,-71.58 424.35,-64.73 421.84,-71.27"/>
<text text-anchor="middle" x="340.8" y="-50.8" font-family="Helvetica,Arial,sans-serif" font-size="14.00">35/35</text>
</g>
<!-- 9&#45;&gt;7 -->
<g id="edge11" class="edge">
<title>9&#45;&gt;7</title>
<path fill="none" stroke="black" d="M248.17,-26.23C262.4,-34.14 284.1,-46.66 302,-59 307.52,-62.81 313.29,-67.17 318.6,-71.36"/>
<polygon fill="black" stroke="black" points="316.51,-74.17 326.49,-77.71 320.9,-68.71 316.51,-74.17"/>
<text text-anchor="middle" x="285" y="-62.8" font-family="Helvetica,Arial,sans-serif" font-size="14.00">25/50</text>
</g>
<!-- 8&#45;&gt;11 -->
<g id="edge18" class="edge">
<title>8&#45;&gt;11</title>
<path fill="none" stroke="black" d="M249.98,-178.2C302.1,-181.9 460.23,-193.11 527.06,-197.85"/>
<polygon fill="black" stroke="black" points="527.11,-201.36 537.34,-198.58 527.61,-194.38 527.11,-201.36"/>
<text text-anchor="middle" x="396.6" y="-193.8" font-family="Helvetica,Arial,sans-serif" font-size="14.00">55/55</text>
</g>
<!-- 8&#45;&gt;6 -->
<g id="edge17" class="edge">
<title>8&#45;&gt;6</title>
<path fill="none" stroke="black" d="M249.33,-171.96C281.79,-161.61 356.24,-136.2 413.6,-104 418.06,-101.49 422.62,-98.49 426.9,-95.44"/>
<polygon fill="black" stroke="black" points="429.28,-98.02 435.18,-89.23 425.08,-92.42 429.28,-98.02"/>
<text text-anchor="middle" x="340.8" y="-150.8" font-family="Helvetica,Arial,sans-serif" font-size="14.00">10/30</text>
</g>
<!-- 5&#45;&gt;7 -->
<g id="edge21" class="edge">
<title>5&#45;&gt;7</title>
<path fill="none" stroke="black" d="M250.16,-74.73C267.05,-77.42 293.11,-81.57 312.78,-84.7"/>
<polygon fill="black" stroke="black" points="312.26,-88.16 322.68,-86.28 313.36,-81.25 312.26,-88.16"/>
<text text-anchor="middle" x="285" y="-86.8" font-family="Helvetica,Arial,sans-serif" font-size="14.00">15/20</text>
</g>
<!-- 10&#45;&gt;11 -->
<g id="edge19" class="edge">
<title>10&#45;&gt;11</title>
<path fill="none" stroke="black" d="M361.51,-246.18C394.57,-241.21 463.12,-229.91 519.6,-214 522.76,-213.11 526.04,-212.07 529.28,-210.97"/>
<polygon fill="black" stroke="black" points="530.52,-214.25 538.75,-207.58 528.15,-207.66 530.52,-214.25"/>
<text text-anchor="middle" x="449.6" y="-236.8" font-family="Helvetica,Arial,sans-serif" font-size="14.00">15/15</text>
</g>
<!-- 6&#45;&gt;11 -->
<g id="edge20" class="edge">
<title>6&#45;&gt;11</title>
<path fill="none" stroke="black" d="M467.74,-80.16C483.15,-82.95 505.47,-89.2 519.6,-103 537.82,-120.79 547.44,-148.4 552.4,-169.61"/>
<polygon fill="black" stroke="black" points="548.98,-170.38 554.48,-179.44 555.83,-168.94 548.98,-170.38"/>
<text text-anchor="middle" x="502.6" y="-106.8" font-family="Helvetica,Arial,sans-serif" font-size="14.00">50/60</text>
</g>
<!-- 7&#45;&gt;11 -->
<g id="edge15" class="edge">
<title>7&#45;&gt;11</title>
<path fill="none" stroke="black" d="M357.3,-96.98C393.72,-115.73 485.07,-162.76 530.65,-186.23"/>
<polygon fill="black" stroke="black" points="529.16,-189.4 539.65,-190.86 532.36,-183.17 529.16,-189.4"/>
<text text-anchor="middle" x="449.6" y="-157.8" font-family="Helvetica,Arial,sans-serif" font-size="14.00">45/50</text>
</g>
<!-- 7&#45;&gt;6 -->
<g id="edge16" class="edge">
<title>7&#45;&gt;6</title>
<path fill="none" stroke="black" d="M358.96,-87.23C375.77,-85.5 401.67,-82.83 421.31,-80.81"/>
<polygon fill="black" stroke="black" points="421.89,-84.27 431.48,-79.76 421.17,-77.31 421.89,-84.27"/>
<text text-anchor="middle" x="396.6" y="-88.8" font-family="Helvetica,Arial,sans-serif" font-size="14.00">5/30</text>
</g>
<!-- 4&#45;&gt;10 -->
<g id="edge22" class="edge">
<title>4&#45;&gt;10</title>
<path fill="none" stroke="black" d="M249.69,-276.84C266.07,-271.78 291.4,-263.96 311.03,-257.89"/>
<polygon fill="black" stroke="black" points="312.18,-261.2 320.7,-254.9 310.12,-254.51 312.18,-261.2"/>
<text text-anchor="middle" x="285" y="-273.8" font-family="Helvetica,Arial,sans-serif" font-size="14.00">10/70</text>
</g>
</g>
</svg>
