<?xml version="1.0" encoding="UTF-8" standalone="no"?>
<!DOCTYPE svg PUBLIC "-//W3C//DTD SVG 1.1//EN"
 "http://www.w3.org/Graphics/SVG/1.1/DTD/svg11.dtd">
<!-- Generated by graphviz version 2.43.0 (0)
 -->
<!-- Title: finite_state_machine Pages: 1 -->
<svg width="875pt" height="579pt"
 viewBox="0.00 0.00 875.19 579.00" xmlns="http://www.w3.org/2000/svg" xmlns:xlink="http://www.w3.org/1999/xlink">
<g id="graph0" class="graph" transform="scale(1 1) rotate(0) translate(4 575)">
<title>finite_state_machine</title>
<polygon fill="white" stroke="transparent" points="-4,4 -4,-575 871.19,-575 871.19,4 -4,4"/>
<!-- 4 -->
<g id="node1" class="node">
<title>4</title>
<ellipse fill="none" stroke="black" cx="18" cy="-212" rx="18" ry="18"/>
<text text-anchor="middle" x="18" y="-208.3" font-family="Helvetica,Arial,sans-serif" font-size="14.00">4</text>
</g>
<!-- 10 -->
<g id="node2" class="node">
<title>10</title>
<ellipse fill="none" stroke="black" cx="119.8" cy="-338" rx="20.6" ry="20.6"/>
<text text-anchor="middle" x="119.8" y="-334.3" font-family="Helvetica,Arial,sans-serif" font-size="14.00">10</text>
</g>
<!-- 4&#45;&gt;10 -->
<g id="edge1" class="edge">
<title>4&#45;&gt;10</title>
<path fill="none" stroke="black" d="M30.06,-225.97C46.91,-247.24 79.23,-288.05 99.87,-314.1"/>
<polygon fill="black" stroke="black" points="97.17,-316.33 106.12,-321.99 102.66,-311.98 97.17,-316.33"/>
<text text-anchor="middle" x="67.5" y="-292.8" font-family="Helvetica,Arial,sans-serif" font-size="14.00">5/70</text>
</g>
<!-- 11 -->
<g id="node5" class="node">
<title>11</title>
<ellipse fill="none" stroke="black" cx="224.39" cy="-212" rx="20.6" ry="20.6"/>
<text text-anchor="middle" x="224.39" y="-208.3" font-family="Helvetica,Arial,sans-serif" font-size="14.00">11</text>
</g>
<!-- 10&#45;&gt;11 -->
<g id="edge12" class="edge">
<title>10&#45;&gt;11</title>
<path fill="none" stroke="black" d="M133.58,-322.3C151.25,-300.6 183.27,-261.28 203.92,-235.92"/>
<polygon fill="black" stroke="black" points="206.85,-237.87 210.45,-227.9 201.42,-233.45 206.85,-237.87"/>
<text text-anchor="middle" x="172.1" y="-292.8" font-family="Helvetica,Arial,sans-serif" font-size="14.00">0/15</text>
</g>
<!-- 0 -->
<g id="node6" class="node">
<title>0</title>
<ellipse fill="none" stroke="black" cx="644.19" cy="-255" rx="18" ry="18"/>
<text text-anchor="middle" x="644.19" y="-251.3" font-family="Helvetica,Arial,sans-serif" font-size="14.00">0</text>
</g>
<!-- 10&#45;&gt;0 -->
<g id="edge10" class="edge">
<title>10&#45;&gt;0</title>
<path fill="none" stroke="black" d="M126.02,-358.06C137.1,-395.44 166.7,-472 223.39,-472 223.39,-472 223.39,-472 546.19,-472 574.77,-472 589.62,-476.71 608.19,-455 631.45,-427.81 617.1,-329.61 626.19,-295 627.47,-290.15 629.23,-285.12 631.13,-280.33"/>
<polygon fill="black" stroke="black" points="634.42,-281.54 635.15,-270.97 627.99,-278.78 634.42,-281.54"/>
<text text-anchor="middle" x="386.19" y="-475.8" font-family="Helvetica,Arial,sans-serif" font-size="14.00">5/25</text>
</g>
<!-- 6 -->
<g id="node7" class="node">
<title>6</title>
<ellipse fill="none" stroke="black" cx="333.19" cy="-322" rx="18" ry="18"/>
<text text-anchor="middle" x="333.19" y="-318.3" font-family="Helvetica,Arial,sans-serif" font-size="14.00">6</text>
</g>
<!-- 10&#45;&gt;6 -->
<g id="edge11" class="edge">
<title>10&#45;&gt;6</title>
<path fill="none" stroke="black" d="M140.69,-336.49C178.78,-333.61 262.06,-327.31 305.15,-324.05"/>
<polygon fill="black" stroke="black" points="305.49,-327.53 315.19,-323.29 304.96,-320.55 305.49,-327.53"/>
<text text-anchor="middle" x="224.39" y="-334.8" font-family="Helvetica,Arial,sans-serif" font-size="14.00">0/25</text>
</g>
<!-- 5 -->
<g id="node3" class="node">
<title>5</title>
<ellipse fill="none" stroke="black" cx="439.19" cy="-238" rx="18" ry="18"/>
<text text-anchor="middle" x="439.19" y="-234.3" font-family="Helvetica,Arial,sans-serif" font-size="14.00">5</text>
</g>
<!-- 7 -->
<g id="node4" class="node">
<title>7</title>
<ellipse fill="none" stroke="black" cx="545.19" cy="-255" rx="18" ry="18"/>
<text text-anchor="middle" x="545.19" y="-251.3" font-family="Helvetica,Arial,sans-serif" font-size="14.00">7</text>
</g>
<!-- 5&#45;&gt;7 -->
<g id="edge2" class="edge">
<title>5&#45;&gt;7</title>
<path fill="none" stroke="black" d="M455.66,-230.47C469.91,-224.59 491.47,-218.44 509.19,-225 515.06,-227.17 520.61,-230.81 525.48,-234.82"/>
<polygon fill="black" stroke="black" points="523.26,-237.54 532.99,-241.73 528,-232.38 523.26,-237.54"/>
<text text-anchor="middle" x="492.19" y="-228.8" font-family="Helvetica,Arial,sans-serif" font-size="14.00">0/20</text>
</g>
<!-- 7&#45;&gt;5 -->
<g id="edge20" class="edge">
<title>7&#45;&gt;5</title>
<path fill="none" stroke="black" d="M527.34,-252.25C511.09,-249.59 486.25,-245.53 467.24,-242.42"/>
<polygon fill="black" stroke="black" points="467.8,-238.97 457.37,-240.81 466.67,-245.87 467.8,-238.97"/>
<text text-anchor="middle" x="492.19" y="-252.8" font-family="Helvetica,Arial,sans-serif" font-size="14.00">0/65</text>
</g>
<!-- 7&#45;&gt;11 -->
<g id="edge19" class="edge">
<title>7&#45;&gt;11</title>
<path fill="none" stroke="black" d="M534.25,-240.37C528.02,-232.41 519.27,-223.16 509.19,-218 425.31,-175.02 308.37,-192.91 254.58,-204.71"/>
<polygon fill="black" stroke="black" points="253.66,-201.33 244.69,-206.97 255.22,-208.15 253.66,-201.33"/>
<text text-anchor="middle" x="386.19" y="-195.8" font-family="Helvetica,Arial,sans-serif" font-size="14.00">35/50</text>
</g>
<!-- 7&#45;&gt;0 -->
<g id="edge16" class="edge">
<title>7&#45;&gt;0</title>
<path fill="none" stroke="black" d="M563.53,-255C578.02,-255 598.93,-255 615.69,-255"/>
<polygon fill="black" stroke="black" points="616,-258.5 626,-255 616,-251.5 616,-258.5"/>
<text text-anchor="middle" x="594.69" y="-258.8" font-family="Helvetica,Arial,sans-serif" font-size="14.00">0/20</text>
</g>
<!-- 7&#45;&gt;6 -->
<g id="edge17" class="edge">
<title>7&#45;&gt;6</title>
<path fill="none" stroke="black" d="M528.23,-261.14C522.28,-263.38 515.45,-265.87 509.19,-268 456.81,-285.79 394.79,-304.35 360.43,-314.41"/>
<polygon fill="black" stroke="black" points="359.32,-311.08 350.7,-317.24 361.28,-317.8 359.32,-311.08"/>
<text text-anchor="middle" x="439.19" y="-299.8" font-family="Helvetica,Arial,sans-serif" font-size="14.00">5/30</text>
</g>
<!-- 9 -->
<g id="node9" class="node">
<title>9</title>
<ellipse fill="none" stroke="black" cx="750.19" cy="-352" rx="18" ry="18"/>
<text text-anchor="middle" x="750.19" y="-348.3" font-family="Helvetica,Arial,sans-serif" font-size="14.00">9</text>
</g>
<!-- 7&#45;&gt;9 -->
<g id="edge18" class="edge">
<title>7&#45;&gt;9</title>
<path fill="none" stroke="black" d="M561.5,-263.37C567.62,-266.7 574.73,-270.55 581.19,-274 625.03,-297.41 634.85,-305.64 680.19,-326 694.11,-332.25 710.02,-338.31 723.05,-343.01"/>
<polygon fill="black" stroke="black" points="722.2,-346.42 732.79,-346.46 724.53,-339.82 722.2,-346.42"/>
<text text-anchor="middle" x="644.19" y="-320.8" font-family="Helvetica,Arial,sans-serif" font-size="14.00">10/30</text>
</g>
<!-- 11&#45;&gt;4 -->
<g id="edge5" class="edge">
<title>11&#45;&gt;4</title>
<path fill="none" stroke="black" d="M203.55,-212C166.79,-212 88.09,-212 46.33,-212"/>
<polygon fill="black" stroke="black" points="46.08,-208.5 36.07,-212 46.07,-215.5 46.08,-208.5"/>
<text text-anchor="middle" x="119.8" y="-215.8" font-family="Helvetica,Arial,sans-serif" font-size="14.00">5/50</text>
</g>
<!-- 11&#45;&gt;5 -->
<g id="edge4" class="edge">
<title>11&#45;&gt;5</title>
<path fill="none" stroke="black" d="M245.41,-214.45C283.76,-219.13 367.59,-229.37 410.98,-234.67"/>
<polygon fill="black" stroke="black" points="410.73,-238.17 421.08,-235.91 411.58,-231.22 410.73,-238.17"/>
<text text-anchor="middle" x="333.19" y="-230.8" font-family="Helvetica,Arial,sans-serif" font-size="14.00">0/40</text>
</g>
<!-- 11&#45;&gt;0 -->
<g id="edge3" class="edge">
<title>11&#45;&gt;0</title>
<path fill="none" stroke="black" d="M239.02,-197.16C257.94,-178.25 294.15,-148 332.19,-148 332.19,-148 332.19,-148 546.19,-148 557.54,-148 601.32,-201.48 626.01,-232.82"/>
<polygon fill="black" stroke="black" points="623.5,-235.3 632.42,-241.01 629.01,-230.98 623.5,-235.3"/>
<text text-anchor="middle" x="439.19" y="-151.8" font-family="Helvetica,Arial,sans-serif" font-size="14.00">0/60</text>
</g>
<!-- 11&#45;&gt;6 -->
<g id="edge6" class="edge">
<title>11&#45;&gt;6</title>
<path fill="none" stroke="black" d="M239.6,-226.61C246.48,-233.4 255,-241.41 263.19,-248 277.4,-259.44 284.25,-258.14 297.19,-271 305.19,-278.95 312.52,-288.95 318.38,-297.99"/>
<polygon fill="black" stroke="black" points="315.47,-299.95 323.72,-306.6 321.42,-296.26 315.47,-299.95"/>
<text text-anchor="middle" x="280.19" y="-274.8" font-family="Helvetica,Arial,sans-serif" font-size="14.00">30/35</text>
</g>
<!-- 8 -->
<g id="node8" class="node">
<title>8</title>
<ellipse fill="none" stroke="black" cx="849.19" cy="-262" rx="18" ry="18"/>
<text text-anchor="middle" x="849.19" y="-258.3" font-family="Helvetica,Arial,sans-serif" font-size="14.00">8</text>
</g>
<!-- 0&#45;&gt;8 -->
<g id="edge32" class="edge">
<title>0&#45;&gt;8</title>
<path fill="none" stroke="black" d="M661.83,-258.99C667.61,-260.2 674.15,-261.37 680.19,-262 729.45,-267.11 787.28,-265.44 820.63,-263.74"/>
<polygon fill="black" stroke="black" points="821.17,-267.21 830.96,-263.17 820.78,-260.23 821.17,-267.21"/>
<text text-anchor="middle" x="750.19" y="-268.8" font-family="Helvetica,Arial,sans-serif" font-size="14.00">0/35</text>
</g>
<!-- 0&#45;&gt;9 -->
<g id="edge33" class="edge">
<title>0&#45;&gt;9</title>
<path fill="none" stroke="black" d="M657.39,-267.42C663.92,-273.84 672.24,-281.63 680.19,-288 694.43,-299.41 700.59,-298.84 714.19,-311 720.57,-316.7 726.86,-323.56 732.3,-330.02"/>
<polygon fill="black" stroke="black" points="729.67,-332.33 738.69,-337.87 735.1,-327.91 729.67,-332.33"/>
<text text-anchor="middle" x="697.19" y="-314.8" font-family="Helvetica,Arial,sans-serif" font-size="14.00">0/60</text>
</g>
<!-- 1 -->
<g id="node10" class="node">
<title>1</title>
<ellipse fill="none" stroke="black" cx="750.19" cy="-223" rx="18" ry="18"/>
<text text-anchor="middle" x="750.19" y="-219.3" font-family="Helvetica,Arial,sans-serif" font-size="14.00">1</text>
</g>
<!-- 0&#45;&gt;1 -->
<g id="edge36" class="edge">
<title>0&#45;&gt;1</title>
<path fill="none" stroke="black" d="M661.9,-249.86C678.45,-244.77 704.03,-236.9 723.22,-230.99"/>
<polygon fill="black" stroke="black" points="724.34,-234.31 732.87,-228.02 722.28,-227.62 724.34,-234.31"/>
<text text-anchor="middle" x="697.19" y="-246.8" font-family="Helvetica,Arial,sans-serif" font-size="14.00">0/30</text>
</g>
<!-- 3 -->
<g id="node11" class="node">
<title>3</title>
<ellipse fill="none" stroke="black" cx="750.19" cy="-63" rx="18" ry="18"/>
<text text-anchor="middle" x="750.19" y="-59.3" font-family="Helvetica,Arial,sans-serif" font-size="14.00">3</text>
</g>
<!-- 0&#45;&gt;3 -->
<g id="edge34" class="edge">
<title>0&#45;&gt;3</title>
<path fill="none" stroke="black" d="M650,-237.52C657.37,-211.21 671.54,-162.82 680.19,-147 693.5,-122.67 714.27,-98.59 729.54,-82.5"/>
<polygon fill="black" stroke="black" points="732.1,-84.89 736.55,-75.27 727.07,-80.01 732.1,-84.89"/>
<text text-anchor="middle" x="697.19" y="-150.8" font-family="Helvetica,Arial,sans-serif" font-size="14.00">50/50</text>
</g>
<!-- 2 -->
<g id="node12" class="node">
<title>2</title>
<ellipse fill="none" stroke="black" cx="750.19" cy="-425" rx="18" ry="18"/>
<text text-anchor="middle" x="750.19" y="-421.3" font-family="Helvetica,Arial,sans-serif" font-size="14.00">2</text>
</g>
<!-- 0&#45;&gt;2 -->
<g id="edge35" class="edge">
<title>0&#45;&gt;2</title>
<path fill="none" stroke="black" d="M651.83,-271.55C658.31,-287.06 668.81,-310.69 680.19,-330 695.81,-356.5 716.98,-384.77 731.74,-403.51"/>
<polygon fill="black" stroke="black" points="729.07,-405.76 738.03,-411.41 734.54,-401.41 729.07,-405.76"/>
<text text-anchor="middle" x="697.19" y="-383.8" font-family="Helvetica,Arial,sans-serif" font-size="14.00">0/40</text>
</g>
<!-- 6&#45;&gt;5 -->
<g id="edge9" class="edge">
<title>6&#45;&gt;5</title>
<path fill="none" stroke="black" d="M342.2,-306.1C348.37,-295.11 357.77,-280.77 369.19,-271 381.78,-260.23 398.48,-252.12 412.3,-246.64"/>
<polygon fill="black" stroke="black" points="413.61,-249.89 421.75,-243.11 411.16,-243.33 413.61,-249.89"/>
<text text-anchor="middle" x="386.19" y="-274.8" font-family="Helvetica,Arial,sans-serif" font-size="14.00">0/45</text>
</g>
<!-- 6&#45;&gt;11 -->
<g id="edge8" class="edge">
<title>6&#45;&gt;11</title>
<path fill="none" stroke="black" d="M315.92,-316.77C300.7,-311.19 278.13,-301.06 263.19,-286 250.81,-273.51 241.66,-256.14 235.46,-241.37"/>
<polygon fill="black" stroke="black" points="238.55,-239.68 231.63,-231.65 232.04,-242.24 238.55,-239.68"/>
<text text-anchor="middle" x="280.19" y="-311.8" font-family="Helvetica,Arial,sans-serif" font-size="14.00">0/60</text>
</g>
<!-- 6&#45;&gt;0 -->
<g id="edge7" class="edge">
<title>6&#45;&gt;0</title>
<path fill="none" stroke="black" d="M351.22,-321.81C365.19,-321.58 385.49,-321.08 403.19,-320 496.4,-314.34 521.52,-308.74 608.19,-274 611.81,-272.55 615.52,-270.82 619.12,-269"/>
<polygon fill="black" stroke="black" points="621.07,-271.93 628.23,-264.12 617.77,-265.76 621.07,-271.93"/>
<text text-anchor="middle" x="492.19" y="-316.8" font-family="Helvetica,Arial,sans-serif" font-size="14.00">45/45</text>
</g>
<!-- 8&#45;&gt;11 -->
<g id="edge14" class="edge">
<title>8&#45;&gt;11</title>
<path fill="none" stroke="black" d="M845.54,-243.99C836.31,-184.8 803.33,0 751.19,0 332.19,0 332.19,0 332.19,0 252.08,0 232.05,-122.25 227.05,-181.08"/>
<polygon fill="black" stroke="black" points="223.55,-181.05 226.28,-191.29 230.53,-181.58 223.55,-181.05"/>
<text text-anchor="middle" x="545.19" y="-3.8" font-family="Helvetica,Arial,sans-serif" font-size="14.00">0/55</text>
</g>
<!-- 8&#45;&gt;0 -->
<g id="edge13" class="edge">
<title>8&#45;&gt;0</title>
<path fill="none" stroke="black" d="M838.82,-246.81C825.77,-227.29 800.11,-194.34 768.19,-181 730.99,-165.46 711.3,-177.36 680.19,-203 671.16,-210.45 663.53,-220.82 657.73,-230.35"/>
<polygon fill="black" stroke="black" points="654.65,-228.68 652.74,-239.1 660.73,-232.14 654.65,-228.68"/>
<text text-anchor="middle" x="750.19" y="-184.8" font-family="Helvetica,Arial,sans-serif" font-size="14.00">0/35</text>
</g>
<!-- 8&#45;&gt;6 -->
<g id="edge15" class="edge">
<title>8&#45;&gt;6</title>
<path fill="none" stroke="black" d="M845.21,-279.84C835.21,-336.7 800.66,-510 751.19,-510 438.19,-510 438.19,-510 438.19,-510 406.38,-510 390.95,-514.21 369.19,-491 350.35,-470.9 340.52,-392.46 336.47,-349.87"/>
<polygon fill="black" stroke="black" points="339.96,-349.52 335.57,-339.88 332.98,-350.15 339.96,-349.52"/>
<text text-anchor="middle" x="594.69" y="-513.8" font-family="Helvetica,Arial,sans-serif" font-size="14.00">0/30</text>
</g>
<!-- 9&#45;&gt;7 -->
<g id="edge25" class="edge">
<title>9&#45;&gt;7</title>
<path fill="none" stroke="black" d="M731.87,-353.18C707.1,-354.14 660.71,-353.15 626.19,-336 599.33,-322.66 576.2,-296.67 561.82,-277.72"/>
<polygon fill="black" stroke="black" points="564.59,-275.57 555.85,-269.57 558.94,-279.71 564.59,-275.57"/>
<text text-anchor="middle" x="644.19" y="-350.8" font-family="Helvetica,Arial,sans-serif" font-size="14.00">0/50</text>
</g>
<!-- 9&#45;&gt;6 -->
<g id="edge26" class="edge">
<title>9&#45;&gt;6</title>
<path fill="none" stroke="black" d="M741.99,-368.27C736.2,-379.15 726.92,-392.61 714.19,-399 700.69,-405.78 695.22,-400.55 680.19,-399 539.73,-384.48 505.35,-371.42 369.19,-334 366.19,-333.18 363.07,-332.23 359.99,-331.25"/>
<polygon fill="black" stroke="black" points="361.04,-327.91 350.44,-328.04 358.81,-334.54 361.04,-327.91"/>
<text text-anchor="middle" x="545.19" y="-386.8" font-family="Helvetica,Arial,sans-serif" font-size="14.00">10/35</text>
</g>
<!-- 1&#45;&gt;4 -->
<g id="edge22" class="edge">
<title>1&#45;&gt;4</title>
<path fill="none" stroke="black" d="M738.6,-208.88C716.53,-179.54 667.25,-114.39 662.19,-111 597.45,-67.57 571.15,-64 493.19,-64 118.8,-64 118.8,-64 118.8,-64 61.25,-64 34.68,-141.87 24.43,-184.64"/>
<polygon fill="black" stroke="black" points="21,-183.92 22.21,-194.44 27.83,-185.46 21,-183.92"/>
<text text-anchor="middle" x="386.19" y="-67.8" font-family="Helvetica,Arial,sans-serif" font-size="14.00">0/55</text>
</g>
<!-- 1&#45;&gt;7 -->
<g id="edge23" class="edge">
<title>1&#45;&gt;7</title>
<path fill="none" stroke="black" d="M735.29,-212.83C729.14,-208.95 721.63,-204.98 714.19,-203 699.59,-199.12 695.24,-201.62 680.19,-203 655.89,-205.23 649.26,-205.02 626.19,-213 606.18,-219.93 585.03,-231.23 569.51,-240.36"/>
<polygon fill="black" stroke="black" points="567.39,-237.55 560.63,-245.71 571,-243.55 567.39,-237.55"/>
<text text-anchor="middle" x="644.19" y="-216.8" font-family="Helvetica,Arial,sans-serif" font-size="14.00">0/20</text>
</g>
<!-- 1&#45;&gt;0 -->
<g id="edge21" class="edge">
<title>1&#45;&gt;0</title>
<path fill="none" stroke="black" d="M733.93,-214.9C719.44,-208.39 697.38,-201.59 680.19,-210 671.18,-214.41 663.82,-222.38 658.21,-230.4"/>
<polygon fill="black" stroke="black" points="655.19,-228.63 652.83,-238.96 661.12,-232.36 655.19,-228.63"/>
<text text-anchor="middle" x="697.19" y="-213.8" font-family="Helvetica,Arial,sans-serif" font-size="14.00">0/30</text>
</g>
<!-- 1&#45;&gt;8 -->
<g id="edge24" class="edge">
<title>1&#45;&gt;8</title>
<path fill="none" stroke="black" d="M767.21,-229.44C782.23,-235.48 804.95,-244.62 822.51,-251.67"/>
<polygon fill="black" stroke="black" points="821.57,-255.07 832.15,-255.55 824.18,-248.57 821.57,-255.07"/>
<text text-anchor="middle" x="799.69" y="-250.8" font-family="Helvetica,Arial,sans-serif" font-size="14.00">0/45</text>
</g>
<!-- 3&#45;&gt;7 -->
<g id="edge28" class="edge">
<title>3&#45;&gt;7</title>
<path fill="none" stroke="black" d="M733.09,-69.03C718.4,-75.01 696.55,-85.12 680.19,-98 629.75,-137.71 584.28,-198.73 561.53,-231.79"/>
<polygon fill="black" stroke="black" points="558.45,-230.09 555.73,-240.33 564.24,-234.02 558.45,-230.09"/>
<text text-anchor="middle" x="644.19" y="-151.8" font-family="Helvetica,Arial,sans-serif" font-size="14.00">0/50</text>
</g>
<!-- 3&#45;&gt;11 -->
<g id="edge27" class="edge">
<title>3&#45;&gt;11</title>
<path fill="none" stroke="black" d="M732.06,-65.68C675.69,-74.49 499.23,-102 493.19,-102 332.19,-102 332.19,-102 332.19,-102 286.65,-102 254.27,-151.14 237.81,-183.73"/>
<polygon fill="black" stroke="black" points="234.61,-182.31 233.41,-192.84 240.91,-185.36 234.61,-182.31"/>
<text text-anchor="middle" x="492.19" y="-105.8" font-family="Helvetica,Arial,sans-serif" font-size="14.00">0/70</text>
</g>
<!-- 2&#45;&gt;10 -->
<g id="edge29" class="edge">
<title>2&#45;&gt;10</title>
<path fill="none" stroke="black" d="M744.45,-442.13C733.46,-477.64 702.69,-556 645.19,-556 223.39,-556 223.39,-556 223.39,-556 141.71,-556 124.95,-429.16 121.59,-368.98"/>
<polygon fill="black" stroke="black" points="125.08,-368.73 121.12,-358.9 118.09,-369.06 125.08,-368.73"/>
<text text-anchor="middle" x="439.19" y="-559.8" font-family="Helvetica,Arial,sans-serif" font-size="14.00">0/60</text>
</g>
<!-- 2&#45;&gt;5 -->
<g id="edge30" class="edge">
<title>2&#45;&gt;5</title>
<path fill="none" stroke="black" d="M733.55,-432.73C727.64,-435.26 720.75,-437.74 714.19,-439 699.35,-441.86 695.24,-440.38 680.19,-439 611.27,-432.67 584.85,-448.29 527.19,-410 472.85,-373.91 480.04,-342.1 457.19,-281 455.15,-275.55 452.91,-269.74 450.73,-264.2"/>
<polygon fill="black" stroke="black" points="453.9,-262.69 446.96,-254.69 447.39,-265.28 453.9,-262.69"/>
<text text-anchor="middle" x="594.69" y="-439.8" font-family="Helvetica,Arial,sans-serif" font-size="14.00">0/30</text>
</g>
<!-- 2&#45;&gt;8 -->
<g id="edge31" class="edge">
<title>2&#45;&gt;8</title>
<path fill="none" stroke="black" d="M760.14,-409.96C776.95,-381.72 813.36,-320.54 833.7,-286.36"/>
<polygon fill="black" stroke="black" points="836.87,-287.86 838.98,-277.48 830.86,-284.29 836.87,-287.86"/>
<text text-anchor="middle" x="799.69" y="-365.8" font-family="Helvetica,Arial,sans-serif" font-size="14.00">0/25</text>
</g>
</g>
</svg>
