<?xml version="1.0" encoding="UTF-8" standalone="no"?>
<!DOCTYPE svg PUBLIC "-//W3C//DTD SVG 1.1//EN"
 "http://www.w3.org/Graphics/SVG/1.1/DTD/svg11.dtd">
<!-- Generated by graphviz version 2.43.0 (0)
 -->
<!-- Title: finite_state_machine Pages: 1 -->
<svg width="903pt" height="579pt"
 viewBox="0.00 0.00 903.19 579.00" xmlns="http://www.w3.org/2000/svg" xmlns:xlink="http://www.w3.org/1999/xlink">
<g id="graph0" class="graph" transform="scale(1 1) rotate(0) translate(4 575)">
<title>finite_state_machine</title>
<polygon fill="white" stroke="transparent" points="-4,4 -4,-575 899.19,-575 899.19,4 -4,4"/>
<!-- 4 -->
<g id="node1" class="node">
<title>4</title>
<ellipse fill="none" stroke="black" cx="18" cy="-212" rx="18" ry="18"/>
<text text-anchor="middle" x="18" y="-208.3" font-family="Helvetica,Arial,sans-serif" font-size="14.00">4</text>
</g>
<!-- 10 -->
<g id="node2" class="node">
<title>10</title>
<ellipse fill="none" stroke="black" cx="126.8" cy="-338" rx="20.6" ry="20.6"/>
<text text-anchor="middle" x="126.8" y="-334.3" font-family="Helvetica,Arial,sans-serif" font-size="14.00">10</text>
</g>
<!-- 4&#45;&gt;10 -->
<g id="edge1" class="edge">
<title>4&#45;&gt;10</title>
<path fill="none" stroke="black" d="M30.43,-225.48C48.39,-246.68 83.48,-288.08 105.72,-314.32"/>
<polygon fill="black" stroke="black" points="103.32,-316.89 112.45,-322.26 108.66,-312.37 103.32,-316.89"/>
<text text-anchor="middle" x="71" y="-292.8" font-family="Helvetica,Arial,sans-serif" font-size="14.00">10/70</text>
</g>
<!-- 11 -->
<g id="node5" class="node">
<title>11</title>
<ellipse fill="none" stroke="black" cx="238.39" cy="-212" rx="20.6" ry="20.6"/>
<text text-anchor="middle" x="238.39" y="-208.3" font-family="Helvetica,Arial,sans-serif" font-size="14.00">11</text>
</g>
<!-- 10&#45;&gt;11 -->
<g id="edge12" class="edge">
<title>10&#45;&gt;11</title>
<path fill="none" stroke="black" d="M141.24,-322.55C160.22,-300.73 195.02,-260.71 217.15,-235.28"/>
<polygon fill="black" stroke="black" points="219.92,-237.42 223.85,-227.58 214.64,-232.82 219.92,-237.42"/>
<text text-anchor="middle" x="182.6" y="-296.8" font-family="Helvetica,Arial,sans-serif" font-size="14.00">15/15</text>
</g>
<!-- 0 -->
<g id="node6" class="node">
<title>0</title>
<ellipse fill="none" stroke="black" cx="665.19" cy="-255" rx="18" ry="18"/>
<text text-anchor="middle" x="665.19" y="-251.3" font-family="Helvetica,Arial,sans-serif" font-size="14.00">0</text>
</g>
<!-- 10&#45;&gt;0 -->
<g id="edge10" class="edge">
<title>10&#45;&gt;0</title>
<path fill="none" stroke="black" d="M133.71,-357.77C146.21,-395.05 179.09,-472 237.39,-472 237.39,-472 237.39,-472 560.19,-472 591.67,-472 608.25,-479.5 629.19,-456 652.85,-429.45 638.44,-331.47 647.19,-297 648.6,-291.47 650.57,-285.71 652.67,-280.28"/>
<polygon fill="black" stroke="black" points="655.92,-281.59 656.52,-271.01 649.45,-278.91 655.92,-281.59"/>
<text text-anchor="middle" x="400.19" y="-475.8" font-family="Helvetica,Arial,sans-serif" font-size="14.00">0/25</text>
</g>
<!-- 6 -->
<g id="node7" class="node">
<title>6</title>
<ellipse fill="none" stroke="black" cx="347.19" cy="-322" rx="18" ry="18"/>
<text text-anchor="middle" x="347.19" y="-318.3" font-family="Helvetica,Arial,sans-serif" font-size="14.00">6</text>
</g>
<!-- 10&#45;&gt;6 -->
<g id="edge11" class="edge">
<title>10&#45;&gt;6</title>
<path fill="none" stroke="black" d="M147.56,-336.55C186.75,-333.68 274.35,-327.26 318.96,-323.99"/>
<polygon fill="black" stroke="black" points="319.35,-327.48 329.07,-323.25 318.84,-320.49 319.35,-327.48"/>
<text text-anchor="middle" x="238.39" y="-334.8" font-family="Helvetica,Arial,sans-serif" font-size="14.00">0/25</text>
</g>
<!-- 5 -->
<g id="node3" class="node">
<title>5</title>
<ellipse fill="none" stroke="black" cx="453.19" cy="-238" rx="18" ry="18"/>
<text text-anchor="middle" x="453.19" y="-234.3" font-family="Helvetica,Arial,sans-serif" font-size="14.00">5</text>
</g>
<!-- 7 -->
<g id="node4" class="node">
<title>7</title>
<ellipse fill="none" stroke="black" cx="559.19" cy="-255" rx="18" ry="18"/>
<text text-anchor="middle" x="559.19" y="-251.3" font-family="Helvetica,Arial,sans-serif" font-size="14.00">7</text>
</g>
<!-- 5&#45;&gt;7 -->
<g id="edge2" class="edge">
<title>5&#45;&gt;7</title>
<path fill="none" stroke="black" d="M469.66,-230.47C483.91,-224.59 505.47,-218.44 523.19,-225 529.06,-227.17 534.61,-230.81 539.48,-234.82"/>
<polygon fill="black" stroke="black" points="537.26,-237.54 546.99,-241.73 542,-232.38 537.26,-237.54"/>
<text text-anchor="middle" x="506.19" y="-228.8" font-family="Helvetica,Arial,sans-serif" font-size="14.00">15/20</text>
</g>
<!-- 7&#45;&gt;5 -->
<g id="edge20" class="edge">
<title>7&#45;&gt;5</title>
<path fill="none" stroke="black" d="M541.34,-252.25C525.09,-249.59 500.25,-245.53 481.24,-242.42"/>
<polygon fill="black" stroke="black" points="481.8,-238.97 471.37,-240.81 480.67,-245.87 481.8,-238.97"/>
<text text-anchor="middle" x="506.19" y="-252.8" font-family="Helvetica,Arial,sans-serif" font-size="14.00">0/65</text>
</g>
<!-- 7&#45;&gt;11 -->
<g id="edge19" class="edge">
<title>7&#45;&gt;11</title>
<path fill="none" stroke="black" d="M548.25,-240.37C542.02,-232.41 533.27,-223.16 523.19,-218 439.31,-175.02 322.37,-192.91 268.58,-204.71"/>
<polygon fill="black" stroke="black" points="267.66,-201.33 258.69,-206.97 269.22,-208.15 267.66,-201.33"/>
<text text-anchor="middle" x="400.19" y="-195.8" font-family="Helvetica,Arial,sans-serif" font-size="14.00">45/50</text>
</g>
<!-- 7&#45;&gt;0 -->
<g id="edge16" class="edge">
<title>7&#45;&gt;0</title>
<path fill="none" stroke="black" d="M577.37,-255C593.55,-255 618.06,-255 636.92,-255"/>
<polygon fill="black" stroke="black" points="636.99,-258.5 646.99,-255 636.99,-251.5 636.99,-258.5"/>
<text text-anchor="middle" x="612.19" y="-258.8" font-family="Helvetica,Arial,sans-serif" font-size="14.00">0/20</text>
</g>
<!-- 7&#45;&gt;6 -->
<g id="edge17" class="edge">
<title>7&#45;&gt;6</title>
<path fill="none" stroke="black" d="M542.23,-261.14C536.28,-263.38 529.45,-265.87 523.19,-268 470.81,-285.79 408.79,-304.35 374.43,-314.41"/>
<polygon fill="black" stroke="black" points="373.32,-311.08 364.7,-317.24 375.28,-317.8 373.32,-311.08"/>
<text text-anchor="middle" x="453.19" y="-299.8" font-family="Helvetica,Arial,sans-serif" font-size="14.00">5/30</text>
</g>
<!-- 9 -->
<g id="node9" class="node">
<title>9</title>
<ellipse fill="none" stroke="black" cx="771.19" cy="-352" rx="18" ry="18"/>
<text text-anchor="middle" x="771.19" y="-348.3" font-family="Helvetica,Arial,sans-serif" font-size="14.00">9</text>
</g>
<!-- 7&#45;&gt;9 -->
<g id="edge18" class="edge">
<title>7&#45;&gt;9</title>
<path fill="none" stroke="black" d="M575.45,-263.46C581.56,-266.8 588.68,-270.64 595.19,-274 641.82,-298.08 653.03,-305.17 701.19,-326 715.19,-332.05 731.11,-338.11 744.12,-342.84"/>
<polygon fill="black" stroke="black" points="743.25,-346.25 753.85,-346.34 745.62,-339.66 743.25,-346.25"/>
<text text-anchor="middle" x="665.19" y="-320.8" font-family="Helvetica,Arial,sans-serif" font-size="14.00">0/30</text>
</g>
<!-- 11&#45;&gt;4 -->
<g id="edge5" class="edge">
<title>11&#45;&gt;4</title>
<path fill="none" stroke="black" d="M217.54,-212C178.31,-212 90.81,-212 46.24,-212"/>
<polygon fill="black" stroke="black" points="46.14,-208.5 36.14,-212 46.14,-215.5 46.14,-208.5"/>
<text text-anchor="middle" x="126.8" y="-215.8" font-family="Helvetica,Arial,sans-serif" font-size="14.00">0/50</text>
</g>
<!-- 11&#45;&gt;5 -->
<g id="edge4" class="edge">
<title>11&#45;&gt;5</title>
<path fill="none" stroke="black" d="M259.41,-214.45C297.76,-219.13 381.59,-229.37 424.98,-234.67"/>
<polygon fill="black" stroke="black" points="424.73,-238.17 435.08,-235.91 425.58,-231.22 424.73,-238.17"/>
<text text-anchor="middle" x="347.19" y="-230.8" font-family="Helvetica,Arial,sans-serif" font-size="14.00">0/40</text>
</g>
<!-- 11&#45;&gt;0 -->
<g id="edge3" class="edge">
<title>11&#45;&gt;0</title>
<path fill="none" stroke="black" d="M253.02,-197.16C271.94,-178.25 308.15,-148 346.19,-148 346.19,-148 346.19,-148 560.19,-148 572.02,-148 619.93,-202.48 646.4,-233.69"/>
<polygon fill="black" stroke="black" points="643.81,-236.06 652.94,-241.45 649.16,-231.55 643.81,-236.06"/>
<text text-anchor="middle" x="453.19" y="-151.8" font-family="Helvetica,Arial,sans-serif" font-size="14.00">0/60</text>
</g>
<!-- 11&#45;&gt;6 -->
<g id="edge6" class="edge">
<title>11&#45;&gt;6</title>
<path fill="none" stroke="black" d="M253.6,-226.61C260.48,-233.4 269,-241.41 277.19,-248 291.4,-259.44 298.25,-258.14 311.19,-271 319.19,-278.95 326.52,-288.95 332.38,-297.99"/>
<polygon fill="black" stroke="black" points="329.47,-299.95 337.72,-306.6 335.42,-296.26 329.47,-299.95"/>
<text text-anchor="middle" x="294.19" y="-274.8" font-family="Helvetica,Arial,sans-serif" font-size="14.00">0/35</text>
</g>
<!-- 8 -->
<g id="node8" class="node">
<title>8</title>
<ellipse fill="none" stroke="black" cx="877.19" cy="-262" rx="18" ry="18"/>
<text text-anchor="middle" x="877.19" y="-258.3" font-family="Helvetica,Arial,sans-serif" font-size="14.00">8</text>
</g>
<!-- 0&#45;&gt;8 -->
<g id="edge32" class="edge">
<title>0&#45;&gt;8</title>
<path fill="none" stroke="black" d="M682.83,-258.99C688.61,-260.2 695.15,-261.37 701.19,-262 753,-267.38 813.91,-265.55 848.49,-263.76"/>
<polygon fill="black" stroke="black" points="848.95,-267.24 858.74,-263.19 848.56,-260.25 848.95,-267.24"/>
<text text-anchor="middle" x="771.19" y="-268.8" font-family="Helvetica,Arial,sans-serif" font-size="14.00">35/35</text>
</g>
<!-- 0&#45;&gt;9 -->
<g id="edge33" class="edge">
<title>0&#45;&gt;9</title>
<path fill="none" stroke="black" d="M678.39,-267.42C684.92,-273.84 693.24,-281.63 701.19,-288 715.43,-299.41 721.59,-298.84 735.19,-311 741.57,-316.7 747.86,-323.56 753.3,-330.02"/>
<polygon fill="black" stroke="black" points="750.67,-332.33 759.69,-337.87 756.1,-327.91 750.67,-332.33"/>
<text text-anchor="middle" x="718.19" y="-314.8" font-family="Helvetica,Arial,sans-serif" font-size="14.00">60/60</text>
</g>
<!-- 1 -->
<g id="node10" class="node">
<title>1</title>
<ellipse fill="none" stroke="black" cx="771.19" cy="-223" rx="18" ry="18"/>
<text text-anchor="middle" x="771.19" y="-219.3" font-family="Helvetica,Arial,sans-serif" font-size="14.00">1</text>
</g>
<!-- 0&#45;&gt;1 -->
<g id="edge36" class="edge">
<title>0&#45;&gt;1</title>
<path fill="none" stroke="black" d="M682.9,-249.86C699.45,-244.77 725.03,-236.9 744.22,-230.99"/>
<polygon fill="black" stroke="black" points="745.34,-234.31 753.87,-228.02 743.28,-227.62 745.34,-234.31"/>
<text text-anchor="middle" x="718.19" y="-246.8" font-family="Helvetica,Arial,sans-serif" font-size="14.00">30/30</text>
</g>
<!-- 3 -->
<g id="node11" class="node">
<title>3</title>
<ellipse fill="none" stroke="black" cx="771.19" cy="-63" rx="18" ry="18"/>
<text text-anchor="middle" x="771.19" y="-59.3" font-family="Helvetica,Arial,sans-serif" font-size="14.00">3</text>
</g>
<!-- 0&#45;&gt;3 -->
<g id="edge34" class="edge">
<title>0&#45;&gt;3</title>
<path fill="none" stroke="black" d="M671,-237.52C678.37,-211.21 692.54,-162.82 701.19,-147 714.5,-122.67 735.27,-98.59 750.54,-82.5"/>
<polygon fill="black" stroke="black" points="753.1,-84.89 757.55,-75.27 748.07,-80.01 753.1,-84.89"/>
<text text-anchor="middle" x="718.19" y="-150.8" font-family="Helvetica,Arial,sans-serif" font-size="14.00">50/50</text>
</g>
<!-- 2 -->
<g id="node12" class="node">
<title>2</title>
<ellipse fill="none" stroke="black" cx="771.19" cy="-425" rx="18" ry="18"/>
<text text-anchor="middle" x="771.19" y="-421.3" font-family="Helvetica,Arial,sans-serif" font-size="14.00">2</text>
</g>
<!-- 0&#45;&gt;2 -->
<g id="edge35" class="edge">
<title>0&#45;&gt;2</title>
<path fill="none" stroke="black" d="M672.83,-271.55C679.31,-287.06 689.81,-310.69 701.19,-330 716.81,-356.5 737.98,-384.77 752.74,-403.51"/>
<polygon fill="black" stroke="black" points="750.07,-405.76 759.03,-411.41 755.54,-401.41 750.07,-405.76"/>
<text text-anchor="middle" x="718.19" y="-383.8" font-family="Helvetica,Arial,sans-serif" font-size="14.00">40/40</text>
</g>
<!-- 6&#45;&gt;5 -->
<g id="edge9" class="edge">
<title>6&#45;&gt;5</title>
<path fill="none" stroke="black" d="M356.2,-306.1C362.37,-295.11 371.77,-280.77 383.19,-271 395.78,-260.23 412.48,-252.12 426.3,-246.64"/>
<polygon fill="black" stroke="black" points="427.61,-249.89 435.75,-243.11 425.16,-243.33 427.61,-249.89"/>
<text text-anchor="middle" x="400.19" y="-274.8" font-family="Helvetica,Arial,sans-serif" font-size="14.00">0/45</text>
</g>
<!-- 6&#45;&gt;11 -->
<g id="edge8" class="edge">
<title>6&#45;&gt;11</title>
<path fill="none" stroke="black" d="M329.92,-316.77C314.7,-311.19 292.13,-301.06 277.19,-286 264.81,-273.51 255.66,-256.14 249.46,-241.37"/>
<polygon fill="black" stroke="black" points="252.55,-239.68 245.63,-231.65 246.04,-242.24 252.55,-239.68"/>
<text text-anchor="middle" x="294.19" y="-311.8" font-family="Helvetica,Arial,sans-serif" font-size="14.00">50/60</text>
</g>
<!-- 6&#45;&gt;0 -->
<g id="edge7" class="edge">
<title>6&#45;&gt;0</title>
<path fill="none" stroke="black" d="M365.22,-321.81C379.19,-321.58 399.49,-321.08 417.19,-320 513.43,-314.16 539.5,-309.37 629.19,-274 632.81,-272.57 636.54,-270.85 640.14,-269.04"/>
<polygon fill="black" stroke="black" points="642.09,-271.97 649.25,-264.16 638.78,-265.8 642.09,-271.97"/>
<text text-anchor="middle" x="506.19" y="-316.8" font-family="Helvetica,Arial,sans-serif" font-size="14.00">0/45</text>
</g>
<!-- 8&#45;&gt;11 -->
<g id="edge14" class="edge">
<title>8&#45;&gt;11</title>
<path fill="none" stroke="black" d="M873.17,-244.4C862.57,-185.66 824.92,0 772.19,0 346.19,0 346.19,0 346.19,0 266.08,0 246.05,-122.25 241.05,-181.08"/>
<polygon fill="black" stroke="black" points="237.55,-181.05 240.28,-191.29 244.53,-181.58 237.55,-181.05"/>
<text text-anchor="middle" x="559.19" y="-3.8" font-family="Helvetica,Arial,sans-serif" font-size="14.00">55/55</text>
</g>
<!-- 8&#45;&gt;0 -->
<g id="edge13" class="edge">
<title>8&#45;&gt;0</title>
<path fill="none" stroke="black" d="M866.16,-247.44C851.76,-227.98 823.18,-194.37 789.19,-181 751.68,-166.24 732.3,-177.36 701.19,-203 692.16,-210.45 684.53,-220.82 678.73,-230.35"/>
<polygon fill="black" stroke="black" points="675.65,-228.68 673.74,-239.1 681.73,-232.14 675.65,-228.68"/>
<text text-anchor="middle" x="771.19" y="-184.8" font-family="Helvetica,Arial,sans-serif" font-size="14.00">0/35</text>
</g>
<!-- 8&#45;&gt;6 -->
<g id="edge15" class="edge">
<title>8&#45;&gt;6</title>
<path fill="none" stroke="black" d="M876.79,-280.24C877.62,-337.51 871.87,-510 772.19,-510 452.19,-510 452.19,-510 452.19,-510 420.38,-510 404.95,-514.21 383.19,-491 364.35,-470.9 354.52,-392.46 350.47,-349.87"/>
<polygon fill="black" stroke="black" points="353.96,-349.52 349.57,-339.88 346.98,-350.15 353.96,-349.52"/>
<text text-anchor="middle" x="612.19" y="-513.8" font-family="Helvetica,Arial,sans-serif" font-size="14.00">10/30</text>
</g>
<!-- 9&#45;&gt;7 -->
<g id="edge25" class="edge">
<title>9&#45;&gt;7</title>
<path fill="none" stroke="black" d="M753.06,-352.79C728.51,-353.26 682.4,-351.7 647.19,-336 618.13,-323.04 592.52,-296.31 576.74,-277.1"/>
<polygon fill="black" stroke="black" points="579.37,-274.78 570.4,-269.13 573.89,-279.14 579.37,-274.78"/>
<text text-anchor="middle" x="665.19" y="-350.8" font-family="Helvetica,Arial,sans-serif" font-size="14.00">25/50</text>
</g>
<!-- 9&#45;&gt;6 -->
<g id="edge26" class="edge">
<title>9&#45;&gt;6</title>
<path fill="none" stroke="black" d="M762.99,-368.27C757.2,-379.15 747.92,-392.61 735.19,-399 721.69,-405.78 716.23,-400.52 701.19,-399 557.67,-384.48 522.38,-371.92 383.19,-334 380.19,-333.18 377.07,-332.24 373.99,-331.26"/>
<polygon fill="black" stroke="black" points="375.03,-327.92 364.44,-328.06 372.81,-334.56 375.03,-327.92"/>
<text text-anchor="middle" x="559.19" y="-385.8" font-family="Helvetica,Arial,sans-serif" font-size="14.00">35/35</text>
</g>
<!-- 1&#45;&gt;4 -->
<g id="edge22" class="edge">
<title>1&#45;&gt;4</title>
<path fill="none" stroke="black" d="M759.6,-208.88C737.54,-179.53 688.27,-114.37 683.19,-111 615.72,-66.25 588.16,-64 507.19,-64 125.8,-64 125.8,-64 125.8,-64 66.96,-64 37.29,-141.87 25.43,-184.64"/>
<polygon fill="black" stroke="black" points="22.01,-183.88 22.85,-194.44 28.78,-185.66 22.01,-183.88"/>
<text text-anchor="middle" x="400.19" y="-67.8" font-family="Helvetica,Arial,sans-serif" font-size="14.00">10/55</text>
</g>
<!-- 1&#45;&gt;7 -->
<g id="edge23" class="edge">
<title>1&#45;&gt;7</title>
<path fill="none" stroke="black" d="M756.29,-212.83C750.14,-208.95 742.63,-204.98 735.19,-203 720.59,-199.12 716.24,-201.62 701.19,-203 676.89,-205.23 670.39,-205.4 647.19,-213 625.07,-220.24 601.37,-231.97 584.3,-241.2"/>
<polygon fill="black" stroke="black" points="582.14,-238.39 575.08,-246.29 585.53,-244.52 582.14,-238.39"/>
<text text-anchor="middle" x="665.19" y="-216.8" font-family="Helvetica,Arial,sans-serif" font-size="14.00">10/20</text>
</g>
<!-- 1&#45;&gt;0 -->
<g id="edge21" class="edge">
<title>1&#45;&gt;0</title>
<path fill="none" stroke="black" d="M754.93,-214.9C740.44,-208.39 718.38,-201.59 701.19,-210 692.18,-214.41 684.82,-222.38 679.21,-230.4"/>
<polygon fill="black" stroke="black" points="676.19,-228.63 673.83,-238.96 682.12,-232.36 676.19,-228.63"/>
<text text-anchor="middle" x="718.19" y="-213.8" font-family="Helvetica,Arial,sans-serif" font-size="14.00">0/30</text>
</g>
<!-- 1&#45;&gt;8 -->
<g id="edge24" class="edge">
<title>1&#45;&gt;8</title>
<path fill="none" stroke="black" d="M788.42,-228.71C802.44,-233.68 823.21,-241.15 841.19,-248 844.31,-249.19 847.58,-250.46 850.81,-251.73"/>
<polygon fill="black" stroke="black" points="849.62,-255.03 860.21,-255.48 852.21,-248.52 849.62,-255.03"/>
<text text-anchor="middle" x="824.19" y="-251.8" font-family="Helvetica,Arial,sans-serif" font-size="14.00">10/45</text>
</g>
<!-- 3&#45;&gt;7 -->
<g id="edge28" class="edge">
<title>3&#45;&gt;7</title>
<path fill="none" stroke="black" d="M754.16,-69.13C739.52,-75.17 717.71,-85.33 701.19,-98 648.89,-138.11 600.46,-199.39 576.29,-232.27"/>
<polygon fill="black" stroke="black" points="573.45,-230.22 570.41,-240.37 579.12,-234.34 573.45,-230.22"/>
<text text-anchor="middle" x="665.19" y="-149.8" font-family="Helvetica,Arial,sans-serif" font-size="14.00">0/50</text>
</g>
<!-- 3&#45;&gt;11 -->
<g id="edge27" class="edge">
<title>3&#45;&gt;11</title>
<path fill="none" stroke="black" d="M753.27,-65.8C699.08,-74.75 531.89,-102 507.19,-102 346.19,-102 346.19,-102 346.19,-102 300.65,-102 268.27,-151.14 251.81,-183.73"/>
<polygon fill="black" stroke="black" points="248.61,-182.31 247.41,-192.84 254.91,-185.36 248.61,-182.31"/>
<text text-anchor="middle" x="506.19" y="-105.8" font-family="Helvetica,Arial,sans-serif" font-size="14.00">50/70</text>
</g>
<!-- 2&#45;&gt;10 -->
<g id="edge29" class="edge">
<title>2&#45;&gt;10</title>
<path fill="none" stroke="black" d="M765.45,-442.13C754.46,-477.64 723.69,-556 666.19,-556 237.39,-556 237.39,-556 237.39,-556 154.67,-556 134.38,-429.16 129.41,-368.98"/>
<polygon fill="black" stroke="black" points="132.89,-368.62 128.67,-358.9 125.91,-369.13 132.89,-368.62"/>
<text text-anchor="middle" x="453.19" y="-559.8" font-family="Helvetica,Arial,sans-serif" font-size="14.00">5/60</text>
</g>
<!-- 2&#45;&gt;5 -->
<g id="edge30" class="edge">
<title>2&#45;&gt;5</title>
<path fill="none" stroke="black" d="M754.55,-432.73C748.64,-435.26 741.75,-437.74 735.19,-439 720.35,-441.86 716.24,-440.35 701.19,-439 629.21,-432.53 601.6,-449.67 541.19,-410 486.67,-374.19 494.04,-342.1 471.19,-281 469.15,-275.55 466.91,-269.74 464.73,-264.2"/>
<polygon fill="black" stroke="black" points="467.9,-262.69 460.96,-254.69 461.39,-265.28 467.9,-262.69"/>
<text text-anchor="middle" x="612.19" y="-440.8" font-family="Helvetica,Arial,sans-serif" font-size="14.00">15/30</text>
</g>
<!-- 2&#45;&gt;8 -->
<g id="edge31" class="edge">
<title>2&#45;&gt;8</title>
<path fill="none" stroke="black" d="M781.61,-410.25C799.61,-382.02 839.09,-320.16 860.92,-285.94"/>
<polygon fill="black" stroke="black" points="864.15,-287.39 866.58,-277.07 858.25,-283.62 864.15,-287.39"/>
<text text-anchor="middle" x="824.19" y="-370.8" font-family="Helvetica,Arial,sans-serif" font-size="14.00">20/25</text>
</g>
</g>
</svg>
