<?xml version="1.0" encoding="UTF-8" standalone="no"?>
<!DOCTYPE svg PUBLIC "-//W3C//DTD SVG 1.1//EN"
 "http://www.w3.org/Graphics/SVG/1.1/DTD/svg11.dtd">
<!-- Generated by graphviz version 2.43.0 (0)
 -->
<!-- Title: finite_state_machine Pages: 1 -->
<svg width="476pt" height="378pt"
 viewBox="0.00 0.00 476.00 378.00" xmlns="http://www.w3.org/2000/svg" xmlns:xlink="http://www.w3.org/1999/xlink">
<g id="graph0" class="graph" transform="scale(1 1) rotate(0) translate(4 374)">
<title>finite_state_machine</title>
<polygon fill="white" stroke="transparent" points="-4,4 -4,-374 472,-374 472,4 -4,4"/>
<!-- 5 -->
<g id="node1" class="node">
<title>5</title>
<ellipse fill="none" stroke="black" cx="18" cy="-55" rx="18" ry="18"/>
<text text-anchor="middle" x="18" y="-51.3" font-family="Helvetica,Arial,sans-serif" font-size="14.00">5</text>
</g>
<!-- 3 -->
<g id="node2" class="node">
<title>3</title>
<ellipse fill="none" stroke="black" cx="98" cy="-133" rx="18" ry="18"/>
<text text-anchor="middle" x="98" y="-129.3" font-family="Helvetica,Arial,sans-serif" font-size="14.00">3</text>
</g>
<!-- 5&#45;&gt;3 -->
<g id="edge1" class="edge">
<title>5&#45;&gt;3</title>
<path fill="none" stroke="black" d="M30.83,-67.83C37.54,-75.02 46.14,-84.11 54,-92 61.27,-99.3 69.41,-107.14 76.64,-114"/>
<polygon fill="black" stroke="black" points="74.36,-116.66 84.04,-120.97 79.16,-111.56 74.36,-116.66"/>
<text text-anchor="middle" x="58" y="-101.8" font-family="Helvetica,Arial,sans-serif" font-size="14.00">0</text>
</g>
<!-- 4 -->
<g id="node3" class="node">
<title>4</title>
<ellipse fill="none" stroke="black" cx="450" cy="-208" rx="18" ry="18"/>
<text text-anchor="middle" x="450" y="-204.3" font-family="Helvetica,Arial,sans-serif" font-size="14.00">4</text>
</g>
<!-- 5&#45;&gt;4 -->
<g id="edge2" class="edge">
<title>5&#45;&gt;4</title>
<path fill="none" stroke="black" d="M35.21,-49.34C50.83,-44.39 75.24,-38 97,-38 97,-38 97,-38 363,-38 425.73,-38 442.71,-131.3 447.31,-179.67"/>
<polygon fill="black" stroke="black" points="443.83,-180.13 448.15,-189.81 450.81,-179.55 443.83,-180.13"/>
<text text-anchor="middle" x="230" y="-41.8" font-family="Helvetica,Arial,sans-serif" font-size="14.00">0</text>
</g>
<!-- 3&#45;&gt;5 -->
<g id="edge7" class="edge">
<title>3&#45;&gt;5</title>
<path fill="none" stroke="black" d="M90.74,-116.25C85.02,-102.98 75.42,-84.76 62,-73 57.24,-68.83 51.38,-65.53 45.54,-62.96"/>
<polygon fill="black" stroke="black" points="46.5,-59.58 35.91,-59.28 44,-66.12 46.5,-59.58"/>
<text text-anchor="middle" x="58" y="-76.8" font-family="Helvetica,Arial,sans-serif" font-size="14.00">0</text>
</g>
<!-- 3&#45;&gt;4 -->
<g id="edge8" class="edge">
<title>3&#45;&gt;4</title>
<path fill="none" stroke="black" d="M99.79,-150.98C102.78,-194.88 117.04,-304 185,-304 185,-304 185,-304 363,-304 400.63,-304 425.93,-262.57 438.87,-234.15"/>
<polygon fill="black" stroke="black" points="442.18,-235.29 442.92,-224.72 435.75,-232.52 442.18,-235.29"/>
<text text-anchor="middle" x="274" y="-307.8" font-family="Helvetica,Arial,sans-serif" font-size="14.00">20</text>
</g>
<!-- 2 -->
<g id="node4" class="node">
<title>2</title>
<ellipse fill="none" stroke="black" cx="362" cy="-145" rx="18" ry="18"/>
<text text-anchor="middle" x="362" y="-141.3" font-family="Helvetica,Arial,sans-serif" font-size="14.00">2</text>
</g>
<!-- 3&#45;&gt;2 -->
<g id="edge9" class="edge">
<title>3&#45;&gt;2</title>
<path fill="none" stroke="black" d="M115.94,-131.36C153.85,-128.05 248.31,-121.9 326,-134 328.95,-134.46 331.99,-135.12 335,-135.89"/>
<polygon fill="black" stroke="black" points="334.28,-139.33 344.86,-138.82 336.27,-132.62 334.28,-139.33"/>
<text text-anchor="middle" x="230" y="-130.8" font-family="Helvetica,Arial,sans-serif" font-size="14.00">0</text>
</g>
<!-- 1 -->
<g id="node5" class="node">
<title>1</title>
<ellipse fill="none" stroke="black" cx="186" cy="-189" rx="18" ry="18"/>
<text text-anchor="middle" x="186" y="-185.3" font-family="Helvetica,Arial,sans-serif" font-size="14.00">1</text>
</g>
<!-- 3&#45;&gt;1 -->
<g id="edge10" class="edge">
<title>3&#45;&gt;1</title>
<path fill="none" stroke="black" d="M111.19,-145.84C117.59,-152.13 125.79,-159.5 134,-165 141.83,-170.25 150.99,-174.94 159.36,-178.76"/>
<polygon fill="black" stroke="black" points="158.15,-182.05 168.71,-182.82 160.93,-175.62 158.15,-182.05"/>
<text text-anchor="middle" x="142" y="-176.8" font-family="Helvetica,Arial,sans-serif" font-size="14.00">0</text>
</g>
<!-- 4&#45;&gt;5 -->
<g id="edge4" class="edge">
<title>4&#45;&gt;5</title>
<path fill="none" stroke="black" d="M449.62,-189.91C450.33,-139.3 444.86,0 363,0 97,0 97,0 97,0 72.73,0 50.7,-18 36.29,-33.41"/>
<polygon fill="black" stroke="black" points="33.48,-31.31 29.48,-41.12 38.72,-35.94 33.48,-31.31"/>
<text text-anchor="middle" x="230" y="-3.8" font-family="Helvetica,Arial,sans-serif" font-size="14.00">0</text>
</g>
<!-- 4&#45;&gt;3 -->
<g id="edge3" class="edge">
<title>4&#45;&gt;3</title>
<path fill="none" stroke="black" d="M446.94,-226.03C441.36,-265.28 422.13,-355 363,-355 185,-355 185,-355 185,-355 157,-355 149,-341.65 134,-318 103.17,-269.38 98.2,-200.1 98.09,-161.6"/>
<polygon fill="black" stroke="black" points="101.6,-161.17 98.18,-151.14 94.6,-161.11 101.6,-161.17"/>
<text text-anchor="middle" x="274" y="-358.8" font-family="Helvetica,Arial,sans-serif" font-size="14.00">0</text>
</g>
<!-- 4&#45;&gt;2 -->
<g id="edge5" class="edge">
<title>4&#45;&gt;2</title>
<path fill="none" stroke="black" d="M435.06,-197.79C421.63,-187.95 401.08,-172.9 385.36,-161.38"/>
<polygon fill="black" stroke="black" points="387.34,-158.49 377.2,-155.4 383.2,-164.14 387.34,-158.49"/>
<text text-anchor="middle" x="406" y="-185.8" font-family="Helvetica,Arial,sans-serif" font-size="14.00">0</text>
</g>
<!-- 4&#45;&gt;1 -->
<g id="edge6" class="edge">
<title>4&#45;&gt;1</title>
<path fill="none" stroke="black" d="M431.8,-208.45C393.74,-209.19 299.64,-209.56 222,-198 219.24,-197.59 216.39,-197.05 213.56,-196.44"/>
<polygon fill="black" stroke="black" points="214.13,-192.98 203.59,-194.02 212.48,-199.78 214.13,-192.98"/>
<text text-anchor="middle" x="318" y="-210.8" font-family="Helvetica,Arial,sans-serif" font-size="14.00">0</text>
</g>
<!-- 2&#45;&gt;3 -->
<g id="edge12" class="edge">
<title>2&#45;&gt;3</title>
<path fill="none" stroke="black" d="M345.63,-136.64C339.63,-133.61 332.62,-130.36 326,-128 288.14,-114.47 277.93,-111.7 238,-107 198.22,-102.32 152.68,-114.17 124.89,-123.37"/>
<polygon fill="black" stroke="black" points="123.47,-120.16 115.15,-126.73 125.75,-126.78 123.47,-120.16"/>
<text text-anchor="middle" x="230" y="-110.8" font-family="Helvetica,Arial,sans-serif" font-size="14.00">20</text>
</g>
<!-- 2&#45;&gt;4 -->
<g id="edge11" class="edge">
<title>2&#45;&gt;4</title>
<path fill="none" stroke="black" d="M380.33,-143.4C390.83,-143.27 404.08,-144.66 414,-151 425.31,-158.23 433.55,-170.56 439.18,-181.9"/>
<polygon fill="black" stroke="black" points="436,-183.38 443.3,-191.07 442.39,-180.51 436,-183.38"/>
<text text-anchor="middle" x="406" y="-154.8" font-family="Helvetica,Arial,sans-serif" font-size="14.00">32</text>
</g>
<!-- 0 -->
<g id="node6" class="node">
<title>0</title>
<ellipse fill="none" stroke="black" cx="274" cy="-167" rx="18" ry="18"/>
<text text-anchor="middle" x="274" y="-163.3" font-family="Helvetica,Arial,sans-serif" font-size="14.00">0</text>
</g>
<!-- 2&#45;&gt;0 -->
<g id="edge13" class="edge">
<title>2&#45;&gt;0</title>
<path fill="none" stroke="black" d="M345.64,-152.64C339.64,-155.34 332.63,-158.16 326,-160 318.42,-162.1 310.03,-163.59 302.27,-164.63"/>
<polygon fill="black" stroke="black" points="301.76,-161.17 292.23,-165.79 302.57,-168.12 301.76,-161.17"/>
<text text-anchor="middle" x="318" y="-166.8" font-family="Helvetica,Arial,sans-serif" font-size="14.00">0</text>
</g>
<!-- 1&#45;&gt;3 -->
<g id="edge15" class="edge">
<title>1&#45;&gt;3</title>
<path fill="none" stroke="black" d="M176.13,-173.74C169.95,-164.4 160.87,-152.95 150,-146 142.85,-141.43 134.19,-138.47 126.04,-136.55"/>
<polygon fill="black" stroke="black" points="126.64,-133.1 116.15,-134.62 125.3,-139.97 126.64,-133.1"/>
<text text-anchor="middle" x="142" y="-149.8" font-family="Helvetica,Arial,sans-serif" font-size="14.00">48</text>
</g>
<!-- 1&#45;&gt;4 -->
<g id="edge14" class="edge">
<title>1&#45;&gt;4</title>
<path fill="none" stroke="black" d="M200.56,-199.85C206.76,-204.29 214.41,-209.06 222,-212 301.68,-242.87 330.48,-240.06 414,-222 417.26,-221.29 420.61,-220.31 423.89,-219.2"/>
<polygon fill="black" stroke="black" points="425.25,-222.43 433.32,-215.57 422.73,-215.89 425.25,-222.43"/>
<text text-anchor="middle" x="318" y="-238.8" font-family="Helvetica,Arial,sans-serif" font-size="14.00">10</text>
</g>
<!-- 1&#45;&gt;0 -->
<g id="edge16" class="edge">
<title>1&#45;&gt;0</title>
<path fill="none" stroke="black" d="M203.58,-184.76C215.72,-181.65 232.44,-177.38 246.42,-173.8"/>
<polygon fill="black" stroke="black" points="247.65,-177.1 256.47,-171.23 245.91,-170.32 247.65,-177.1"/>
<text text-anchor="middle" x="230" y="-182.8" font-family="Helvetica,Arial,sans-serif" font-size="14.00">0</text>
</g>
<!-- 0&#45;&gt;2 -->
<g id="edge17" class="edge">
<title>0&#45;&gt;2</title>
<path fill="none" stroke="black" d="M287.47,-154.65C293.7,-149.35 301.66,-143.76 310,-141 317.74,-138.44 326.48,-138.23 334.52,-139.01"/>
<polygon fill="black" stroke="black" points="334.12,-142.49 344.53,-140.5 335.15,-135.57 334.12,-142.49"/>
<text text-anchor="middle" x="318" y="-144.8" font-family="Helvetica,Arial,sans-serif" font-size="14.00">19</text>
</g>
<!-- 0&#45;&gt;1 -->
<g id="edge18" class="edge">
<title>0&#45;&gt;1</title>
<path fill="none" stroke="black" d="M257.43,-159.54C247.12,-155.66 233.44,-152.56 222,-157 215.75,-159.42 209.94,-163.54 204.92,-168.03"/>
<polygon fill="black" stroke="black" points="202.34,-165.66 197.73,-175.2 207.28,-170.62 202.34,-165.66"/>
<text text-anchor="middle" x="230" y="-160.8" font-family="Helvetica,Arial,sans-serif" font-size="14.00">8</text>
</g>
</g>
</svg>
