<?xml version="1.0" encoding="UTF-8" standalone="no"?>
<!DOCTYPE svg PUBLIC "-//W3C//DTD SVG 1.1//EN"
 "http://www.w3.org/Graphics/SVG/1.1/DTD/svg11.dtd">
<!-- Generated by graphviz version 2.43.0 (0)
 -->
<!-- Title: finite_state_machine Pages: 1 -->
<svg width="332pt" height="223pt"
 viewBox="0.00 0.00 332.00 223.00" xmlns="http://www.w3.org/2000/svg" xmlns:xlink="http://www.w3.org/1999/xlink">
<g id="graph0" class="graph" transform="scale(1 1) rotate(0) translate(4 219)">
<title>finite_state_machine</title>
<polygon fill="white" stroke="transparent" points="-4,4 -4,-219 328,-219 328,4 -4,4"/>
<!-- 4 -->
<g id="node1" class="node">
<title>4</title>
<ellipse fill="none" stroke="black" cx="18" cy="-140" rx="18" ry="18"/>
<text text-anchor="middle" x="18" y="-136.3" font-family="Helvetica,Arial,sans-serif" font-size="14.00">4</text>
</g>
<!-- 5 -->
<g id="node2" class="node">
<title>5</title>
<ellipse fill="none" stroke="black" cx="215" cy="-197" rx="18" ry="18"/>
<text text-anchor="middle" x="215" y="-193.3" font-family="Helvetica,Arial,sans-serif" font-size="14.00">5</text>
</g>
<!-- 4&#45;&gt;5 -->
<g id="edge1" class="edge">
<title>4&#45;&gt;5</title>
<path fill="none" stroke="black" d="M34.04,-148.93C40.12,-152.34 47.27,-156.09 54,-159 93.09,-175.89 103.41,-179.83 145,-189 158.62,-192 174.01,-193.92 186.8,-195.13"/>
<polygon fill="black" stroke="black" points="186.57,-198.62 196.83,-195.98 187.16,-191.65 186.57,-198.62"/>
<text text-anchor="middle" x="109" y="-187.8" font-family="Helvetica,Arial,sans-serif" font-size="14.00">14/4</text>
</g>
<!-- 3 -->
<g id="node3" class="node">
<title>3</title>
<ellipse fill="none" stroke="black" cx="109" cy="-140" rx="18" ry="18"/>
<text text-anchor="middle" x="109" y="-136.3" font-family="Helvetica,Arial,sans-serif" font-size="14.00">3</text>
</g>
<!-- 4&#45;&gt;3 -->
<g id="edge2" class="edge">
<title>4&#45;&gt;3</title>
<path fill="none" stroke="black" d="M36.16,-140C48.72,-140 66.02,-140 80.5,-140"/>
<polygon fill="black" stroke="black" points="80.89,-143.5 90.89,-140 80.89,-136.5 80.89,-143.5"/>
<text text-anchor="middle" x="63.5" y="-143.8" font-family="Helvetica,Arial,sans-serif" font-size="14.00">0/7</text>
</g>
<!-- 3&#45;&gt;5 -->
<g id="edge3" class="edge">
<title>3&#45;&gt;5</title>
<path fill="none" stroke="black" d="M125.63,-147.03C139.81,-153.56 161.15,-163.79 179,-174 183.01,-176.3 187.19,-178.87 191.21,-181.44"/>
<polygon fill="black" stroke="black" points="189.33,-184.4 199.61,-186.97 193.17,-178.55 189.33,-184.4"/>
<text text-anchor="middle" x="162" y="-177.8" font-family="Helvetica,Arial,sans-serif" font-size="14.00">17/20</text>
</g>
<!-- 2 -->
<g id="node4" class="node">
<title>2</title>
<ellipse fill="none" stroke="black" cx="215" cy="-77" rx="18" ry="18"/>
<text text-anchor="middle" x="215" y="-73.3" font-family="Helvetica,Arial,sans-serif" font-size="14.00">2</text>
</g>
<!-- 3&#45;&gt;2 -->
<g id="edge4" class="edge">
<title>3&#45;&gt;2</title>
<path fill="none" stroke="black" d="M122.73,-128.22C129.14,-122.62 137.19,-116.06 145,-111 158.89,-102 175.5,-93.75 188.94,-87.63"/>
<polygon fill="black" stroke="black" points="190.37,-90.82 198.09,-83.57 187.53,-84.43 190.37,-90.82"/>
<text text-anchor="middle" x="162" y="-114.8" font-family="Helvetica,Arial,sans-serif" font-size="14.00">0/9</text>
</g>
<!-- 2&#45;&gt;4 -->
<g id="edge5" class="edge">
<title>2&#45;&gt;4</title>
<path fill="none" stroke="black" d="M196.8,-77.99C172.55,-79.82 127.24,-84.83 91,-98 73.37,-104.41 55.14,-115.09 41.43,-124.08"/>
<polygon fill="black" stroke="black" points="39.46,-121.19 33.13,-129.68 43.38,-126.99 39.46,-121.19"/>
<text text-anchor="middle" x="109" y="-101.8" font-family="Helvetica,Arial,sans-serif" font-size="14.00">14/14</text>
</g>
<!-- 1 -->
<g id="node5" class="node">
<title>1</title>
<ellipse fill="none" stroke="black" cx="306" cy="-77" rx="18" ry="18"/>
<text text-anchor="middle" x="306" y="-73.3" font-family="Helvetica,Arial,sans-serif" font-size="14.00">1</text>
</g>
<!-- 2&#45;&gt;1 -->
<g id="edge6" class="edge">
<title>2&#45;&gt;1</title>
<path fill="none" stroke="black" d="M233.16,-77C245.72,-77 263.02,-77 277.5,-77"/>
<polygon fill="black" stroke="black" points="277.89,-80.5 287.89,-77 277.89,-73.5 277.89,-80.5"/>
<text text-anchor="middle" x="260.5" y="-80.8" font-family="Helvetica,Arial,sans-serif" font-size="14.00">0/4</text>
</g>
<!-- 1&#45;&gt;3 -->
<g id="edge7" class="edge">
<title>1&#45;&gt;3</title>
<path fill="none" stroke="black" d="M289.96,-85.93C283.88,-89.34 276.73,-93.09 270,-96 230.91,-112.89 220.16,-115.08 179,-126 165.25,-129.65 149.73,-132.87 136.91,-135.31"/>
<polygon fill="black" stroke="black" points="136.06,-131.9 126.86,-137.15 137.33,-138.79 136.06,-131.9"/>
<text text-anchor="middle" x="215" y="-124.8" font-family="Helvetica,Arial,sans-serif" font-size="14.00">13/12</text>
</g>
<!-- 0 -->
<g id="node6" class="node">
<title>0</title>
<ellipse fill="none" stroke="black" cx="109" cy="-18" rx="18" ry="18"/>
<text text-anchor="middle" x="109" y="-14.3" font-family="Helvetica,Arial,sans-serif" font-size="14.00">0</text>
</g>
<!-- 0&#45;&gt;2 -->
<g id="edge8" class="edge">
<title>0&#45;&gt;2</title>
<path fill="none" stroke="black" d="M126.25,-23.58C140.65,-28.86 161.97,-37.54 179,-48 183.96,-51.05 188.96,-54.75 193.58,-58.47"/>
<polygon fill="black" stroke="black" points="191.47,-61.27 201.37,-65.05 195.99,-55.92 191.47,-61.27"/>
<text text-anchor="middle" x="162" y="-51.8" font-family="Helvetica,Arial,sans-serif" font-size="14.00">15/13</text>
</g>
<!-- 0&#45;&gt;1 -->
<g id="edge9" class="edge">
<title>0&#45;&gt;1</title>
<path fill="none" stroke="black" d="M127.2,-18.28C151.43,-19.14 196.73,-22.47 233,-35 250.84,-41.16 269.19,-51.95 282.9,-61.05"/>
<polygon fill="black" stroke="black" points="280.96,-63.96 291.19,-66.72 284.91,-58.18 280.96,-63.96"/>
<text text-anchor="middle" x="215" y="-38.8" font-family="Helvetica,Arial,sans-serif" font-size="14.00">16/16</text>
</g>
</g>
</svg>
